<?xml version="1.0" encoding="utf-8"?>
<!-- Generator: Adobe Illustrator 18.1.1, SVG Export Plug-In . SVG Version: 6.00 Build 0)  -->
<!DOCTYPE svg PUBLIC "-//W3C//DTD SVG 1.1//EN" "http://www.w3.org/Graphics/SVG/1.1/DTD/svg11.dtd">
<svg version="1.1" id="Layer_1" xmlns="http://www.w3.org/2000/svg" xmlns:xlink="http://www.w3.org/1999/xlink" x="0px" y="0px"
	 width="100px" height="100px" viewBox="0 0 100 100" enable-background="new 0 0 100 100" xml:space="preserve">
<g>
	<polygon fill="#BCD4DE" points="87.6,70.2 77.9,70.2 77.9,83 63.9,70.2 14.1,70.2 14.1,24.2 87.6,24.2 	"/>
	<path fill="#020202" d="M77.9,84.5c-0.4,0-0.7-0.1-1-0.4L63.3,71.7H14.1c-0.8,0-1.5-0.7-1.5-1.5V24.2c0-0.8,0.7-1.5,1.5-1.5h73.5
		c0.8,0,1.5,0.7,1.5,1.5v45.9c0,0.8-0.7,1.5-1.5,1.5h-8.2V83c0,0.6-0.4,1.1-0.9,1.4C78.3,84.5,78.1,84.5,77.9,84.5z M15.6,68.7h48.3
		c0.4,0,0.7,0.1,1,0.4l11.5,10.5v-9.4c0-0.8,0.7-1.5,1.5-1.5h8.2V25.7H15.6V68.7z"/>
</g>
<g>
	<rect x="23" y="33.5" fill="#FCB61E" width="18.1" height="27.8"/>
	<path fill="#020202" d="M41.1,62.8H23c-0.8,0-1.5-0.7-1.5-1.5V33.5c0-0.8,0.7-1.5,1.5-1.5h18.1c0.8,0,1.5,0.7,1.5,1.5v27.8
		C42.6,62.1,41.9,62.8,41.1,62.8z M24.5,59.8h15.1V35H24.5V59.8z"/>
</g>
<g>
	<path fill="#020202" d="M64.3,36.1H49.2c-0.8,0-1.5-0.7-1.5-1.5s0.7-1.5,1.5-1.5h15.2c0.8,0,1.5,0.7,1.5,1.5S65.2,36.1,64.3,36.1z"
		/>
</g>
<g>
	<path fill="#020202" d="M58.1,44.6h-9c-0.8,0-1.5-0.7-1.5-1.5s0.7-1.5,1.5-1.5h9c0.8,0,1.5,0.7,1.5,1.5S59,44.6,58.1,44.6z"/>
</g>
<g>
	<path fill="#020202" d="M78.7,44.6H64.4c-0.8,0-1.5-0.7-1.5-1.5s0.7-1.5,1.5-1.5h14.3c0.8,0,1.5,0.7,1.5,1.5S79.5,44.6,78.7,44.6z"
		/>
</g>
<g>
	<path fill="#020202" d="M79.5,53.1H49.2c-0.8,0-1.5-0.7-1.5-1.5c0-0.8,0.7-1.5,1.5-1.5h30.3c0.8,0,1.5,0.7,1.5,1.5
		C81,52.5,80.3,53.1,79.5,53.1z"/>
</g>
<g>
	<path fill="#020202" d="M79.5,61.7H49.2c-0.8,0-1.5-0.7-1.5-1.5s0.7-1.5,1.5-1.5h30.3c0.8,0,1.5,0.7,1.5,1.5S80.3,61.7,79.5,61.7z"
		/>
</g>
</svg>
