<?xml version="1.0" encoding="utf-8"?>
<!-- Generator: Adobe Illustrator 18.1.1, SVG Export Plug-In . SVG Version: 6.00 Build 0)  -->
<!DOCTYPE svg PUBLIC "-//W3C//DTD SVG 1.1//EN" "http://www.w3.org/Graphics/SVG/1.1/DTD/svg11.dtd">
<svg version="1.1" id="Layer_1" xmlns="http://www.w3.org/2000/svg" xmlns:xlink="http://www.w3.org/1999/xlink" x="0px" y="0px"
	 width="100px" height="100px" viewBox="0 0 100 100" enable-background="new 0 0 100 100" xml:space="preserve">
<g>
	<circle fill="#FCB61E" cx="49.9" cy="50.1" r="32.6"/>
	<path fill="#020202" d="M49.9,83.7c-18.5,0-33.6-15.1-33.6-33.6c0-18.5,15.1-33.6,33.6-33.6s33.6,15.1,33.6,33.6
		C83.5,68.6,68.4,83.7,49.9,83.7z M49.9,18.4c-17.4,0-31.6,14.2-31.6,31.6s14.2,31.6,31.6,31.6c17.4,0,31.6-14.2,31.6-31.6
		S67.3,18.4,49.9,18.4z"/>
</g>
<g>
	<g>
		<path fill="#FFFFFF" d="M46.2,41.4c-0.1-0.7-0.2-1.4-0.5-2l1.9-1.6l-2.6-3.2l-1.9,1.6c-0.6-0.4-1.2-0.7-1.9-0.9v-2.5h-4.1v2.5
			c-0.7,0.2-1.3,0.5-1.9,0.9l-1.9-1.6l-2.6,3.2l1.9,1.6c-0.3,0.6-0.4,1.3-0.5,2L29.8,42l0.9,4l2.4-0.6c0.4,0.6,0.8,1.2,1.3,1.6
			l-1.1,2.2l3.7,1.8l1.1-2.2c0.3,0.1,0.7,0.1,1,0.1c0.4,0,0.7,0,1-0.1l1.1,2.2l3.7-1.8L44,47.1c0.5-0.5,1-1,1.3-1.6l2.4,0.6l0.9-4
			L46.2,41.4z M39.2,45.1c-1.7,0-3.1-1.4-3.1-3.1c0-1.7,1.4-3.1,3.1-3.1c1.7,0,3.1,1.4,3.1,3.1C42.3,43.7,40.9,45.1,39.2,45.1z"/>
		<path fill="#020202" d="M41.3,52.1c-0.4,0-0.7-0.2-0.9-0.6L39.7,50c-0.3,0-0.6,0-0.9,0L38,51.6c-0.2,0.5-0.8,0.7-1.3,0.5l-3.7-1.8
			c-0.5-0.2-0.7-0.8-0.5-1.3l0.8-1.6c-0.2-0.2-0.4-0.5-0.6-0.7L30.9,47c-0.5,0.1-1.1-0.2-1.2-0.8l-0.9-4c-0.1-0.3,0-0.5,0.1-0.8
			s0.4-0.4,0.6-0.4l1.7-0.4c0-0.3,0.1-0.6,0.2-0.9l-1.4-1.1c-0.4-0.3-0.5-1-0.2-1.4l2.6-3.2c0.3-0.4,1-0.5,1.4-0.2l1.4,1.1
			c0.3-0.1,0.5-0.3,0.8-0.4v-1.8c0-0.6,0.4-1,1-1h4.1c0.6,0,1,0.4,1,1v1.8c0.3,0.1,0.5,0.2,0.8,0.4l1.4-1.1c0.4-0.3,1.1-0.3,1.4,0.2
			l2.6,3.2c0.3,0.4,0.3,1.1-0.2,1.4l-1.4,1.1c0.1,0.3,0.1,0.6,0.2,0.9l1.7,0.4c0.5,0.1,0.9,0.7,0.8,1.2l-0.9,4
			c-0.1,0.3-0.2,0.5-0.4,0.6s-0.5,0.2-0.8,0.1l-1.7-0.4c-0.2,0.2-0.4,0.5-0.6,0.7l0.8,1.6c0.1,0.2,0.1,0.5,0,0.8
			c-0.1,0.3-0.3,0.5-0.5,0.6L41.8,52C41.6,52.1,41.5,52.1,41.3,52.1z M40.3,47.9c0.4,0,0.7,0.2,0.9,0.6l0.6,1.3l1.9-0.9l-0.6-1.3
			c-0.2-0.4-0.1-0.9,0.2-1.2c0.4-0.4,0.8-0.9,1.1-1.4c0.2-0.4,0.7-0.6,1.1-0.5l1.5,0.3l0.5-2.1L46,42.4c-0.4-0.1-0.7-0.5-0.8-0.9
			c0-0.6-0.2-1.2-0.4-1.7c-0.2-0.4,0-0.9,0.3-1.1l1.2-0.9L44.9,36L43.8,37c-0.3,0.3-0.8,0.3-1.2,0c-0.5-0.3-1-0.6-1.6-0.8
			c-0.4-0.1-0.7-0.5-0.7-1v-1.5h-2.1v1.5c0,0.4-0.3,0.8-0.7,1c-0.6,0.2-1.1,0.4-1.6,0.8c-0.4,0.2-0.8,0.2-1.2,0L33.5,36l-1.3,1.7
			l1.2,0.9c0.3,0.3,0.5,0.7,0.3,1.1c-0.2,0.6-0.4,1.1-0.4,1.7c0,0.4-0.3,0.8-0.8,0.9L31,42.7l0.5,2.1l1.5-0.3
			c0.4-0.1,0.9,0.1,1.1,0.5c0.3,0.5,0.7,1,1.1,1.4c0.3,0.3,0.4,0.8,0.2,1.2l-0.6,1.3l1.9,0.9l0.6-1.3c0.2-0.4,0.6-0.6,1-0.6
			c0.6,0.1,1.2,0.1,1.8,0C40.2,47.9,40.2,47.9,40.3,47.9z M39.2,46.1c-2.3,0-4.1-1.8-4.1-4.1s1.8-4.1,4.1-4.1s4.1,1.8,4.1,4.1
			S41.5,46.1,39.2,46.1z M39.2,39.9c-1.2,0-2.1,0.9-2.1,2.1s0.9,2.1,2.1,2.1c1.2,0,2.1-0.9,2.1-2.1S40.4,39.9,39.2,39.9z"/>
	</g>
	<g>
		<path fill="#FFFFFF" d="M66.7,60c0.2-1,0.2-1.9,0.1-2.8l3.1-1.4l-2.3-5.1L64.5,52c-0.6-0.7-1.4-1.3-2.2-1.8l0.8-3.3l-5.5-1.4
			l-0.8,3.3c-1,0-1.9,0.2-2.8,0.6l-2-2.7l-4.5,3.4l2,2.7c-0.5,0.8-1,1.6-1.3,2.5l-3.4-0.1l-0.1,5.6l3.4,0.1c0.3,0.9,0.7,1.8,1.2,2.6
			l-2.2,2.6l4.3,3.6l2.2-2.6c0.4,0.2,0.9,0.3,1.3,0.5c0.5,0.1,0.9,0.2,1.4,0.2l0.7,3.3l5.5-1.1l-0.7-3.3c0.8-0.5,1.6-1,2.3-1.7
			l3,1.5l2.6-5L66.7,60z M56.3,62.4c-2.2-0.6-3.6-2.9-3-5.1s2.9-3.6,5.1-3c2.2,0.6,3.6,2.9,3,5.1C60.8,61.6,58.5,63,56.3,62.4z"/>
		<path fill="#020202" d="M57,72.2c-0.5,0-0.9-0.3-1-0.8l-0.5-2.6c-0.3,0-0.5-0.1-0.8-0.2c-0.3-0.1-0.5-0.1-0.8-0.2l-1.7,2
			c-0.4,0.4-1,0.5-1.4,0.1l-4.3-3.6c-0.4-0.4-0.5-1-0.1-1.4l1.7-2c-0.3-0.5-0.5-1-0.7-1.5l-2.7-0.1c-0.3,0-0.5-0.1-0.7-0.3
			c-0.2-0.2-0.3-0.4-0.3-0.7l0.1-5.6c0-0.6,0.5-1,1-1l2.7,0.1c0.2-0.5,0.5-1,0.8-1.5l-1.6-2.1c-0.2-0.2-0.2-0.5-0.2-0.7
			c0-0.3,0.2-0.5,0.4-0.7l4.5-3.4c0.4-0.3,1.1-0.2,1.4,0.2l1.6,2.1c0.5-0.2,1.1-0.3,1.6-0.3l0.7-2.6c0.1-0.3,0.2-0.5,0.5-0.6
			c0.2-0.1,0.5-0.2,0.8-0.1l5.5,1.4c0.3,0.1,0.5,0.2,0.6,0.5c0.1,0.2,0.2,0.5,0.1,0.8l-0.7,2.6c0.4,0.3,0.9,0.7,1.3,1.1l2.4-1.1
			c0.5-0.2,1.1,0,1.3,0.5l2.3,5.1c0.2,0.5,0,1.1-0.5,1.3l-2.4,1.1c0,0.6,0,1.1,0,1.7l2.4,1.2c0.5,0.3,0.7,0.9,0.4,1.3L68,67
			c-0.3,0.5-0.9,0.7-1.3,0.4l-2.4-1.2c-0.4,0.4-0.9,0.7-1.3,1l0.5,2.6c0.1,0.3,0,0.5-0.1,0.8C63.2,70.8,63,71,62.8,71l-5.5,1.1
			C57.2,72.1,57.1,72.2,57,72.2z M53.6,66.1c0.1,0,0.3,0,0.4,0.1c0.4,0.2,0.8,0.3,1.2,0.4c0.4,0.1,0.8,0.2,1.3,0.2
			c0.4,0,0.8,0.4,0.9,0.8l0.5,2.3l3.6-0.7l-0.5-2.3c-0.1-0.4,0.1-0.9,0.5-1.1c0.7-0.4,1.4-0.9,2-1.5c0.3-0.3,0.8-0.4,1.2-0.2
			l2.1,1.1l1.7-3.2l-2.1-1.1c-0.4-0.2-0.6-0.6-0.5-1.1c0.1-0.8,0.2-1.7,0.1-2.5c-0.1-0.4,0.2-0.9,0.6-1l2.2-1L67.1,52l-2.2,1
			c-0.4,0.2-0.9,0.1-1.2-0.2c-0.6-0.6-1.2-1.2-1.9-1.6c-0.4-0.2-0.6-0.7-0.4-1.1l0.6-2.3l-3.5-0.9l-0.6,2.3
			c-0.1,0.4-0.5,0.7-0.9,0.8c-0.8,0-1.7,0.2-2.5,0.5c-0.4,0.2-0.9,0-1.1-0.3l-1.4-1.9l-2.9,2.2l1.4,1.9c0.3,0.3,0.3,0.8,0,1.2
			c-0.5,0.7-0.9,1.5-1.2,2.3c-0.1,0.4-0.5,0.7-1,0.7l-2.4-0.1l-0.1,3.6l2.4,0.1c0.4,0,0.8,0.3,0.9,0.7c0.2,0.8,0.6,1.6,1,2.3
			c0.2,0.4,0.2,0.8-0.1,1.2L48.5,66l2.8,2.3l1.5-1.8C53,66.3,53.3,66.1,53.6,66.1z M57.3,63.5c-0.4,0-0.9-0.1-1.3-0.2
			c-1.3-0.3-2.5-1.2-3.2-2.4c-0.7-1.2-0.9-2.6-0.6-3.9c0.6-2.3,2.7-3.9,5-3.9c0.4,0,0.9,0.1,1.3,0.2c1.3,0.3,2.5,1.2,3.2,2.4
			c0.7,1.2,0.9,2.6,0.6,3.9C61.8,61.9,59.7,63.5,57.3,63.5z M57.3,55.1c-1.5,0-2.7,1-3.1,2.4c-0.2,0.8-0.1,1.7,0.3,2.4
			c0.4,0.7,1.1,1.3,2,1.5c1.7,0.4,3.5-0.6,3.9-2.3c0.2-0.8,0.1-1.7-0.3-2.4c-0.4-0.7-1.1-1.3-2-1.5C57.9,55.2,57.6,55.1,57.3,55.1z"
			/>
	</g>
</g>
</svg>
