<?xml version="1.0" encoding="utf-8"?>
<!-- Generator: Adobe Illustrator 18.1.1, SVG Export Plug-In . SVG Version: 6.00 Build 0)  -->
<!DOCTYPE svg PUBLIC "-//W3C//DTD SVG 1.1//EN" "http://www.w3.org/Graphics/SVG/1.1/DTD/svg11.dtd">
<svg version="1.1" id="Layer_1" xmlns="http://www.w3.org/2000/svg" xmlns:xlink="http://www.w3.org/1999/xlink" x="0px" y="0px"
	 width="100px" height="100px" viewBox="0 0 100 100" enable-background="new 0 0 100 100" xml:space="preserve">
<g>
	<circle fill="#FCB61E" cx="49.8" cy="50.1" r="24.2"/>
	<path fill="#030303" d="M49.8,75.3c-13.9,0-25.2-11.3-25.2-25.2S35.9,25,49.8,25c13.9,0,25.2,11.3,25.2,25.2S63.6,75.3,49.8,75.3z
		 M49.8,27C37,27,26.6,37.3,26.6,50.1S37,73.3,49.8,73.3c12.8,0,23.2-10.4,23.2-23.2S62.5,27,49.8,27z"/>
</g>
<g>
	<path fill="#FFFFFF" d="M49.8,35.9c-5.3,0-9.6,4.3-9.6,9.6c0,7,9.6,18.9,9.6,18.9s9.6-11.8,9.6-18.9C59.4,40.2,55.1,35.9,49.8,35.9
		z M49.8,49.4c-1.8,0-3.2-1.4-3.2-3.2S48,43,49.8,43s3.2,1.4,3.2,3.2S51.5,49.4,49.8,49.4z"/>
	<path fill="#020202" d="M49.8,65.3c-0.3,0-0.6-0.1-0.8-0.4c-0.4-0.5-9.8-12.2-9.8-19.5c0-5.8,4.8-10.6,10.6-10.6
		c5.8,0,10.6,4.8,10.6,10.6c0,7.4-9.4,19-9.8,19.5C50.4,65.2,50.1,65.3,49.8,65.3z M49.8,36.9c-4.7,0-8.6,3.9-8.6,8.6
		c0,5.4,6.4,14.3,8.6,17.2c2.2-2.9,8.6-11.7,8.6-17.2C58.4,40.7,54.5,36.9,49.8,36.9z M49.8,50.4c-2.3,0-4.2-1.9-4.2-4.2
		s1.9-4.2,4.2-4.2c2.3,0,4.2,1.9,4.2,4.2S52.1,50.4,49.8,50.4z M49.8,44c-1.2,0-2.2,1-2.2,2.2s1,2.2,2.2,2.2s2.2-1,2.2-2.2
		S51,44,49.8,44z"/>
</g>
</svg>
