<?xml version="1.0" encoding="utf-8"?>
<!-- Generator: Adobe Illustrator 18.1.1, SVG Export Plug-In . SVG Version: 6.00 Build 0)  -->
<!DOCTYPE svg PUBLIC "-//W3C//DTD SVG 1.1//EN" "http://www.w3.org/Graphics/SVG/1.1/DTD/svg11.dtd">
<svg version="1.1" id="Layer_1" xmlns="http://www.w3.org/2000/svg" xmlns:xlink="http://www.w3.org/1999/xlink" x="0px" y="0px"
	 width="100px" height="100px" viewBox="0 0 100 100" enable-background="new 0 0 100 100" xml:space="preserve">
<g>
	<circle fill="#FCB61E" cx="49.5" cy="50.1" r="32.6"/>
	<path fill="#020202" d="M49.5,83.7c-18.5,0-33.6-15.1-33.6-33.6c0-18.5,15.1-33.6,33.6-33.6s33.6,15.1,33.6,33.6
		C83.2,68.6,68.1,83.7,49.5,83.7z M49.5,18.4c-17.4,0-31.6,14.2-31.6,31.6s14.2,31.6,31.6,31.6s31.6-14.2,31.6-31.6
		S67,18.4,49.5,18.4z"/>
</g>
<g>
	<g>
		<path fill="#FFFFFF" d="M40.7,46.5h-2.8c-1.4,0-2.5,1.1-2.5,2.5v9.5c0,1.4,1.1,2.5,2.5,2.5h2.8V46.5z"/>
		<path fill="#020202" d="M40.7,62h-2.8c-1.9,0-3.5-1.6-3.5-3.5V49c0-1.9,1.6-3.5,3.5-3.5h2.8c0.6,0,1,0.4,1,1V61
			C41.7,61.6,41.2,62,40.7,62z M37.9,47.5c-0.8,0-1.5,0.7-1.5,1.5v9.5c0,0.8,0.7,1.5,1.5,1.5h1.8V47.5H37.9z"/>
	</g>
	<g>
		<path fill="#FFFFFF" d="M58.4,46.5h2.8c1.4,0,2.5,1.1,2.5,2.5v9.5c0,1.4-1.1,2.5-2.5,2.5h-2.8V46.5z"/>
		<path fill="#020202" d="M61.2,62h-2.8c-0.6,0-1-0.4-1-1V46.5c0-0.6,0.4-1,1-1h2.8c1.9,0,3.5,1.6,3.5,3.5v9.5
			C64.8,60.4,63.2,62,61.2,62z M59.4,60h1.8c0.8,0,1.5-0.7,1.5-1.5V49c0-0.8-0.7-1.5-1.5-1.5h-1.8V60z"/>
	</g>
	<g>
		<path fill="#020202" d="M60.7,47.5c-0.6,0-1-0.4-1-1v-4.1c0-4.4-3.6-7.9-7.9-7.9h-4.4c-4.4,0-7.9,3.6-7.9,7.9v4.1c0,0.6-0.4,1-1,1
			s-1-0.4-1-1v-4.1c0-5.5,4.5-9.9,9.9-9.9h4.4c5.5,0,9.9,4.5,9.9,9.9v4.1C61.7,47,61.2,47.5,60.7,47.5z"/>
	</g>
	<g>
		<path fill="#020202" d="M52.5,68.5c-0.5,0-0.9-0.4-1-0.9c-0.1-0.5,0.3-1,0.9-1.1c4.4-0.5,6.9-5.9,6.9-5.9c0.2-0.5,0.8-0.7,1.3-0.5
			c0.5,0.2,0.7,0.8,0.5,1.3c-0.1,0.3-3,6.5-8.5,7.1C52.5,68.5,52.5,68.5,52.5,68.5z"/>
	</g>
	<g>
		<circle fill="#FFFFFF" cx="51" cy="68.1" r="2.3"/>
		<path fill="#020202" d="M51,71.4c-1.8,0-3.3-1.5-3.3-3.3c0-1.8,1.5-3.3,3.3-3.3s3.3,1.5,3.3,3.3C54.3,70,52.8,71.4,51,71.4z
			 M51,66.8c-0.7,0-1.3,0.6-1.3,1.3s0.6,1.3,1.3,1.3s1.3-0.6,1.3-1.3S51.7,66.8,51,66.8z"/>
	</g>
</g>
</svg>
