<?xml version="1.0" encoding="utf-8"?>
<!-- Generator: Adobe Illustrator 18.1.1, SVG Export Plug-In . SVG Version: 6.00 Build 0)  -->
<!DOCTYPE svg PUBLIC "-//W3C//DTD SVG 1.1//EN" "http://www.w3.org/Graphics/SVG/1.1/DTD/svg11.dtd">
<svg version="1.1" id="Layer_1" xmlns="http://www.w3.org/2000/svg" xmlns:xlink="http://www.w3.org/1999/xlink" x="0px" y="0px"
	 width="100px" height="100px" viewBox="0 0 100 100" enable-background="new 0 0 100 100" xml:space="preserve">
<g>
	<circle fill="#FCB61E" cx="49.5" cy="50.1" r="32.6"/>
	<path fill="#020202" d="M49.5,83.7c-18.5,0-33.6-15.1-33.6-33.6c0-18.5,15.1-33.6,33.6-33.6s33.6,15.1,33.6,33.6
		C83.2,68.6,68.1,83.7,49.5,83.7z M49.5,18.4c-17.4,0-31.6,14.2-31.6,31.6s14.2,31.6,31.6,31.6s31.6-14.2,31.6-31.6
		S67,18.4,49.5,18.4z"/>
</g>
<g>
	<circle fill="#EFEFEF" cx="49.5" cy="50.1" r="15.5"/>
</g>
<g>
	<g>
		<path fill="#020202" d="M65.5,52.5c-0.2,0-0.5-0.1-0.6-0.2l-3.8-3.1c-0.4-0.4-0.5-1-0.1-1.4c0.4-0.4,1-0.5,1.4-0.1l2.9,2.4
			l1.9-2.9c0.3-0.5,0.9-0.6,1.4-0.3c0.5,0.3,0.6,0.9,0.3,1.4L66.3,52c-0.2,0.2-0.4,0.4-0.7,0.4C65.6,52.5,65.5,52.5,65.5,52.5z"/>
	</g>
	<g>
		<g>
			<path fill="#020202" d="M49.6,66.5c-9.1,0-16.5-7.4-16.5-16.5c0-0.6,0.4-1,1-1s1,0.4,1,1c0,8,6.5,14.5,14.5,14.5
				c6.1,0,11.6-3.8,13.6-9.6c0.2-0.5,0.8-0.8,1.3-0.6c0.5,0.2,0.8,0.8,0.6,1.3C62.8,62.2,56.6,66.5,49.6,66.5z"/>
		</g>
		<g>
			<path fill="#020202" d="M65.1,51.1c-0.6,0-1-0.4-1-1c0-8-6.5-14.5-14.5-14.5c-6.2,0-11.7,3.9-13.7,9.8c-0.2,0.5-0.7,0.8-1.3,0.6
				c-0.5-0.2-0.8-0.7-0.6-1.3c2.3-6.7,8.5-11.2,15.6-11.2c9.1,0,16.5,7.4,16.5,16.5C66.1,50.6,65.7,51.1,65.1,51.1z"/>
		</g>
		<g>
			<path fill="#020202" d="M37.3,53.3c-0.3,0-0.6-0.1-0.8-0.4l-2.3-3l-2.6,2.4c-0.4,0.4-1,0.4-1.4,0s-0.4-1,0-1.4l3.4-3.2
				c0.2-0.2,0.5-0.3,0.8-0.3c0.3,0,0.5,0.2,0.7,0.4l3,3.9c0.3,0.4,0.2,1.1-0.2,1.4C37.7,53.2,37.5,53.3,37.3,53.3z"/>
		</g>
	</g>
</g>
<g>
	<path fill="#020202" d="M47.2,53.4c0.8,0.4,1.3,0.6,2.1,0.6c1.3,0,2-0.5,2-1.4c0-0.4-0.1-0.7-0.3-0.9c-0.2-0.2-0.5-0.3-1-0.4
		l-1.3-0.2c-0.9-0.1-1.6-0.4-2.1-0.9c-0.5-0.5-0.8-1.2-0.8-2.2c0-1.7,1.1-2.9,2.9-3.3v-0.4c0-0.4,0-0.6,0.1-0.8
		c0.1-0.2,0.4-0.4,0.7-0.4s0.6,0.2,0.7,0.4c0.1,0.2,0.1,0.3,0.1,0.8v0.3c0.7,0.1,1.2,0.2,1.8,0.5c0.5,0.2,0.9,0.6,0.9,1.1
		c0,0.2-0.1,0.5-0.2,0.7c-0.2,0.2-0.4,0.3-0.6,0.3c-0.3,0-0.6-0.1-0.8-0.2c-0.6-0.3-1.1-0.4-1.7-0.4c-1.1,0-1.7,0.6-1.7,1.3
		c0,0.3,0.1,0.6,0.3,0.8c0.2,0.2,0.5,0.3,1,0.4l1.3,0.2c1,0.1,1.7,0.4,2.1,0.9c0.6,0.6,0.9,1.4,0.9,2.3c0,1.8-1.3,3-3.2,3.3v0.7
		c0,0.4,0,0.6-0.1,0.8c-0.1,0.2-0.4,0.4-0.7,0.4s-0.6-0.2-0.7-0.4c-0.1-0.2-0.1-0.3-0.1-0.8v-0.6c-0.8-0.1-1.4-0.2-2-0.5
		c-0.7-0.3-1.1-0.6-1.1-1.3c0-0.2,0.1-0.5,0.3-0.7c0.2-0.2,0.4-0.2,0.6-0.2C46.6,53.1,46.8,53.2,47.2,53.4z"/>
</g>
</svg>
