<?xml version="1.0" encoding="utf-8"?>
<!-- Generator: Adobe Illustrator 18.1.1, SVG Export Plug-In . SVG Version: 6.00 Build 0)  -->
<!DOCTYPE svg PUBLIC "-//W3C//DTD SVG 1.1//EN" "http://www.w3.org/Graphics/SVG/1.1/DTD/svg11.dtd">
<svg version="1.1" id="Layer_1" xmlns="http://www.w3.org/2000/svg" xmlns:xlink="http://www.w3.org/1999/xlink" x="0px" y="0px"
	 width="100px" height="100px" viewBox="0 0 100 100" enable-background="new 0 0 100 100" xml:space="preserve">
<g>
	<circle fill="#FCB61E" cx="50.1" cy="50.4" r="32.6"/>
	<path fill="#020202" d="M50.1,84C31.6,84,16.5,69,16.5,50.4s15.1-33.6,33.6-33.6s33.6,15.1,33.6,33.6S68.7,84,50.1,84z M50.1,18.8
		c-17.4,0-31.6,14.2-31.6,31.6S32.7,82,50.1,82c17.4,0,31.6-14.2,31.6-31.6S67.6,18.8,50.1,18.8z"/>
</g>
<g>
	<g>
		<path fill="#FFFFFF" d="M68.7,47.7v-0.6c0-0.5-0.4-0.8-0.8-0.8h-7.6c-0.3,0-0.5,0.2-0.5,0.5v1.3c0,0.3,0.2,0.5,0.5,0.5h7.6
			C68.4,48.6,68.7,48.2,68.7,47.7z"/>
	</g>
	<g>
		<path fill="#FFFFFF" d="M68.7,47.5L68.7,47.5c0-0.6-0.5-1.1-1.1-1.1h-7.1"/>
		<path fill="#020202" d="M68.7,48.5c-0.6,0-1-0.4-1-1c0-0.1-0.1-0.1-0.1-0.1h-7.1c-0.6,0-1-0.4-1-1s0.4-1,1-1h7.1
			c1.2,0,2.1,1,2.1,2.1C69.7,48,69.3,48.5,68.7,48.5z"/>
	</g>
	<g>
		<path fill="#FFFFFF" d="M65.3,48.6v-7.5H38c-1.7,0-3.3-0.7-4.4-2L33.5,39v22.7h0c0,1.5,1.2,2.6,2.6,2.6h1.1h28.1v-7.9"/>
		<path fill="#020202" d="M65.3,65.3H36.1c-2,0-3.6-1.6-3.6-3.6V39c0-0.4,0.3-0.8,0.6-0.9c0.4-0.1,0.8,0,1.1,0.3l0.1,0.1
			c0.9,1,2.3,1.6,3.7,1.6h27.2c0.6,0,1,0.4,1,1v7.5c0,0.6-0.4,1-1,1s-1-0.4-1-1v-6.5H38c-1.3,0-2.5-0.3-3.5-1v20.6
			c0,0.9,0.7,1.6,1.6,1.6h28.2v-6.9c0-0.6,0.4-1,1-1s1,0.4,1,1v7.9C66.3,64.9,65.8,65.3,65.3,65.3z"/>
	</g>
	<g>
		<path fill="#FFFFFF" d="M61.1,41.1H35.7c-1.2,0-2.2-1-2.2-2.2v0c0-1.2,1-2.2,2.2-2.2h25.5v1.6"/>
		<path fill="#020202" d="M61.1,42.1H35.7c-1.8,0-3.2-1.4-3.2-3.2s1.4-3.2,3.2-3.2h25.5c0.6,0,1,0.4,1,1v1.6c0,0.6-0.4,1-1,1
			s-1-0.4-1-1v-0.6H35.7c-0.7,0-1.2,0.5-1.2,1.2c0,0.7,0.5,1.2,1.2,1.2h25.5c0.6,0,1,0.4,1,1S61.7,42.1,61.1,42.1z"/>
	</g>
	<g>
		<path fill="#FFFFFF" d="M58.5,48.6h8.8c0.5,0,1.1-0.2,1.4-0.6l0,0v7.3h0c0,0.5-0.4,0.8-0.8,0.8h-0.3h-9.1V48.6z"/>
	</g>
	<g>
		<path fill="#FFFFFF" d="M65.3,48.6H54.5v7.5h13h0.3c0.5,0,0.8-0.4,0.8-0.8h0v-7.7"/>
		<path fill="#020202" d="M67.9,57.1H54.5c-0.6,0-1-0.4-1-1v-7.5c0-0.6,0.4-1,1-1h10.7c0.6,0,1,0.4,1,1s-0.4,1-1,1h-9.7v5.5h12.2
			l0-7.5c0-0.6,0.4-1,1-1l0,0c0.6,0,1,0.4,1,1v7.7C69.7,56.3,68.9,57.1,67.9,57.1z"/>
	</g>
	<g>
		<circle fill="#020202" cx="58.6" cy="52.3" r="1.2"/>
	</g>
</g>
</svg>
