<?xml version="1.0" encoding="utf-8"?>
<!-- Generator: Adobe Illustrator 18.1.1, SVG Export Plug-In . SVG Version: 6.00 Build 0)  -->
<!DOCTYPE svg PUBLIC "-//W3C//DTD SVG 1.1//EN" "http://www.w3.org/Graphics/SVG/1.1/DTD/svg11.dtd">
<svg version="1.1" id="Layer_1" xmlns="http://www.w3.org/2000/svg" xmlns:xlink="http://www.w3.org/1999/xlink" x="0px" y="0px"
	 width="100px" height="100px" viewBox="0 0 100 100" enable-background="new 0 0 100 100" xml:space="preserve">
<g>
	<circle fill="#FCB61E" cx="49.8" cy="50.1" r="32.6"/>
	<path fill="#020202" d="M49.8,83.7c-18.5,0-33.6-15.1-33.6-33.6c0-18.5,15.1-33.6,33.6-33.6c18.5,0,33.6,15.1,33.6,33.6
		C83.4,68.6,68.3,83.7,49.8,83.7z M49.8,18.4c-17.4,0-31.6,14.2-31.6,31.6s14.2,31.6,31.6,31.6s31.6-14.2,31.6-31.6
		S67.2,18.4,49.8,18.4z"/>
</g>
<g>
	<path fill="#EFEFEF" d="M66.7,63.5H33.1c-1.6,0-3-1.3-3-3V41.8c0-1.6,1.3-3,3-3h33.5c1.6,0,3,1.3,3,3v18.8
		C69.7,62.2,68.3,63.5,66.7,63.5z"/>
	<path fill="#020202" d="M66.7,64.5H33.1c-2.2,0-4-1.8-4-4V41.8c0-2.2,1.8-4,4-4h33.5c2.2,0,4,1.8,4,4v18.8
		C70.7,62.7,68.9,64.5,66.7,64.5z M33.1,39.8c-1.1,0-2,0.9-2,2v18.8c0,1.1,0.9,2,2,2h33.5c1.1,0,2-0.9,2-2V41.8c0-1.1-0.9-2-2-2
		H33.1z"/>
</g>
<g>
	<polygon fill="#EFEFEF" points="44.4,59.1 44.4,55.8 40.9,54 40.9,54 37.4,55.8 37.4,59.1 	"/>
	<path fill="#020202" d="M44.4,60.1h-7.1c-0.6,0-1-0.4-1-1v-3.3c0-0.4,0.2-0.7,0.5-0.9l3.5-1.8c0.3-0.1,0.6-0.1,0.9,0l3.5,1.8
		c0.3,0.2,0.5,0.5,0.5,0.9v3.3C45.4,59.7,45,60.1,44.4,60.1z M38.4,58.1h5.1v-1.7l-2.5-1.3l-2.5,1.3V58.1z"/>
</g>
<g>
	<path fill="#020202" d="M47.4,60.5h-13c-0.6,0-1-0.4-1-1V43c0-0.6,0.4-1,1-1h13c0.6,0,1,0.4,1,1v16.5C48.4,60,47.9,60.5,47.4,60.5z
		 M35.4,58.5h11V44h-11V58.5z"/>
</g>
<g>
	<rect x="51.4" y="43" fill="#EFEFEF" width="13.9" height="4.5"/>
	<path fill="#020202" d="M65.3,48.4H51.4c-0.6,0-1-0.4-1-1V43c0-0.6,0.4-1,1-1h13.9c0.6,0,1,0.4,1,1v4.5
		C66.3,48,65.9,48.4,65.3,48.4z M52.4,46.4h11.9V44H52.4V46.4z"/>
</g>
<g>
	<path fill="#020202" d="M65.3,52.1H51.5c-0.6,0-1-0.4-1-1c0-0.6,0.4-1,1-1h13.8c0.6,0,1,0.4,1,1C66.3,51.7,65.9,52.1,65.3,52.1z"/>
</g>
<g>
	<path fill="#020202" d="M65.3,56.3H51.5c-0.6,0-1-0.4-1-1s0.4-1,1-1h13.8c0.6,0,1,0.4,1,1S65.9,56.3,65.3,56.3z"/>
</g>
<g>
	<path fill="#020202" d="M55.9,60.5h-4.4c-0.6,0-1-0.4-1-1s0.4-1,1-1h4.4c0.6,0,1,0.4,1,1S56.4,60.5,55.9,60.5z"/>
</g>
<g>
	<circle fill="#EFEFEF" cx="40.9" cy="51.2" r="2.9"/>
	<path fill="#020202" d="M40.9,55.1c-2.1,0-3.9-1.7-3.9-3.9c0-2.1,1.7-3.9,3.9-3.9s3.9,1.7,3.9,3.9C44.8,53.4,43,55.1,40.9,55.1z
		 M40.9,49.3c-1,0-1.9,0.8-1.9,1.9c0,1,0.8,1.9,1.9,1.9c1,0,1.9-0.8,1.9-1.9C42.8,50.2,41.9,49.3,40.9,49.3z"/>
</g>
</svg>
