<?xml version="1.0" encoding="utf-8"?>
<!-- Generator: Adobe Illustrator 18.1.1, SVG Export Plug-In . SVG Version: 6.00 Build 0)  -->
<!DOCTYPE svg PUBLIC "-//W3C//DTD SVG 1.1//EN" "http://www.w3.org/Graphics/SVG/1.1/DTD/svg11.dtd">
<svg version="1.1" id="Layer_1" xmlns="http://www.w3.org/2000/svg" xmlns:xlink="http://www.w3.org/1999/xlink" x="0px" y="0px"
	 width="200px" height="200px" viewBox="0 0 200 200" enable-background="new 0 0 200 200" xml:space="preserve">
<g>
	<g>
		<path fill="#BCD4DE" d="M116.3,74.4c-2.6,0-5,0.7-7.1,1.9C107,66.4,98.2,59,87.6,59c-12.2,0-22.1,9.9-22.1,22.1c0,0.1,0,0.1,0,0.2
			c-0.8-0.2-1.6-0.3-2.5-0.3c-6.1,0-11.1,5-11.1,11.1c0,6.1,5,11.1,11.1,11.1c4.2,0,48,0,53.3,0c8,0,14.5-6.5,14.5-14.5
			C130.8,80.8,124.3,74.4,116.3,74.4z"/>
	</g>
	<g>
		<path fill="#020202" d="M116.3,104.8H63c-6.9,0-12.6-5.7-12.6-12.6c0-7.3,6.2-13.2,13.6-12.6c0.8-12.3,11.1-22.1,23.6-22.1
			c10.5,0,19.5,6.7,22.6,16.6c1.9-0.8,4-1.2,6.1-1.2c0.8,0,1.5,0.7,1.5,1.5s-0.7,1.5-1.5,1.5c-2.2,0-4.4,0.6-6.4,1.7
			c-0.4,0.2-0.9,0.3-1.3,0.1c-0.4-0.2-0.8-0.6-0.9-1c-2.1-9.5-10.4-16.1-20.1-16.1C76.3,60.5,67,69.8,67,81.2l0,0.2
			c0,0.5-0.2,0.9-0.6,1.2c-0.4,0.3-0.8,0.4-1.3,0.3c-6.2-1.4-11.7,3.4-11.7,9.4c0,5.3,4.3,9.6,9.6,9.6h53.3c7.1,0,13-5.8,13-13
			c0-1.8-0.4-3.6-1.1-5.3c-0.3-0.8,0-1.6,0.8-2c0.8-0.3,1.6,0,2,0.8c0.9,2,1.4,4.2,1.4,6.5C132.3,97.6,125.1,104.8,116.3,104.8z"/>
	</g>
	<g>
		<path fill="#020202" d="M110.2,93.9c-0.3,0-0.7-0.1-0.9-0.3l-15-11.7L82.2,93.5c-0.6,0.6-1.5,0.6-2.1,0c-0.6-0.6-0.6-1.5,0-2.1
			l13.1-12.5c0.5-0.5,1.4-0.6,2-0.1L110,90.3l20.6-24.2c0.5-0.6,1.5-0.7,2.1-0.2c0.6,0.5,0.7,1.5,0.2,2.1l-21.5,25.3
			C111.1,93.7,110.7,93.9,110.2,93.9z"/>
	</g>
	<g>
		<circle fill="#FCB61E" cx="79.3" cy="92.7" r="3.4"/>
		<path fill="#020202" d="M79.3,97.5c-2.7,0-4.9-2.2-4.9-4.9s2.2-4.9,4.9-4.9s4.8,2.2,4.8,4.9S82,97.5,79.3,97.5z M79.3,90.8
			c-1,0-1.9,0.8-1.9,1.9s0.8,1.9,1.9,1.9s1.8-0.8,1.8-1.9S80.3,90.8,79.3,90.8z"/>
	</g>
	<g>
		<circle fill="#FCB61E" cx="94.2" cy="79.8" r="3.4"/>
		<path fill="#020202" d="M94.2,84.6c-2.7,0-4.9-2.2-4.9-4.9s2.2-4.9,4.9-4.9s4.9,2.2,4.9,4.9S96.8,84.6,94.2,84.6z M94.2,77.9
			c-1,0-1.9,0.8-1.9,1.9s0.8,1.9,1.9,1.9s1.9-0.8,1.9-1.9S95.2,77.9,94.2,77.9z"/>
	</g>
	<g>
		<circle fill="#FCB61E" cx="131.8" cy="67.1" r="3.4"/>
		<path fill="#020202" d="M131.8,71.9c-2.7,0-4.8-2.2-4.8-4.9s2.2-4.9,4.8-4.9c2.7,0,4.9,2.2,4.9,4.9S134.4,71.9,131.8,71.9z
			 M131.8,65.2c-1,0-1.8,0.8-1.8,1.9s0.8,1.9,1.8,1.9c1,0,1.9-0.8,1.9-1.9S132.8,65.2,131.8,65.2z"/>
	</g>
	<g>
		<circle fill="#FCB61E" cx="110.5" cy="92.7" r="3.4"/>
		<path fill="#020202" d="M110.5,97.5c-2.7,0-4.8-2.2-4.8-4.9s2.2-4.9,4.8-4.9c2.7,0,4.9,2.2,4.9,4.9S113.2,97.5,110.5,97.5z
			 M110.5,90.8c-1,0-1.8,0.8-1.8,1.9s0.8,1.9,1.8,1.9c1,0,1.9-0.8,1.9-1.9S111.6,90.8,110.5,90.8z"/>
	</g>
</g>
<g>
	<path fill="#020202" d="M135,135.5H34.6c-6,0-10.9-4.9-10.9-10.9V51.4c0-6,4.9-10.9,10.9-10.9h119.6c6,0,10.9,4.9,10.9,10.9v46.9
		c0,0.8-0.7,1.5-1.5,1.5s-1.5-0.7-1.5-1.5V51.4c0-4.3-3.5-7.9-7.9-7.9H34.6c-4.3,0-7.9,3.5-7.9,7.9v73.3c0,4.3,3.5,7.9,7.9,7.9H135
		c0.8,0,1.5,0.7,1.5,1.5S135.8,135.5,135,135.5z"/>
</g>
<g>
	<path fill="#020202" d="M114.1,152C114.1,152,114.1,152,114.1,152H74.7c-0.5,0-1-0.3-1.3-0.8c-0.3-0.5-0.3-1,0-1.5l3.5-5.9l0.2-9.9
		c0-0.8,0.7-1.5,1.5-1.5h31.4c0.8,0,1.5,0.7,1.5,1.5l0.2,9.8l3.5,5.8c0.2,0.3,0.3,0.6,0.3,1C115.6,151.3,115,152,114.1,152z
		 M77.3,149h34.1l-2.4-4.1c-0.1-0.2-0.2-0.5-0.2-0.7l-0.2-8.7H80.1l-0.2,8.8c0,0.3-0.1,0.5-0.2,0.7L77.3,149z"/>
</g>
<g>
	<path fill="#020202" d="M135.1,115.3H25.2c-0.8,0-1.5-0.7-1.5-1.5s0.7-1.5,1.5-1.5h109.9c0.8,0,1.5,0.7,1.5,1.5
		S136,115.3,135.1,115.3z"/>
</g>
<g>
	<circle fill="#BCD4DE" cx="94.4" cy="123.4" r="3.4"/>
	<path fill="#020202" d="M94.4,128.3c-2.7,0-4.9-2.2-4.9-4.9s2.2-4.9,4.9-4.9s4.9,2.2,4.9,4.9S97.1,128.3,94.4,128.3z M94.4,121.5
		c-1.1,0-1.9,0.9-1.9,1.9c0,1.1,0.9,1.9,1.9,1.9s1.9-0.9,1.9-1.9C96.3,122.3,95.4,121.5,94.4,121.5z"/>
</g>
<g>
	<path fill="#EFEFEF" d="M172.3,157.3h-27.2c-1.7,0-3.1-1.4-3.1-3.1v-45.8c0-1.7,1.4-3.1,3.1-3.1h27.2c1.7,0,3.1,1.4,3.1,3.1v45.8
		C175.5,155.9,174,157.3,172.3,157.3z"/>
	<path fill="#020202" d="M172.3,158.8h-27.2c-2.6,0-4.6-2.1-4.6-4.6v-45.8c0-2.6,2.1-4.6,4.6-4.6h27.2c2.6,0,4.6,2.1,4.6,4.6v45.8
		C177,156.7,174.9,158.8,172.3,158.8z M145.1,106.6c-0.9,0-1.6,0.7-1.6,1.6v45.8c0,0.9,0.7,1.6,1.6,1.6h27.2c0.9,0,1.6-0.7,1.6-1.6
		v-45.8c0-0.9-0.7-1.6-1.6-1.6H145.1z"/>
</g>
<g>
	<rect x="147.7" y="111.3" fill="#FCB61E" width="22.1" height="35.2"/>
	<path fill="#020202" d="M169.7,148h-22.1c-0.8,0-1.5-0.7-1.5-1.5v-35.2c0-0.8,0.7-1.5,1.5-1.5h22.1c0.8,0,1.5,0.7,1.5,1.5v35.2
		C171.2,147.3,170.6,148,169.7,148z M149.2,145h19.1v-32.2h-19.1V145z"/>
</g>
<g>
	<path fill="#020202" d="M161.9,153h-6.4c-0.8,0-1.5-0.7-1.5-1.5s0.7-1.5,1.5-1.5h6.4c0.8,0,1.5,0.7,1.5,1.5S162.7,153,161.9,153z"
		/>
</g>
<g>
	<path fill="#020202" d="M153.8,140.4c-0.8,0-1.5-0.7-1.5-1.5v-20.4c0-0.8,0.7-1.5,1.5-1.5s1.5,0.7,1.5,1.5v20.4
		C155.3,139.7,154.7,140.4,153.8,140.4z"/>
</g>
<g>
	<path fill="#020202" d="M158.4,140.4c-0.8,0-1.5-0.7-1.5-1.5v-13c0-0.8,0.7-1.5,1.5-1.5s1.5,0.7,1.5,1.5v13
		C159.9,139.7,159.3,140.4,158.4,140.4z"/>
</g>
<g>
	<path fill="#020202" d="M163,140.4c-0.8,0-1.5-0.7-1.5-1.5v-7.7c0-0.8,0.7-1.5,1.5-1.5s1.5,0.7,1.5,1.5v7.7
		C164.5,139.7,163.8,140.4,163,140.4z"/>
</g>
<g>
	<path fill="#020202" d="M104.2,145.8H78.8c-0.8,0-1.5-0.7-1.5-1.5s0.7-1.5,1.5-1.5h25.4c0.8,0,1.5,0.7,1.5,1.5
		S105,145.8,104.2,145.8z"/>
</g>
</svg>
