<?xml version="1.0" encoding="utf-8"?>
<!-- Generator: Adobe Illustrator 18.1.1, SVG Export Plug-In . SVG Version: 6.00 Build 0)  -->
<!DOCTYPE svg PUBLIC "-//W3C//DTD SVG 1.1//EN" "http://www.w3.org/Graphics/SVG/1.1/DTD/svg11.dtd">
<svg version="1.1" id="Layer_1" xmlns="http://www.w3.org/2000/svg" xmlns:xlink="http://www.w3.org/1999/xlink" x="0px" y="0px"
	 width="100px" height="100px" viewBox="0 0 100 100" enable-background="new 0 0 100 100" xml:space="preserve">
<g>
	<polyline fill="#BCD4DE" points="77.1,64.5 77.1,44.6 68,32.9 31.6,32.9 22.5,44 22.5,52.9 	"/>
</g>
<g>
	<path fill="#020202" d="M22.5,54.4c-0.8,0-1.5-0.7-1.5-1.5V44c0-0.3,0.1-0.7,0.3-0.9l3.9-5.1c0.5-0.7,1.4-0.8,2.1-0.3
		c0.7,0.5,0.8,1.4,0.3,2.1L24,44.6v8.3C24,53.7,23.3,54.4,22.5,54.4z"/>
</g>
<g>
	<path fill="#020202" d="M77.1,66c-0.8,0-1.5-0.7-1.5-1.5V45.1l-4.5-5.2c-0.5-0.6-0.5-1.6,0.1-2.1c0.6-0.5,1.6-0.5,2.1,0.1l4.9,5.6
		c0.2,0.3,0.4,0.6,0.4,1v19.9C78.6,65.3,78,66,77.1,66z"/>
</g>
<g>
	<polygon fill="#FCB61E" points="67.7,50.1 49.8,61.4 31.6,50.1 31.6,21.5 59,21.5 67.7,21.5 	"/>
	<path fill="#020202" d="M49.8,62.9c-0.3,0-0.5-0.1-0.8-0.2L30.8,51.4c-0.4-0.3-0.7-0.8-0.7-1.3V21.5c0-0.8,0.7-1.5,1.5-1.5h36.1
		c0.8,0,1.5,0.7,1.5,1.5v28.6c0,0.5-0.3,1-0.7,1.3L50.6,62.7C50.4,62.8,50.1,62.9,49.8,62.9z M33.1,49.3l16.7,10.4l16.4-10.4V23
		H33.1V49.3z"/>
</g>
<g>
	<polygon fill="#BCD4DE" points="77.1,76.5 22.5,76.5 22.5,44.6 49.8,61.4 77.1,44.6 	"/>
</g>
<g>
	<path fill="#020202" d="M77.1,78H22.5c-0.8,0-1.5-0.7-1.5-1.5v-32c0-0.8,0.7-1.5,1.5-1.5s1.5,0.7,1.5,1.5V75h51.7V44.6
		c0-0.8,0.7-1.5,1.5-1.5s1.5,0.7,1.5,1.5v32C78.6,77.4,78,78,77.1,78z"/>
</g>
<g>
	<path fill="#020202" d="M49.8,62.9c-0.3,0-0.5-0.1-0.8-0.2L27.5,49.4c-0.7-0.4-0.9-1.4-0.5-2.1c0.4-0.7,1.4-0.9,2.1-0.5l20.7,12.7
		l21.8-13.4c0.7-0.4,1.6-0.2,2.1,0.5c0.4,0.7,0.2,1.6-0.5,2.1L50.6,62.7C50.3,62.8,50.1,62.9,49.8,62.9z"/>
</g>
<g>
	<path fill="none" stroke="#020202" stroke-width="3" stroke-linecap="round" stroke-linejoin="round" stroke-miterlimit="10" d="
		M22.5,44.6"/>
</g>
<g>
	<path fill="#020202" d="M22.5,78c-0.5,0-1-0.3-1.3-0.8c-0.4-0.7-0.1-1.6,0.6-2l27.3-15.2c0.5-0.3,1-0.3,1.5,0l27.3,15.2
		c0.7,0.4,1,1.3,0.6,2c-0.4,0.7-1.3,1-2,0.6L49.8,63.1L23.2,77.9C23,78,22.7,78,22.5,78z"/>
</g>
<g>
	<path fill="#020202" d="M61.1,31.6H38.2c-0.8,0-1.5-0.7-1.5-1.5s0.7-1.5,1.5-1.5h22.9c0.8,0,1.5,0.7,1.5,1.5S61.9,31.6,61.1,31.6z"
		/>
</g>
<g>
	<path fill="#020202" d="M61.1,38.4H38.2c-0.8,0-1.5-0.7-1.5-1.5s0.7-1.5,1.5-1.5h22.9c0.8,0,1.5,0.7,1.5,1.5S61.9,38.4,61.1,38.4z"
		/>
</g>
<g>
	<path fill="#020202" d="M61.1,45.3H38.2c-0.8,0-1.5-0.7-1.5-1.5s0.7-1.5,1.5-1.5h22.9c0.8,0,1.5,0.7,1.5,1.5S61.9,45.3,61.1,45.3z"
		/>
</g>
</svg>
