<?xml version="1.0" encoding="utf-8"?>
<!-- Generator: Adobe Illustrator 18.1.1, SVG Export Plug-In . SVG Version: 6.00 Build 0)  -->
<!DOCTYPE svg PUBLIC "-//W3C//DTD SVG 1.1//EN" "http://www.w3.org/Graphics/SVG/1.1/DTD/svg11.dtd">
<svg version="1.1" id="Layer_1" xmlns="http://www.w3.org/2000/svg" xmlns:xlink="http://www.w3.org/1999/xlink" x="0px" y="0px"
	 width="200px" height="200px" viewBox="0 0 200 200" enable-background="new 0 0 200 200" xml:space="preserve">
<g>
	<circle fill="#BCD4DE" cx="103.9" cy="103.6" r="61.1"/>
</g>
<g>
	<rect x="62" y="58.2" fill="#ECEFF0" width="87.9" height="18.5"/>
</g>
<g>
	<path fill="#020202" d="M150.4,78.2h-13.2c-0.8,0-1.5-0.7-1.5-1.5s0.7-1.5,1.5-1.5h11.7V59.7H64v15.5h12c0.8,0,1.5,0.7,1.5,1.5
		s-0.7,1.5-1.5,1.5H62.5c-0.8,0-1.5-0.7-1.5-1.5V58.2c0-0.8,0.7-1.5,1.5-1.5h87.9c0.8,0,1.5,0.7,1.5,1.5v18.5
		C151.9,77.5,151.3,78.2,150.4,78.2z"/>
</g>
<g>
	<rect x="73.1" y="91.4" fill="#ECEFF0" width="21" height="28.7"/>
</g>
<g>
	<line fill="#ECEFF0" x1="77.7" y1="109.1" x2="83.6" y2="107"/>
	<path fill="#020202" d="M77.7,110.6c-0.6,0-1.2-0.4-1.4-1c-0.3-0.8,0.1-1.6,0.9-1.9l6-2.1c0.8-0.3,1.6,0.1,1.9,0.9
		c0.3,0.8-0.1,1.6-0.9,1.9l-6,2.1C78,110.6,77.8,110.6,77.7,110.6z"/>
</g>
<g>
	<line fill="#ECEFF0" x1="76.6" y1="103.7" x2="83.6" y2="101.2"/>
	<path fill="#020202" d="M76.6,105.2c-0.6,0-1.2-0.4-1.4-1c-0.3-0.8,0.1-1.6,0.9-1.9l7.1-2.5c0.8-0.3,1.6,0.1,1.9,0.9
		s-0.1,1.6-0.9,1.9l-7.1,2.5C76.9,105.2,76.8,105.2,76.6,105.2z"/>
</g>
<g>
	<rect x="83.7" y="67.4" fill="#ECEFF0" width="44.6" height="93"/>
	<path fill="#020202" d="M128.3,162H83.7c-0.8,0-1.5-0.7-1.5-1.5v-93c0-0.8,0.7-1.5,1.5-1.5h44.6c0.8,0,1.5,0.7,1.5,1.5v93
		C129.8,161.3,129.2,162,128.3,162z M85.2,159h41.6v-90H85.2V159z"/>
</g>
<g>
	<path fill="#ECEFF0" d="M120.5,146.8V81.1c-3.3,0-6-2.7-6-6h-17c0,3.3-2.7,6-6,6v65.7c3.3,0,6,2.7,6,6h17
		C114.5,149.5,117.2,146.8,120.5,146.8z"/>
	<path fill="#020202" d="M114.5,154.3h-17c-0.8,0-1.5-0.7-1.5-1.5c0-2.5-2-4.5-4.5-4.5c-0.8,0-1.5-0.7-1.5-1.5V81.1
		c0-0.8,0.7-1.5,1.5-1.5c2.5,0,4.5-2,4.5-4.5c0-0.8,0.7-1.5,1.5-1.5h17c0.8,0,1.5,0.7,1.5,1.5c0,2.5,2,4.5,4.5,4.5
		c0.8,0,1.5,0.7,1.5,1.5v65.7c0,0.8-0.7,1.5-1.5,1.5c-2.5,0-4.5,2-4.5,4.5C116,153.6,115.3,154.3,114.5,154.3z M98.9,151.3h14.3
		c0.6-2.9,2.9-5.3,5.9-5.9v-63c-2.9-0.6-5.3-2.9-5.9-5.9H98.9c-0.6,2.9-2.9,5.3-5.9,5.9v63C96,146,98.3,148.4,98.9,151.3z"/>
</g>
<g>
	<circle fill="#FCB61E" cx="106" cy="115.2" r="8.8"/>
	<path fill="#020202" d="M106,125.5c-5.7,0-10.3-4.6-10.3-10.3s4.6-10.3,10.3-10.3s10.3,4.6,10.3,10.3S111.7,125.5,106,125.5z
		 M106,107.9c-4,0-7.3,3.3-7.3,7.3c0,4,3.3,7.3,7.3,7.3s7.3-3.3,7.3-7.3C113.3,111.1,110.1,107.9,106,107.9z"/>
</g>
<g>
	<path fill="#ECEFF0" d="M51.8,142.8c8.2-2.8,16.3-1.2,25.1-7.9c7.7-5.9,21.2-16.8,25.4-20.2c1.2-0.9,1.9-2.4,1.8-3.8
		c0-0.6-0.2-1.1-0.5-1.6c-1.7-2.5-4.8-2-13.9,3.1c0,0-10.2,3.3-13-4.1C73.9,100.8,81,96,83.5,96V84.8c0,0-10.1,2.5-12.2,3.8
		c-2.1,1.3-2.8,3.1-5.6,7.4c-2.5,3.8-18.6,26.7-22.9,30.5C38.4,130.4,44.5,145.3,51.8,142.8z"/>
	<path fill="#020202" d="M50.1,144.6C50.1,144.6,50.1,144.6,50.1,144.6c-4.5,0-7.8-4.5-9.2-8.4c-1.7-4.5-1.4-8.8,0.9-10.8
		c4.1-3.6,19.8-25.7,22.6-30.2c0.6-1,1.2-1.9,1.6-2.6c1.6-2.6,2.5-4.1,4.4-5.3c2.3-1.4,11.6-3.7,12.6-4c0.4-0.1,0.9,0,1.3,0.3
		c0.4,0.3,0.6,0.7,0.6,1.2V96c0,0.8-0.7,1.5-1.5,1.5c-0.7,0-3,1-4.6,3.3c-1.4,2.1-1.7,4.4-0.7,6.8c1,2.6,3.2,3.9,6.7,3.9
		c2.1,0,3.8-0.5,4.3-0.6c6-3.4,9.3-4.7,11.7-4.7c1.7,0,3,0.7,4,2.1c0.5,0.7,0.7,1.5,0.8,2.4c0.1,1.9-0.8,3.8-2.4,5.1
		c-4,3.2-17.6,14.2-25.5,20.2c-6,4.6-11.7,5.5-17.3,6.3c-2.9,0.4-5.6,0.9-8.3,1.8C51.6,144.5,50.9,144.6,50.1,144.6z M82,86.7
		c-3.8,1-8.7,2.4-9.9,3.1c-1.3,0.8-2,1.9-3.5,4.3c-0.5,0.8-1,1.6-1.7,2.7c-2.5,3.8-18.7,26.8-23.2,30.8c-1.2,1.1-1.3,4.2,0,7.4
		c1.2,3.1,3.7,6.5,6.4,6.5h0c0.4,0,0.8-0.1,1.1-0.2c3-1,5.9-1.5,8.8-1.9c5.4-0.8,10.5-1.6,15.9-5.8c7.8-6,21.4-16.9,25.4-20.2
		c0.8-0.7,1.3-1.6,1.2-2.6c0-0.4-0.1-0.7-0.3-0.9c-0.4-0.6-0.8-0.8-1.5-0.8c-1.8,0-5,1.4-10.4,4.4c-0.1,0.1-0.2,0.1-0.3,0.1
		c-0.1,0-2.5,0.8-5.4,0.8c-4.7,0-8.1-2.1-9.5-5.8c-1.6-4.3-0.3-7.6,1.1-9.6c1.5-2.2,3.8-3.7,5.6-4.3V86.7z"/>
</g>
<g>
	<path fill="#020202" d="M136.3,68.9H75.7c-0.8,0-1.5-0.7-1.5-1.5s0.7-1.5,1.5-1.5h60.6c0.8,0,1.5,0.7,1.5,1.5
		S137.2,68.9,136.3,68.9z"/>
</g>
</svg>
