<?xml version="1.0" encoding="utf-8"?>
<!-- Generator: Adobe Illustrator 18.1.1, SVG Export Plug-In . SVG Version: 6.00 Build 0)  -->
<!DOCTYPE svg PUBLIC "-//W3C//DTD SVG 1.1//EN" "http://www.w3.org/Graphics/SVG/1.1/DTD/svg11.dtd">
<svg version="1.1" id="Layer_1" xmlns="http://www.w3.org/2000/svg" xmlns:xlink="http://www.w3.org/1999/xlink" x="0px" y="0px"
	 width="200px" height="200px" viewBox="0 0 200 200" enable-background="new 0 0 200 200" xml:space="preserve">
<g>
	<circle fill="#BCD4DE" cx="100.9" cy="97.5" r="61.1"/>
</g>
<g>
	<path fill="#FFFFFF" d="M124.7,141.8H77.1c-1.7,0-3.1-1.4-3.1-3.1V61.1c0-1.7,1.4-3.1,3.1-3.1h47.5c1.7,0,3.1,1.4,3.1,3.1v77.5
		C127.8,140.3,126.4,141.8,124.7,141.8z"/>
	<path fill="#020202" d="M124.7,143.3H77.1c-2.6,0-4.6-2.1-4.6-4.6V61.1c0-2.6,2.1-4.6,4.6-4.6h47.5c2.6,0,4.6,2.1,4.6,4.6v77.5
		C129.3,141.2,127.2,143.3,124.7,143.3z M77.1,59.5c-0.9,0-1.6,0.7-1.6,1.6v77.5c0,0.9,0.7,1.6,1.6,1.6h47.5c0.9,0,1.6-0.7,1.6-1.6
		V61.1c0-0.9-0.7-1.6-1.6-1.6H77.1z"/>
</g>
<g>
	<path fill="#FFFFFF" d="M124.7,141.8H77.1c-1.7,0-3.1-1.4-3.1-3.1V61.1c0-1.7,1.4-3.1,3.1-3.1h47.5c1.7,0,3.1,1.4,3.1,3.1v77.5
		C127.8,140.3,126.4,141.8,124.7,141.8z"/>
	<path fill="#020202" d="M124.7,143.3H77.1c-2.6,0-4.6-2.1-4.6-4.6V61.1c0-2.6,2.1-4.6,4.6-4.6h47.5c2.6,0,4.6,2.1,4.6,4.6v77.5
		C129.3,141.2,127.2,143.3,124.7,143.3z M77.1,59.5c-0.9,0-1.6,0.7-1.6,1.6v77.5c0,0.9,0.7,1.6,1.6,1.6h47.5c0.9,0,1.6-0.7,1.6-1.6
		V61.1c0-0.9-0.7-1.6-1.6-1.6H77.1z"/>
</g>
<g>
	<rect x="82.3" y="67.8" fill="#FCB61E" width="37.2" height="60.4"/>
	<path fill="#020202" d="M119.5,129.8H82.3c-0.8,0-1.5-0.7-1.5-1.5V67.8c0-0.8,0.7-1.5,1.5-1.5h37.2c0.8,0,1.5,0.7,1.5,1.5v60.4
		C121,129.1,120.3,129.8,119.5,129.8z M83.8,126.8H118V69.3H83.8V126.8z"/>
</g>
<g>
	<path fill="#020202" d="M106,136H95.8c-0.8,0-1.5-0.7-1.5-1.5s0.7-1.5,1.5-1.5H106c0.8,0,1.5,0.7,1.5,1.5S106.9,136,106,136z"/>
</g>
<g>
	<path fill="#EFEFEF" d="M112.6,96.6c0,2.9-1.7,5.4-4.4,7.1l2.5,5.2l-7.4-3.4c-0.8,0.1-1.5,0.2-2.3,0.2c-6.4,0-11.6-4-11.6-9
		c0-5,5.2-9,11.6-9S112.6,91.7,112.6,96.6z"/>
	<path fill="#020202" d="M110.8,110.4c-0.2,0-0.4,0-0.6-0.1l-7-3.2c-0.7,0.1-1.4,0.1-2.1,0.1c-7.2,0-13.1-4.7-13.1-10.5
		c0-5.8,5.9-10.5,13.1-10.5c7.2,0,13.1,4.7,13.1,10.5c0,2.9-1.4,5.6-4,7.6l1.9,3.9c0.2,0.2,0.3,0.5,0.3,0.9
		C112.3,109.7,111.6,110.4,110.8,110.4C110.8,110.4,110.8,110.4,110.8,110.4z M103.4,104c0.2,0,0.4,0,0.6,0.1l3.6,1.7l-0.7-1.4
		c-0.3-0.7-0.1-1.5,0.6-1.9c2.3-1.4,3.7-3.6,3.7-5.8c0-4.2-4.5-7.5-10.1-7.5S91,92.5,91,96.6c0,4.2,4.5,7.5,10.1,7.5
		c0.7,0,1.4-0.1,2.1-0.2C103.2,104,103.3,104,103.4,104z"/>
</g>
<g>
	<g>
		<path fill="#020202" d="M147.1,59.8c-0.7,0-1.3-0.5-1.5-1.2c-0.8-3.8-2.9-7.6-6-10.6c-3.3-3.3-7.4-5.5-11.4-6.1
			c-0.8-0.1-1.4-0.9-1.2-1.7c0.1-0.8,0.9-1.4,1.7-1.2c4.7,0.8,9.3,3.2,13.1,7c3.5,3.5,5.9,7.8,6.8,12.1c0.2,0.8-0.3,1.6-1.2,1.8
			C147.3,59.8,147.2,59.8,147.1,59.8z"/>
	</g>
	<g>
		<path fill="#020202" d="M141.3,60.9c-0.7,0-1.3-0.5-1.5-1.2c-0.5-2.8-2-5.5-4.3-7.8c-2.4-2.4-5.4-4-8.4-4.4
			c-0.8-0.1-1.4-0.9-1.3-1.7c0.1-0.8,0.9-1.4,1.7-1.3c3.6,0.5,7.2,2.3,10.1,5.2c2.7,2.7,4.5,6,5.1,9.4c0.1,0.8-0.4,1.6-1.2,1.7
			C141.5,60.9,141.4,60.9,141.3,60.9z"/>
	</g>
	<g>
		<path fill="#020202" d="M135,61.8c-0.7,0-1.4-0.5-1.5-1.2c-0.3-1.6-1.2-3.3-2.5-4.6c-1.3-1.3-2.9-2.2-4.6-2.5
			c-0.8-0.1-1.4-0.9-1.2-1.7c0.1-0.8,0.9-1.4,1.7-1.2c2.2,0.4,4.4,1.6,6.2,3.3c1.8,1.8,3,4,3.3,6.2c0.1,0.8-0.4,1.6-1.2,1.7
			C135.2,61.8,135.1,61.8,135,61.8z"/>
	</g>
</g>
<g>
	<g>
		<path fill="#020202" d="M72.4,161.9c-0.1,0-0.2,0-0.2,0c-4.7-0.8-9.3-3.2-13.1-7c-3.5-3.5-5.9-7.8-6.8-12.1
			c-0.2-0.8,0.3-1.6,1.2-1.8c0.8-0.2,1.6,0.3,1.8,1.2c0.8,3.8,2.9,7.6,6,10.6c3.3,3.3,7.4,5.5,11.4,6.1c0.8,0.1,1.4,0.9,1.2,1.7
			C73.7,161.4,73.1,161.9,72.4,161.9z"/>
	</g>
	<g>
		<path fill="#020202" d="M73.4,156.3c-0.1,0-0.1,0-0.2,0c-3.6-0.5-7.2-2.3-10.1-5.2c-2.7-2.7-4.5-6-5.1-9.4
			c-0.1-0.8,0.4-1.6,1.2-1.7c0.8-0.1,1.6,0.4,1.7,1.2c0.5,2.8,2,5.5,4.3,7.8c2.4,2.4,5.4,4,8.4,4.4c0.8,0.1,1.4,0.9,1.3,1.7
			C74.8,155.7,74.1,156.3,73.4,156.3z"/>
	</g>
	<g>
		<path fill="#020202" d="M74,150.3c-0.1,0-0.2,0-0.3,0c-2.2-0.4-4.4-1.6-6.2-3.3c-1.8-1.8-3-4-3.3-6.2c-0.1-0.8,0.4-1.6,1.2-1.7
			c0.8-0.1,1.6,0.4,1.7,1.2c0.3,1.6,1.2,3.3,2.5,4.6c1.3,1.3,2.9,2.2,4.5,2.5c0.8,0.1,1.4,0.9,1.2,1.7
			C75.4,149.8,74.7,150.3,74,150.3z"/>
	</g>
</g>
</svg>
