<?xml version="1.0" encoding="utf-8"?>
<!-- Generator: Adobe Illustrator 18.1.1, SVG Export Plug-In . SVG Version: 6.00 Build 0)  -->
<!DOCTYPE svg PUBLIC "-//W3C//DTD SVG 1.1//EN" "http://www.w3.org/Graphics/SVG/1.1/DTD/svg11.dtd">
<svg version="1.1" id="Layer_1" xmlns="http://www.w3.org/2000/svg" xmlns:xlink="http://www.w3.org/1999/xlink" x="0px" y="0px"
	 width="29.5px" height="29.5px" viewBox="0 0 29.5 29.5" enable-background="new 0 0 29.5 29.5" xml:space="preserve">
<g>
	<path fill="#020202" d="M23.8,9.3H5.3c-0.8,0-1.5-0.7-1.5-1.5s0.7-1.5,1.5-1.5h18.5c0.8,0,1.5,0.7,1.5,1.5S24.6,9.3,23.8,9.3z"/>
</g>
<g>
	<path fill="#020202" d="M23.8,16.8H5.3c-0.8,0-1.5-0.7-1.5-1.5s0.7-1.5,1.5-1.5h18.5c0.8,0,1.5,0.7,1.5,1.5S24.6,16.8,23.8,16.8z"
		/>
</g>
<g>
	<path fill="#020202" d="M23.8,24.4H5.3c-0.8,0-1.5-0.7-1.5-1.5s0.7-1.5,1.5-1.5h18.5c0.8,0,1.5,0.7,1.5,1.5S24.6,24.4,23.8,24.4z"
		/>
</g>
</svg>
