<?xml version="1.0" encoding="utf-8"?>
<!-- Generator: Adobe Illustrator 18.1.1, SVG Export Plug-In . SVG Version: 6.00 Build 0)  -->
<!DOCTYPE svg PUBLIC "-//W3C//DTD SVG 1.1//EN" "http://www.w3.org/Graphics/SVG/1.1/DTD/svg11.dtd">
<svg version="1.1" id="Layer_1" xmlns="http://www.w3.org/2000/svg" xmlns:xlink="http://www.w3.org/1999/xlink" x="0px" y="0px"
	 width="100px" height="100px" viewBox="0 0 100 100" enable-background="new 0 0 100 100" xml:space="preserve">
<g>
	<path fill="#BCD4DE" d="M73.7,67.1l-9.1-22.7c0-0.1-0.1-0.2-0.1-0.2l0.1,0l-2.1-5.7c-0.1-0.2-0.2-0.3-0.4-0.3h-3.4
		c-0.2,0-0.3,0.1-0.4,0.3L57,43.2c-1.8-0.1-4-0.1-6.5-0.1c-2.9,0-5.4,0.1-7.5,0.1l0,0l-1.4-4.6c0-0.2-0.2-0.3-0.4-0.3h-3.4
		c-0.2,0-0.3,0.1-0.4,0.3l-2.1,5.7l0,0c0,0.1-0.1,0.1-0.1,0.2l-8.3,23c-0.1,0.4-0.2,0.7-0.2,1.1l0.6,8.5c0,0.6,0.5,1.1,1.1,1.2
		c0,0,0.5,0.1,1.3,0.2v2.8h5.5V79c4.3,0.5,10.1,0.9,15,0.9c4.8,0,10.3-0.5,14.5-0.9v2.1h5.5v-2.7c0.9-0.1,1.4-0.2,1.4-0.2
		c0.9-0.1,1.6-0.8,1.6-1.6l0.6-7.7C74,68.2,73.9,67.6,73.7,67.1z"/>
	<path fill="#020202" d="M70.3,82.6h-5.5c-0.8,0-1.5-0.7-1.5-1.5v-0.4c-3.8,0.4-8.6,0.7-13,0.7c-4.4,0-9.5-0.4-13.5-0.8v0.5
		c0,0.8-0.7,1.5-1.5,1.5H30c-0.8,0-1.5-0.7-1.5-1.5v-1.5c0,0,0,0,0,0c-1.3-0.1-2.3-1.2-2.4-2.5l-0.6-8.5c0-0.6,0-1.2,0.2-1.7l8.3-23
		c0,0,0-0.1,0-0.1c0,0,0-0.1,0-0.1l2.1-5.7c0.3-0.7,1-1.2,1.8-1.2h3.4c0.8,0,1.6,0.6,1.8,1.4l1,3.5c3.8-0.1,8-0.1,11.8,0l1-3.5
		c0.2-0.8,1-1.4,1.8-1.4h3.4c0.8,0,1.5,0.5,1.8,1.2l2,5.5c0.1,0.1,0.1,0.3,0.2,0.4l9.1,22.6c0.3,0.7,0.4,1.6,0.4,2.3l-0.6,7.7
		c-0.1,1.6-1.4,2.9-3,3c0,0,0,0-0.1,0v1.4C71.8,81.9,71.2,82.6,70.3,82.6z M66.4,79.6h2.5v-1.2c0-0.8,0.6-1.4,1.3-1.5
		c0.9-0.1,1.4-0.2,1.4-0.2c0.2,0,0.3-0.1,0.3-0.3l0.6-7.7c0-0.3,0-0.7-0.2-1l-9-22.6c-0.1-0.2-0.2-0.4-0.2-0.6l-1.7-4.7h-1.8
		l-1.1,3.8c-0.2,0.7-0.8,1.1-1.5,1.1c-4.3-0.2-9.4-0.2-13.9,0c-0.8,0-1.4-0.5-1.5-1.2l-1.1-3.7h-1.8l-1.7,4.6c0,0.2-0.1,0.4-0.2,0.6
		c0,0,0,0,0,0l-8.3,22.9c-0.1,0.2-0.1,0.3-0.1,0.5l0.6,8.3c0.2,0,0.6,0.1,1.2,0.2c0.7,0.1,1.3,0.7,1.3,1.5v1.3h2.5V79
		c0-0.4,0.2-0.8,0.5-1.1c0.3-0.3,0.7-0.4,1.2-0.4c4,0.4,9.9,0.9,14.8,0.9c4.9,0,10.5-0.5,14.3-0.9c0.4,0,0.8,0.1,1.2,0.4
		s0.5,0.7,0.5,1.1V79.6z"/>
</g>
<g>
	<ellipse fill="#FCB61E" cx="50.4" cy="56.2" rx="9.1" ry="7.7"/>
	<path fill="#020202" d="M50.4,65.4c-5.8,0-10.6-4.1-10.6-9.2S44.5,47,50.4,47s10.6,4.1,10.6,9.2S56.2,65.4,50.4,65.4z M50.4,50
		c-4.2,0-7.6,2.8-7.6,6.2s3.4,6.2,7.6,6.2s7.6-2.8,7.6-6.2S54.5,50,50.4,50z"/>
</g>
<g>
	<path fill="#BCD4DE" d="M32.1,68.2c9.8,0.5,20,0.6,30.7,0.2c1.9-0.1,3.9-0.2,5.8-0.3"/>
	<path fill="#020202" d="M49.9,70.2C44,70.2,38,70,32.1,69.7c-0.8,0-1.5-0.7-1.4-1.6c0-0.8,0.8-1.5,1.6-1.4
		c10.2,0.5,20.4,0.6,30.6,0.2c1.9-0.1,3.9-0.2,5.8-0.3c0.8,0,1.5,0.6,1.6,1.4c0,0.8-0.6,1.5-1.4,1.6c-2,0.1-3.9,0.2-5.9,0.3
		C58.6,70.1,54.2,70.2,49.9,70.2z"/>
</g>
<g>
	<ellipse fill="#BCD4DE" cx="50.4" cy="56" rx="3.3" ry="2.6"/>
	<path fill="#020202" d="M50.4,60.2c-2.6,0-4.8-1.9-4.8-4.1s2.1-4.1,4.8-4.1c2.6,0,4.8,1.9,4.8,4.1S53,60.2,50.4,60.2z M50.4,54.9
		c-1,0-1.8,0.6-1.8,1.1s0.7,1.1,1.8,1.1c1,0,1.8-0.6,1.8-1.1S51.4,54.9,50.4,54.9z"/>
</g>
<g>
	<path fill="#FCB61E" d="M84.7,39.3L84.7,39.3c0-0.1,0-0.2,0-0.3c0-3-1.3-5.3-3.3-7c-1-0.8-2.1-1.7-3.4-2.2c-8-4-17.6-6.3-28-6.3
		c-10.4,0-20,2.3-28,6.3c-1.3,0.5-2.4,1.3-3.4,2.2c-2,1.8-3.3,4.1-3.3,7c0,0.1,0,0.2,0,0.2v0c0,0.2,0,0.4,0,0.6l0.3,2.3l0.2,1.7
		c0.2,1.2,1.2,2.1,2.4,2.1c0,0,0,0,0,0c0.1,0,0.2,0,0.3,0l11.8-1.8c1.7-0.3,2-2.5,2.1-2.8c0.1-1.4,0.5-2.5,1.1-3.7
		c0,0,0.1-0.1,0.1-0.1c1.2-2.2,3-4,5.3-4.6C40.3,32.5,47.1,32,50,32c2.9,0,9.7,0.5,11.1,0.9c2.3,0.6,4.1,2.4,5.3,4.6
		c0,0,0.1,0.1,0.1,0.1c0.6,1.2,1,2.2,1.1,3.7c0,0.3,0.4,2.5,2.1,2.8l11.8,1.8c0.1,0,0.2,0,0.3,0c0,0,0,0,0,0c1.2,0,2.2-0.9,2.4-2.1
		l0.2-1.7l0.3-2.3C84.7,39.7,84.7,39.5,84.7,39.3z"/>
	<path fill="#020202" d="M81.8,47.4L81.8,47.4c-0.2,0-0.3,0-0.5,0l-11.8-1.8c-2.5-0.5-3.2-3.1-3.3-4.1c-0.1-1.2-0.4-2.1-1-3.1
		l-0.1-0.1c-1-1.9-2.6-3.3-4.4-3.8c-1.2-0.3-7.8-0.9-10.8-0.9c-3,0-9.5,0.5-10.8,0.9c-1.7,0.5-3.3,1.9-4.4,3.8l-1.4-0.6l1.3,0.7
		c-0.5,1.1-0.9,1.9-1,3.1c-0.1,1-0.8,3.7-3.3,4.1l-11.9,1.8c-0.2,0-0.4,0-0.5,0c-2,0-3.6-1.5-3.9-3.4l-0.5-4c0-0.3,0-0.5,0-0.8
		c0-0.1,0-0.1,0-0.2c0-3.2,1.3-5.9,3.8-8.1c0.9-0.8,2.2-1.8,3.7-2.4C29.8,24.2,39.7,22,50,22c10.3,0,20.2,2.2,28.6,6.5
		c1.5,0.6,2.9,1.7,3.7,2.4c2.5,2.2,3.8,4.9,3.8,8.1c0,0.1,0,0.1,0,0.2c0,0.3,0,0.6,0,0.8l-0.5,4C85.4,46,83.8,47.4,81.8,47.4z
		 M50,30.5c2.8,0,9.8,0.5,11.5,1c2.5,0.7,4.8,2.6,6.2,5.3l0.1,0.2c0.7,1.3,1.1,2.5,1.3,4.2c0,0.2,0.3,1.3,0.8,1.4l11.8,1.8
		c0.4,0,0.8-0.3,0.9-0.8l0.5-4c0-0.1,0-0.1,0-0.2c0-0.1,0-0.1,0-0.2c0,0,0-0.1,0-0.1l0-0.1c0-2.3-0.9-4.3-2.8-5.9
		c-0.7-0.6-1.8-1.5-2.9-1.9c0,0-0.1,0-0.1-0.1C69.3,27.1,59.8,25,50,25c-9.8,0-19.3,2.1-27.3,6.2c0,0-0.1,0-0.1,0.1
		c-1.1,0.4-2.2,1.3-2.9,1.9c-1.9,1.6-2.8,3.6-2.8,5.9l0,0.1c0,0,0,0.1,0,0.1c0,0.1,0,0.1,0,0.2c0,0.1,0,0.1,0,0.2l0.5,4
		c0.1,0.4,0.4,0.8,0.9,0.8l11.9-1.8c0.5-0.1,0.8-1.2,0.8-1.4c0.1-1.7,0.6-2.9,1.3-4.2c0,0,0-0.1,0.1-0.1c1.4-2.8,3.7-4.7,6.3-5.4
		C40.2,31,47.2,30.5,50,30.5z"/>
</g>
</svg>
