<?xml version="1.0" encoding="utf-8"?>
<!-- Generator: Adobe Illustrator 18.1.1, SVG Export Plug-In . SVG Version: 6.00 Build 0)  -->
<!DOCTYPE svg PUBLIC "-//W3C//DTD SVG 1.1//EN" "http://www.w3.org/Graphics/SVG/1.1/DTD/svg11.dtd">
<svg version="1.1" id="Layer_1" xmlns="http://www.w3.org/2000/svg" xmlns:xlink="http://www.w3.org/1999/xlink" x="0px" y="0px"
	 width="100px" height="100px" viewBox="0 0 100 100" enable-background="new 0 0 100 100" xml:space="preserve">
<g>
	<circle fill="#FCB61E" cx="50.4" cy="50.1" r="32.6"/>
	<path fill="#020202" d="M50.4,83.7c-18.5,0-33.6-15.1-33.6-33.6c0-18.5,15.1-33.6,33.6-33.6S84,31.5,84,50.1
		C84,68.6,68.9,83.7,50.4,83.7z M50.4,18.4c-17.4,0-31.6,14.2-31.6,31.6s14.2,31.6,31.6,31.6C67.8,81.7,82,67.5,82,50.1
		S67.8,18.4,50.4,18.4z"/>
</g>
<g>
	<g>
		<path fill="#FFFFFF" d="M34.3,38.9v22.6l3-0.2L37,64h24l1,0c1.7,0,2-1.2,2-2.7v-1.1V35.7H51.5l-2.6,3.3H34.3z"/>
		<path fill="#020202" d="M62,65H37c-0.3,0-0.5-0.1-0.7-0.3S36,64.2,36,63.9l0.1-1.5l-1.8,0.1c-0.3,0-0.5-0.1-0.7-0.3
			c-0.2-0.2-0.3-0.5-0.3-0.7V38.9c0-0.6,0.4-1,1-1h14.2l2.3-2.9c0.2-0.2,0.5-0.4,0.8-0.4H64c0.6,0,1,0.4,1,1v25.6
			C65,64.4,63.3,65,62,65z M38.1,63H62c0.5,0,1,0,1-1.7V36.7H52l-2.3,2.9c-0.2,0.2-0.5,0.4-0.8,0.4H35.3v20.5l1.9-0.1
			c0.3,0,0.6,0.1,0.8,0.3c0.2,0.2,0.3,0.5,0.3,0.8L38.1,63z"/>
	</g>
	<g>
		<path fill="#FFFFFF" d="M38.8,43.5v17.2c0,1.4-0.7,2.7-2,3.7l-0.1,0.1h27.2l1,0c1.5,0,2.7-1,2.7-2.2v-0.9V43.5H38.8z"/>
		<path fill="#020202" d="M64.8,65.4H36.6c-0.4,0-0.8-0.3-1-0.7s0-0.9,0.4-1.1l0.1-0.1c1-0.7,1.6-1.8,1.6-2.9V43.5c0-0.6,0.4-1,1-1
			h28.7c0.6,0,1,0.4,1,1v18.7C68.5,64,66.8,65.4,64.8,65.4z M39,63.4h25.8c0.9,0,1.7-0.5,1.7-1.2V44.5H39.8v16.2
			C39.8,61.6,39.5,62.5,39,63.4z"/>
	</g>
	<g>
		<path fill="#FFFFFF" d="M36.5,64.3L36.5,64.3c-1.2,0-2.3-1-2.3-2.3V43.5h4.5v18.6C38.8,63.3,37.8,64.3,36.5,64.3z"/>
	</g>
	<g>
		<path fill="#020202" d="M36.5,65.3c-1.8,0-3.3-1.5-3.3-3.3V43.5c0-0.6,0.4-1,1-1s1,0.4,1,1v18.6c0,0.7,0.6,1.3,1.3,1.3
			s1.3-0.6,1.3-1.3V43.7c0-0.6,0.4-1,1-1s1,0.4,1,1v18.4C39.8,63.9,38.3,65.3,36.5,65.3z"/>
	</g>
</g>
<g>
	<g>
		<path fill="#020202" d="M47.8,57c-0.2,0-0.5-0.1-0.7-0.2l-2.6-2.3c-0.2-0.2-0.3-0.5-0.3-0.8s0.1-0.6,0.3-0.8l2.6-2.3
			c0.4-0.4,1-0.3,1.4,0.1s0.3,1-0.1,1.4l-1.7,1.5l1.7,1.5c0.4,0.4,0.5,1,0.1,1.4C48.4,56.9,48.1,57,47.8,57z"/>
	</g>
	<g>
		<path fill="#020202" d="M58.3,57c-0.3,0-0.6-0.1-0.8-0.3c-0.4-0.4-0.3-1,0.1-1.4l1.7-1.5l-1.7-1.5c-0.4-0.4-0.5-1-0.1-1.4
			c0.4-0.4,1-0.5,1.4-0.1l2.6,2.3c0.2,0.2,0.3,0.5,0.3,0.8s-0.1,0.6-0.3,0.8l-2.6,2.3C58.7,56.9,58.5,57,58.3,57z"/>
	</g>
	<g>
		<path fill="#020202" d="M50.9,60c-0.1,0-0.3,0-0.4-0.1c-0.5-0.2-0.8-0.8-0.5-1.3l4.4-10.5c0.2-0.5,0.8-0.7,1.3-0.5
			c0.5,0.2,0.8,0.8,0.5,1.3l-4.4,10.5C51.6,59.7,51.3,60,50.9,60z"/>
	</g>
</g>
</svg>
