<?xml version="1.0" encoding="utf-8"?>
<!-- Generator: Adobe Illustrator 18.1.1, SVG Export Plug-In . SVG Version: 6.00 Build 0)  -->
<!DOCTYPE svg PUBLIC "-//W3C//DTD SVG 1.1//EN" "http://www.w3.org/Graphics/SVG/1.1/DTD/svg11.dtd">
<svg version="1.1" id="Layer_1" xmlns="http://www.w3.org/2000/svg" xmlns:xlink="http://www.w3.org/1999/xlink" x="0px" y="0px"
	 width="100px" height="100px" viewBox="0 0 100 100" enable-background="new 0 0 100 100" xml:space="preserve">
<g>
	<circle fill="#FCB61E" cx="50.4" cy="50.5" r="32.6"/>
	<path fill="#020202" d="M50.4,84.1c-18.5,0-33.6-15.1-33.6-33.6s15.1-33.6,33.6-33.6S84,31.9,84,50.5S68.9,84.1,50.4,84.1z
		 M50.4,18.8c-17.4,0-31.6,14.2-31.6,31.6s14.2,31.6,31.6,31.6C67.8,82.1,82,67.9,82,50.5S67.8,18.8,50.4,18.8z"/>
</g>
<g>
	<rect x="38.8" y="40.2" fill="#FFFFFF" width="22.8" height="22.8"/>
</g>
<g>
	<path fill="#020202" d="M61.7,64c-0.6,0-1-0.4-1-1c0-0.1,0-0.2,0-0.3v-0.6c0-0.6,0.4-1,1-1s1,0.4,1,1V63C62.7,63.5,62.2,64,61.7,64
		z M57.6,64h-1c-0.6,0-1-0.4-1-1s0.4-1,1-1h1c0.6,0,1,0.4,1,1S58.1,64,57.6,64z M52.6,64h-1c-0.6,0-1-0.4-1-1s0.4-1,1-1h1
		c0.6,0,1,0.4,1,1S53.1,64,52.6,64z M47.6,64h-1c-0.6,0-1-0.4-1-1s0.4-1,1-1h1c0.6,0,1,0.4,1,1S48.1,64,47.6,64z M42.6,64h-1
		c-0.6,0-1-0.4-1-1s0.4-1,1-1h1c0.6,0,1,0.4,1,1S43.1,64,42.6,64z M38.8,62.7c-0.6,0-1-0.4-1-1v-1c0-0.6,0.4-1,1-1s1,0.4,1,1v1
		C39.8,62.3,39.4,62.7,38.8,62.7z M61.7,59.1c-0.6,0-1-0.4-1-1v-1c0-0.6,0.4-1,1-1s1,0.4,1,1v1C62.7,58.6,62.2,59.1,61.7,59.1z
		 M38.8,57.7c-0.6,0-1-0.4-1-1v-1c0-0.6,0.4-1,1-1s1,0.4,1,1v1C39.8,57.3,39.4,57.7,38.8,57.7z M61.7,54.1c-0.6,0-1-0.4-1-1v-1
		c0-0.6,0.4-1,1-1s1,0.4,1,1v1C62.7,53.6,62.2,54.1,61.7,54.1z M38.8,52.7c-0.6,0-1-0.4-1-1v-1c0-0.6,0.4-1,1-1s1,0.4,1,1v1
		C39.8,52.3,39.4,52.7,38.8,52.7z M38.8,47.7c-0.6,0-1-0.4-1-1v-1c0-0.6,0.4-1,1-1s1,0.4,1,1v1C39.8,47.3,39.4,47.7,38.8,47.7z
		 M38.8,42.7c-0.6,0-1-0.4-1-1v-1c0-0.6,0.4-1,1-1s1,0.4,1,1v1C39.8,42.3,39.4,42.7,38.8,42.7z M48.2,41.1h-1c-0.6,0-1-0.4-1-1
		s0.4-1,1-1h1c0.6,0,1,0.4,1,1S48.8,41.1,48.2,41.1z M43.2,41.1h-1c-0.6,0-1-0.4-1-1s0.4-1,1-1h1c0.6,0,1,0.4,1,1
		S43.8,41.1,43.2,41.1z"/>
</g>
<g>
	<path fill="#020202" d="M61.7,48.1c-0.6,0-1-0.4-1-1v-6h-6c-0.6,0-1-0.4-1-1s0.4-1,1-1h7c0.6,0,1,0.4,1,1v7
		C62.7,47.7,62.2,48.1,61.7,48.1z"/>
</g>
<g>
	<path fill="#020202" d="M50.3,52.7c-0.3,0-0.5-0.1-0.7-0.3c-0.4-0.4-0.4-1,0-1.4L61,39.6c0.4-0.4,1-0.4,1.4,0c0.4,0.4,0.4,1,0,1.4
		L51,52.4C50.8,52.6,50.5,52.7,50.3,52.7z"/>
</g>
</svg>
