<?xml version="1.0" encoding="utf-8"?>
<!-- Generator: Adobe Illustrator 18.1.1, SVG Export Plug-In . SVG Version: 6.00 Build 0)  -->
<!DOCTYPE svg PUBLIC "-//W3C//DTD SVG 1.1//EN" "http://www.w3.org/Graphics/SVG/1.1/DTD/svg11.dtd">
<svg version="1.1" id="Layer_1" xmlns="http://www.w3.org/2000/svg" xmlns:xlink="http://www.w3.org/1999/xlink" x="0px" y="0px"
	 width="200px" height="200px" viewBox="0 0 200 200" enable-background="new 0 0 200 200" xml:space="preserve">
<g>
	<path fill="#BCD4DE" d="M103.7,82c-0.1-1.4-0.4-2.7-0.9-3.9l3.8-3l-5-6.2l-3.8,3c-1.1-0.8-2.3-1.3-3.6-1.8v-4.8h-8v4.8
		c-1.3,0.4-2.5,1-3.6,1.8l-3.8-3l-5,6.2l3.8,3c-0.5,1.2-0.8,2.6-0.9,3.9l-4.7,1.1l1.8,7.8l4.7-1.1c0.7,1.2,1.5,2.2,2.5,3.1L79,97.3
		l7.2,3.5l2.1-4.3c0.7,0.1,1.3,0.2,2,0.2c0.7,0,1.4-0.1,2-0.2l2.1,4.3l7.2-3.5L99.5,93c1-0.9,1.8-2,2.5-3.1l4.7,1.1l1.8-7.8
		L103.7,82z M90.2,89c-3.3,0-6-2.7-6-6s2.7-6,6-6c3.3,0,6,2.7,6,6S93.5,89,90.2,89z"/>
	<path fill="#020202" d="M94.3,102.3c-0.2,0-0.3,0-0.5-0.1c-0.4-0.1-0.7-0.4-0.9-0.8l-1.6-3.4c-0.8,0.1-1.5,0.1-2.2,0l-1.6,3.4
		c-0.2,0.4-0.5,0.6-0.9,0.8c-0.4,0.1-0.8,0.1-1.1-0.1l-7.2-3.5c-0.4-0.2-0.6-0.5-0.8-0.9c-0.1-0.4-0.1-0.8,0.1-1.1l1.6-3.4
		c-0.5-0.5-1-1.1-1.4-1.8l-3.6,0.8c-0.8,0.2-1.6-0.3-1.8-1.1l-1.8-7.8c-0.1-0.4,0-0.8,0.2-1.1c0.2-0.3,0.5-0.6,0.9-0.7l3.6-0.8
		c0.1-0.7,0.3-1.5,0.5-2.2L73,76.3c-0.6-0.5-0.8-1.5-0.2-2.1l5-6.2c0.2-0.3,0.6-0.5,1-0.6c0.4,0,0.8,0.1,1.1,0.3l2.9,2.3
		c0.7-0.4,1.3-0.7,2-1v-3.7c0-0.8,0.7-1.5,1.5-1.5h8c0.8,0,1.5,0.7,1.5,1.5V69c0.7,0.3,1.4,0.6,2,1l2.9-2.3c0.3-0.2,0.7-0.4,1.1-0.3
		c0.4,0,0.8,0.2,1,0.6l5,6.2c0.5,0.6,0.4,1.6-0.2,2.1l-2.9,2.3c0.2,0.7,0.4,1.4,0.5,2.2l3.6,0.8c0.4,0.1,0.7,0.3,0.9,0.7
		c0.2,0.3,0.3,0.7,0.2,1.1l-1.8,7.8c-0.2,0.8-1,1.3-1.8,1.1l-3.6-0.8c-0.4,0.6-0.9,1.2-1.4,1.8l1.6,3.4c0.2,0.4,0.2,0.8,0.1,1.1
		c-0.1,0.4-0.4,0.7-0.8,0.9l-7.2,3.5C94.8,102.2,94.6,102.3,94.3,102.3z M92.3,94.9c0.6,0,1.1,0.3,1.4,0.8l1.4,3l4.5-2.2l-1.4-3
		c-0.3-0.6-0.2-1.3,0.3-1.8c0.9-0.8,1.6-1.8,2.2-2.8c0.3-0.6,1-0.9,1.6-0.7l3.2,0.7l1.1-4.9l-3.2-0.7c-0.6-0.1-1.1-0.7-1.2-1.4
		c-0.1-1.2-0.4-2.4-0.8-3.5c-0.2-0.6-0.1-1.3,0.5-1.7l2.6-2.1l-3.1-3.9L98.8,73c-0.5,0.4-1.2,0.4-1.8,0.1c-1-0.7-2.1-1.2-3.2-1.6
		c-0.6-0.2-1.1-0.8-1.1-1.4v-3.3h-5v3.3c0,0.7-0.4,1.2-1.1,1.4c-1.1,0.4-2.2,0.9-3.2,1.6c-0.5,0.4-1.3,0.3-1.8-0.1L79.1,71L76,74.9
		l2.6,2.1c0.5,0.4,0.7,1.1,0.5,1.7c-0.4,1.1-0.7,2.3-0.8,3.5c0,0.7-0.5,1.2-1.2,1.4l-3.2,0.7l1.1,4.9l3.2-0.7
		c0.6-0.1,1.3,0.1,1.6,0.7c0.6,1,1.4,2,2.2,2.8c0.5,0.4,0.6,1.2,0.3,1.7l-1.4,3l4.5,2.2l1.4-3c0.3-0.6,0.9-0.9,1.6-0.8
		c1.2,0.2,2.4,0.2,3.6,0C92.1,95,92.2,94.9,92.3,94.9z M90.2,90.5c-4.1,0-7.5-3.3-7.5-7.5s3.3-7.5,7.5-7.5s7.5,3.3,7.5,7.5
		S94.4,90.5,90.2,90.5z M90.2,78.6c-2.5,0-4.5,2-4.5,4.5s2,4.5,4.5,4.5s4.5-2,4.5-4.5S92.7,78.6,90.2,78.6z"/>
</g>
<g>
	<path fill="#FCB61E" d="M143.3,117.9c0.3-1.8,0.4-3.7,0.1-5.5l5.9-2.7l-4.5-9.9l-5.9,2.7c-1.2-1.4-2.6-2.6-4.2-3.5l1.6-6.3
		l-10.5-2.7l-1.6,6.3c-1.9,0.1-3.7,0.5-5.4,1.1l-3.9-5.2l-8.7,6.6l3.9,5.2c-1.1,1.5-1.9,3.1-2.5,4.9l-6.5-0.2l-0.3,10.9l6.5,0.2
		c0.5,1.8,1.3,3.5,2.3,5l-4.2,5l8.3,7l4.2-5c0.8,0.4,1.7,0.6,2.6,0.9c0.9,0.2,1.8,0.4,2.7,0.5l1.3,6.4l10.6-2.1l-1.3-6.4
		c1.6-0.9,3.1-2,4.4-3.3l5.8,3l5-9.7L143.3,117.9z M123.2,122.5c-4.3-1.1-7-5.5-5.8-9.8c1.1-4.3,5.5-7,9.8-5.8
		c4.3,1.1,7,5.5,5.8,9.8C132,121,127.5,123.6,123.2,122.5z"/>
	<path fill="#020202" d="M124.7,140.9c-0.7,0-1.3-0.5-1.5-1.2l-1.1-5.3c-0.6-0.1-1.2-0.2-1.8-0.4c-0.6-0.2-1.2-0.3-1.8-0.5l-3.5,4.2
		c-0.3,0.3-0.6,0.5-1,0.5c-0.4,0-0.8-0.1-1.1-0.3l-8.3-7c-0.6-0.5-0.7-1.5-0.2-2.1l3.5-4.2c-0.6-1.1-1.1-2.2-1.5-3.4l-5.5-0.1
		c-0.4,0-0.8-0.2-1-0.5c-0.3-0.3-0.4-0.7-0.4-1.1l0.3-10.9c0-0.8,0.7-1.5,1.5-1.5c0,0,0,0,0,0l5.5,0.1c0.5-1.2,1-2.3,1.7-3.3
		l-3.3-4.3c-0.5-0.7-0.4-1.6,0.3-2.1l8.7-6.6c0.3-0.2,0.7-0.3,1.1-0.3c0.4,0.1,0.8,0.3,1,0.6l3.3,4.3c1.2-0.4,2.4-0.6,3.6-0.7
		l1.3-5.3c0.1-0.4,0.3-0.7,0.7-0.9c0.3-0.2,0.7-0.3,1.1-0.2l10.5,2.7c0.4,0.1,0.7,0.3,0.9,0.7c0.2,0.3,0.3,0.8,0.2,1.1l-1.3,5.3
		c1,0.7,2,1.5,2.8,2.4l5-2.2c0.4-0.2,0.8-0.2,1.1,0c0.4,0.1,0.7,0.4,0.8,0.8l4.5,9.9c0.3,0.8,0,1.6-0.8,2l-5,2.2
		c0.1,1.2,0.1,2.5-0.1,3.7l4.9,2.5c0.4,0.2,0.6,0.5,0.7,0.9s0.1,0.8-0.1,1.1l-5,9.7c-0.2,0.4-0.5,0.6-0.9,0.7
		c-0.4,0.1-0.8,0.1-1.1-0.1l-4.9-2.5c-0.9,0.8-1.9,1.6-3,2.2l1.1,5.3c0.2,0.8-0.4,1.6-1.2,1.8l-10.6,2.1
		C124.9,140.9,124.8,140.9,124.7,140.9z M118.1,130.1c0.2,0,0.4,0,0.6,0.1c0.8,0.3,1.6,0.6,2.4,0.8c0.8,0.2,1.6,0.4,2.5,0.4
		c0.7,0.1,1.2,0.6,1.3,1.2l1,4.9l7.7-1.6l-1-4.9c-0.1-0.6,0.2-1.3,0.8-1.6c1.5-0.8,2.8-1.8,4-3c0.5-0.5,1.2-0.6,1.8-0.3l4.5,2.3
		l3.6-7l-4.5-2.3c-0.6-0.3-0.9-0.9-0.8-1.6c0.3-1.7,0.3-3.4,0.1-5c-0.1-0.7,0.3-1.3,0.9-1.6l4.6-2.1l-3.2-7.2l-4.6,2.1
		c-0.6,0.3-1.3,0.1-1.7-0.4c-1.1-1.3-2.4-2.4-3.9-3.2c-0.6-0.3-0.8-1-0.7-1.7l1.2-4.9l-7.6-1.9l-1.2,4.9c-0.2,0.6-0.7,1.1-1.4,1.1
		c-1.7,0.1-3.3,0.4-4.9,1c-0.6,0.2-1.3,0-1.7-0.5l-3-4l-6.3,4.7l3,4c0.4,0.5,0.4,1.2,0,1.8c-1,1.4-1.8,2.9-2.3,4.5
		c-0.2,0.6-0.8,1-1.5,1l-5-0.1l-0.2,7.9l5,0.1c0.7,0,1.2,0.5,1.4,1.1c0.5,1.6,1.2,3.2,2.1,4.6c0.4,0.6,0.3,1.3-0.1,1.8l-3.2,3.9
		l6,5.1l3.2-3.8C117.2,130.3,117.6,130.1,118.1,130.1z M125.2,124.3c-0.8,0-1.6-0.1-2.4-0.3c-2.5-0.6-4.6-2.2-5.9-4.4
		s-1.7-4.8-1-7.3c1.1-4.3,4.9-7.2,9.3-7.2c0.8,0,1.6,0.1,2.4,0.3c2.5,0.6,4.6,2.2,5.9,4.4c1.3,2.2,1.7,4.8,1,7.3
		C133.4,121.3,129.6,124.3,125.2,124.3z M125.2,108.1c-3,0-5.6,2-6.4,5c-0.4,1.7-0.2,3.5,0.7,5c0.9,1.5,2.3,2.6,4,3
		c0.5,0.1,1.1,0.2,1.6,0.2c3,0,5.6-2,6.4-5c0.4-1.7,0.2-3.5-0.7-5c-0.9-1.5-2.3-2.6-4-3C126.3,108.1,125.7,108.1,125.2,108.1z"/>
</g>
<g>
	<path fill="#020202" d="M171.9,162.1h-82c-0.8,0-1.5-0.7-1.5-1.5s0.7-1.5,1.5-1.5h80.5V33.6h-118v71.9c0,0.8-0.7,1.5-1.5,1.5
		s-1.5-0.7-1.5-1.5V32.1c0-0.8,0.7-1.5,1.5-1.5h121c0.8,0,1.5,0.7,1.5,1.5v128.5C173.4,161.4,172.7,162.1,171.9,162.1z"/>
</g>
<g>
	<path fill="#020202" d="M171.9,48.6h-121c-0.8,0-1.5-0.7-1.5-1.5s0.7-1.5,1.5-1.5h121c0.8,0,1.5,0.7,1.5,1.5S172.7,48.6,171.9,48.6
		z"/>
</g>
<g>
	<path fill="#020202" d="M164.6,41.4H74.8c-0.8,0-1.5-0.7-1.5-1.5s0.7-1.5,1.5-1.5h89.8c0.8,0,1.5,0.7,1.5,1.5
		S165.4,41.4,164.6,41.4z"/>
</g>
<g>
	<path fill="#BCD4DE" d="M68.9,41.4h-0.4c-0.8,0-1.5-0.7-1.5-1.5s0.7-1.5,1.5-1.5h0.4c0.8,0,1.5,0.7,1.5,1.5S69.7,41.4,68.9,41.4z"
		/>
</g>
<g>
	<path fill="#FCB61E" d="M63.4,41.4H63c-0.8,0-1.5-0.7-1.5-1.5s0.7-1.5,1.5-1.5h0.4c0.8,0,1.5,0.7,1.5,1.5S64.2,41.4,63.4,41.4z"/>
</g>
<g>
	<path fill="#020202" d="M57.9,41.4h-0.4c-0.8,0-1.5-0.7-1.5-1.5s0.7-1.5,1.5-1.5h0.4c0.8,0,1.5,0.7,1.5,1.5S58.7,41.4,57.9,41.4z"
		/>
</g>
<g>
	<rect x="28.5" y="119.2" fill="#FCB61E" width="52.9" height="48.6"/>
	<path fill="#020202" d="M81.4,169.3H28.5c-0.8,0-1.5-0.7-1.5-1.5v-48.6c0-0.8,0.7-1.5,1.5-1.5h52.9c0.8,0,1.5,0.7,1.5,1.5v48.6
		C82.9,168.6,82.2,169.3,81.4,169.3z M30,166.3h49.9v-45.6H30V166.3z"/>
</g>
<g>
	<g>
		<path fill="#020202" d="M45.3,148.9c-0.4,0-0.7-0.1-1-0.4l-5.8-5c-0.3-0.3-0.5-0.7-0.5-1.1s0.2-0.8,0.5-1.1l5.8-5
			c0.6-0.5,1.6-0.5,2.1,0.1c0.5,0.6,0.5,1.6-0.1,2.1l-4.5,3.9l4.5,3.9c0.6,0.5,0.7,1.5,0.1,2.1C46.2,148.7,45.8,148.9,45.3,148.9z"
			/>
	</g>
	<g>
		<path fill="#020202" d="M63.9,148.9c-0.4,0-0.8-0.2-1.1-0.5c-0.5-0.6-0.5-1.6,0.1-2.1l4.5-3.9l-4.5-3.9c-0.6-0.5-0.7-1.5-0.1-2.1
			c0.5-0.6,1.5-0.7,2.1-0.1l5.8,5c0.3,0.3,0.5,0.7,0.5,1.1s-0.2,0.8-0.5,1.1l-5.8,5C64.6,148.8,64.3,148.9,63.9,148.9z"/>
	</g>
	<g>
		<path fill="#020202" d="M49.8,155.5c-0.2,0-0.4,0-0.6-0.1c-0.8-0.3-1.1-1.2-0.8-2l9.7-23.2c0.3-0.8,1.2-1.1,2-0.8
			c0.8,0.3,1.1,1.2,0.8,2l-9.7,23.2C50.9,155.1,50.4,155.5,49.8,155.5z"/>
	</g>
</g>
<g>
	<rect x="28.5" y="112.6" fill="#FFFFFF" width="52.9" height="6.6"/>
	<path fill="#020202" d="M81.4,120.7H28.5c-0.8,0-1.5-0.7-1.5-1.5v-6.6c0-0.8,0.7-1.5,1.5-1.5h52.9c0.8,0,1.5,0.7,1.5,1.5v6.6
		C82.9,120.1,82.2,120.7,81.4,120.7z M30,117.7h49.9v-3.6H30V117.7z"/>
</g>
</svg>
