<?xml version="1.0" encoding="utf-8"?>
<!-- Generator: Adobe Illustrator 18.1.1, SVG Export Plug-In . SVG Version: 6.00 Build 0)  -->
<!DOCTYPE svg PUBLIC "-//W3C//DTD SVG 1.1//EN" "http://www.w3.org/Graphics/SVG/1.1/DTD/svg11.dtd">
<svg version="1.1" id="Layer_1" xmlns="http://www.w3.org/2000/svg" xmlns:xlink="http://www.w3.org/1999/xlink" x="0px" y="0px"
	 width="100px" height="100px" viewBox="0 0 100 100" enable-background="new 0 0 100 100" xml:space="preserve">
<g>
	<g>
		<g>
			<circle fill="#BCD4DE" cx="72.9" cy="11.9" r="4.4"/>
		</g>
	</g>
	<g>
		<g>
			<circle fill="#BCD4DE" cx="65" cy="29.5" r="4.4"/>
		</g>
	</g>
	<g>
		<g>
			<circle fill="#BCD4DE" cx="15.6" cy="8.2" r="4.4"/>
		</g>
	</g>
	<g>
		<g>
			<circle fill="#BCD4DE" cx="15.5" cy="47.4" r="4.4"/>
		</g>
	</g>
	<g>
		<g>
			<circle fill="#BCD4DE" cx="78.3" cy="43.7" r="4.4"/>
		</g>
	</g>
	<g>
		<g>
			<circle fill="#BCD4DE" cx="56.3" cy="8.2" r="4.4"/>
		</g>
	</g>
	<g>
		<g>
			<circle fill="#BCD4DE" cx="32.1" cy="29.5" r="4.4"/>
		</g>
	</g>
	<g>
		<g>
			<circle fill="#FCB61E" cx="50.8" cy="77" r="19.2"/>
		</g>
		<g>
			<path fill="#020202" d="M50.8,97.6c-11.4,0-20.7-9.3-20.7-20.7s9.3-20.7,20.7-20.7s20.7,9.3,20.7,20.7S62.2,97.6,50.8,97.6z
				 M50.8,59.3c-9.7,0-17.7,7.9-17.7,17.7S41,94.6,50.8,94.6c9.7,0,17.7-7.9,17.7-17.7S60.5,59.3,50.8,59.3z"/>
		</g>
	</g>
	<g>
		<g>
			<path fill="#020202" d="M56.8,80.3c0-2.2-1.3-3.2-2.3-3.7c0.8-0.4,2.1-1.6,2.1-3.4c0-2.3-1.2-3.8-3.3-4.4v-2.1
				c0-0.7-0.6-1.2-1.2-1.2s-1.2,0.6-1.2,1.2v1.9h-1.3v-1.9c0-0.7-0.6-1.2-1.2-1.2s-1.2,0.6-1.2,1.2v1.9H47c-0.5,0-1.1,0-1.5,0.5
				c-0.5,0.5-0.5,1-0.5,1.5v12.6c0,0.5,0,1.1,0.5,1.5c0.5,0.5,1,0.5,1.5,0.5h0.2v2.2c0,0.7,0.6,1.2,1.2,1.2s1.2-0.6,1.2-1.2v-2.2
				h1.3v2.2c0,0.7,0.6,1.2,1.2,1.2s1.2-0.6,1.2-1.2V85C55.3,84.4,56.8,82.8,56.8,80.3z M48,71.4h3.2c1.4,0,2.1,0.8,2.1,1.9
				s-0.8,1.9-2.1,1.9H48V71.4z M51.4,82.2H48v-4.1h3.4c1.5,0,2.2,0.9,2.2,2S52.8,82.2,51.4,82.2z"/>
		</g>
	</g>
	<g>
		<g>
			<path fill="#020202" d="M34.7,49H18.9c-0.8,0-1.4-0.6-1.4-1.4s0.6-1.4,1.4-1.4h15.8c0.8,0,1.4,0.6,1.4,1.4S35.4,49,34.7,49z"/>
		</g>
	</g>
	<g>
		<g>
			<path fill="#020202" d="M15.1,49c-0.4,0-0.7-0.1-1-0.4c-0.3-0.3-0.4-0.6-0.4-1s0.1-0.7,0.4-1c0.5-0.5,1.4-0.5,2,0
				c0.2,0.3,0.4,0.6,0.4,1s-0.1,0.7-0.4,1C15.8,48.8,15.5,49,15.1,49z"/>
		</g>
	</g>
	<g>
		<g>
			<path fill="#020202" d="M39.9,54.2c-0.8,0-1.4-0.6-1.4-1.4v-9.5H26.1c-0.8,0-1.4-0.6-1.4-1.4v-6.7c0-0.8,0.6-1.4,1.4-1.4
				s1.4,0.6,1.4,1.4v5.3h12.4c0.8,0,1.4,0.6,1.4,1.4v10.9C41.3,53.6,40.6,54.2,39.9,54.2z"/>
		</g>
	</g>
	<g>
		<g>
			<path fill="#020202" d="M45.9,51.7c-0.8,0-1.4-0.6-1.4-1.4V35.7c0-0.8,0.6-1.4,1.4-1.4H51c0.8,0,1.4,0.6,1.4,1.4
				s-0.6,1.4-1.4,1.4h-3.7v13.2C47.3,51.1,46.6,51.7,45.9,51.7z"/>
		</g>
	</g>
	<g>
		<g>
			<path fill="#020202" d="M56.3,52c-0.8,0-1.4-0.6-1.4-1.4V26.7c0-0.8,0.6-1.4,1.4-1.4s1.4,0.6,1.4,1.4v23.9
				C57.6,51.4,57,52,56.3,52z"/>
		</g>
	</g>
	<g>
		<g>
			<path fill="#020202" d="M62,54.1c-0.8,0-1.4-0.6-1.4-1.4v-8.9c0-0.8,0.6-1.4,1.4-1.4h14.1c0.8,0,1.4,0.6,1.4,1.4
				s-0.6,1.4-1.4,1.4H63.4v7.5C63.4,53.5,62.8,54.1,62,54.1z"/>
		</g>
	</g>
	<g>
		<g>
			<path fill="#020202" d="M89.8,37.9H62c-0.8,0-1.4-0.6-1.4-1.4s0.6-1.4,1.4-1.4h26.4v-5.8c0-0.8,0.6-1.4,1.4-1.4s1.4,0.6,1.4,1.4
				v7.1C91.1,37.3,90.5,37.9,89.8,37.9z"/>
		</g>
	</g>
	<g>
		<g>
			<path fill="#020202" d="M82.9,32.2H74c-0.8,0-1.4-0.6-1.4-1.4V15.4c0-0.8,0.6-1.4,1.4-1.4s1.4,0.6,1.4,1.4v14.1h7.5
				c0.8,0,1.4,0.6,1.4,1.4S83.6,32.2,82.9,32.2z"/>
		</g>
	</g>
	<g>
		<g>
			<path fill="#020202" d="M15.5,38.1c-0.8,0-1.4-0.6-1.4-1.4v-6.1c0-0.8,0.6-1.4,1.4-1.4h16.1c0.8,0,1.4,0.6,1.4,1.4
				S32.4,32,31.6,32H16.9v4.8C16.9,37.5,16.3,38.1,15.5,38.1z"/>
		</g>
	</g>
	<g>
		<g>
			<path fill="#020202" d="M36.6,27.2c-0.8,0-1.4-0.6-1.4-1.4v-17c0-0.8,0.6-1.4,1.4-1.4S38,8.1,38,8.9v17
				C38,26.6,37.4,27.2,36.6,27.2z"/>
		</g>
	</g>
	<g>
		<g>
			<path fill="#020202" d="M56.3,15.4c-0.8,0-1.4-0.6-1.4-1.4v-2.2H41c-0.8,0-1.4-0.6-1.4-1.4S40.2,9,41,9h15.2
				c0.8,0,1.4,0.6,1.4,1.4V14C57.6,14.8,57,15.4,56.3,15.4z"/>
		</g>
	</g>
	<g>
		<g>
			<path fill="#020202" d="M25.9,27.2c-0.8,0-1.4-0.6-1.4-1.4v-11h-8.8c-0.8,0-1.4-0.6-1.4-1.4V8.7c0-0.8,0.6-1.4,1.4-1.4
				c0.8,0,1.4,0.6,1.4,1.4v3.4h8.8c0.8,0,1.4,0.6,1.4,1.4v12.4C27.3,26.6,26.6,27.2,25.9,27.2z"/>
		</g>
	</g>
	<g>
		<g>
			<path fill="#020202" d="M50.8,31.7c-0.8,0-1.4-0.6-1.4-1.4v-14c0-0.8,0.6-1.4,1.4-1.4s1.4,0.6,1.4,1.4v14
				C52.1,31.1,51.5,31.7,50.8,31.7z"/>
		</g>
	</g>
	<g>
		<g>
			<path fill="#020202" d="M50.8,50.7c-0.8,0-1.4-0.6-1.4-1.4v-8.7c0-0.8,0.6-1.4,1.4-1.4s1.4,0.6,1.4,1.4v8.7
				C52.1,50.1,51.5,50.7,50.8,50.7z"/>
		</g>
	</g>
	<g>
		<g>
			<path fill="#020202" d="M69.5,32.2H62c-0.8,0-1.4-0.6-1.4-1.4s0.6-1.4,1.4-1.4h7.5c0.8,0,1.4,0.6,1.4,1.4S70.3,32.2,69.5,32.2z"
				/>
		</g>
	</g>
	<g>
		<g>
			<path fill="#020202" d="M89.9,11.6H73.1c-0.8,0-1.4-0.6-1.4-1.4s0.6-1.4,1.4-1.4h15.4V3.7c0-0.8,0.6-1.4,1.4-1.4s1.4,0.6,1.4,1.4
				v6.5C91.3,11,90.6,11.6,89.9,11.6z"/>
		</g>
	</g>
	<g>
		<g>
			<path fill="#020202" d="M79.9,45.1c-0.4,0-0.7-0.1-1-0.4c-0.3-0.2-0.4-0.6-0.4-1s0.1-0.7,0.4-1c0.5-0.5,1.4-0.5,1.9,0
				c0.3,0.3,0.4,0.6,0.4,1s-0.2,0.7-0.4,1C80.6,45,80.2,45.1,79.9,45.1z"/>
		</g>
	</g>
	<g>
		<g>
			<path fill="#020202" d="M69.5,24H56.3c-0.8,0-1.4-0.6-1.4-1.4v-4.4c0-0.8,0.6-1.4,1.4-1.4s1.4,0.6,1.4,1.4v3.1h11.9
				c0.8,0,1.4,0.6,1.4,1.4S70.3,24,69.5,24z"/>
		</g>
	</g>
	<g>
		<g>
			<path fill="#020202" d="M35.6,32c-0.4,0-0.7-0.1-1-0.4s-0.4-0.6-0.4-1s0.1-0.7,0.4-1c0.5-0.5,1.4-0.5,1.9,0
				c0.3,0.3,0.4,0.6,0.4,1s-0.1,0.7-0.4,1C36.3,31.8,35.9,32,35.6,32z"/>
		</g>
	</g>
	<g>
		<g>
			<path fill="#020202" d="M39.9,32c-0.4,0-0.7-0.1-1-0.4s-0.4-0.6-0.4-1s0.1-0.7,0.4-1c0.5-0.5,1.4-0.5,2,0c0.2,0.3,0.4,0.6,0.4,1
				s-0.1,0.7-0.4,1C40.6,31.8,40.2,32,39.9,32z"/>
		</g>
	</g>
</g>
<g>
	<path fill="#020202" d="M89.8,26.3c-0.4,0-0.7-0.1-1-0.4c-0.3-0.2-0.4-0.6-0.4-1s0.1-0.7,0.4-1c0.5-0.5,1.4-0.5,1.9,0
		c0.3,0.3,0.4,0.6,0.4,1s-0.1,0.7-0.4,1C90.5,26.1,90.2,26.3,89.8,26.3z"/>
</g>
</svg>
