<?xml version="1.0" encoding="utf-8"?>
<!-- Generator: Adobe Illustrator 18.1.1, SVG Export Plug-In . SVG Version: 6.00 Build 0)  -->
<!DOCTYPE svg PUBLIC "-//W3C//DTD SVG 1.1//EN" "http://www.w3.org/Graphics/SVG/1.1/DTD/svg11.dtd">
<svg version="1.1" id="Layer_1" xmlns="http://www.w3.org/2000/svg" xmlns:xlink="http://www.w3.org/1999/xlink" x="0px" y="0px"
	 width="100px" height="100px" viewBox="0 0 100 100" enable-background="new 0 0 100 100" xml:space="preserve">
<g>
	<circle fill="#FCB61E" cx="49.9" cy="50.1" r="32.6"/>
	<path fill="#020202" d="M49.9,83.7c-18.5,0-33.6-15.1-33.6-33.6c0-18.5,15.1-33.6,33.6-33.6s33.6,15.1,33.6,33.6
		C83.5,68.6,68.4,83.7,49.9,83.7z M49.9,18.4c-17.4,0-31.6,14.2-31.6,31.6s14.2,31.6,31.6,31.6c17.4,0,31.6-14.2,31.6-31.6
		S67.3,18.4,49.9,18.4z"/>
</g>
<g>
	<path fill="#EFEFEF" d="M49.7,29.2c-1,0-1.9,0.2-2.8,0.5l4.6,6.1l-0.7,3.7l-4.1-0.2l-4.4-5.9c-0.7,1.2-1.1,2.7-1.1,4.2
		c0,3.7,2.3,6.8,5.5,8V70c0,1.6,1.3,2.9,2.9,2.9c1.6,0,2.9-1.3,2.9-2.9V45.7c3.2-1.2,5.5-4.3,5.5-8C58.2,33,54.4,29.2,49.7,29.2z"/>
	<path fill="#020202" d="M49.7,73.9c-2.2,0-3.9-1.8-3.9-3.9V46.3c-3.3-1.5-5.5-4.9-5.5-8.6c0-1.6,0.4-3.3,1.3-4.7
		c0.2-0.3,0.5-0.5,0.8-0.5c0.3,0,0.7,0.1,0.9,0.4l4.1,5.5l2.7,0.1l0.5-2.4l-4.3-5.8c-0.2-0.3-0.2-0.6-0.2-0.9s0.3-0.5,0.6-0.7
		c1-0.4,2.1-0.5,3.1-0.5c5.2,0,9.5,4.3,9.5,9.5c0,3.7-2.2,7.1-5.5,8.6V70C53.7,72.1,51.9,73.9,49.7,73.9z M42.6,35.5
		c-0.2,0.7-0.3,1.5-0.3,2.2c0,3.1,2,5.9,4.9,7c0.4,0.1,0.7,0.5,0.7,0.9V70c0,1.1,0.9,1.9,1.9,1.9s1.9-0.9,1.9-1.9V45.7
		c0-0.4,0.3-0.8,0.7-0.9c2.9-1.1,4.9-3.9,4.9-7c0-4.1-3.4-7.5-7.5-7.5c-0.4,0-0.7,0-1.1,0.1l3.7,4.9c0.2,0.2,0.2,0.5,0.2,0.8
		l-0.7,3.7c-0.1,0.5-0.5,0.8-1,0.8l-4.1-0.2c-0.3,0-0.6-0.2-0.8-0.4L42.6,35.5z"/>
</g>
</svg>
