<?xml version="1.0" encoding="utf-8"?>
<!-- Generator: Adobe Illustrator 18.1.1, SVG Export Plug-In . SVG Version: 6.00 Build 0)  -->
<!DOCTYPE svg PUBLIC "-//W3C//DTD SVG 1.1//EN" "http://www.w3.org/Graphics/SVG/1.1/DTD/svg11.dtd">
<svg version="1.1" id="Layer_1" xmlns="http://www.w3.org/2000/svg" xmlns:xlink="http://www.w3.org/1999/xlink" x="0px" y="0px"
	 width="100px" height="100px" viewBox="0 0 100 100" enable-background="new 0 0 100 100" xml:space="preserve">
<g>
	<circle fill="#FCB61E" cx="49.8" cy="50.8" r="24.2"/>
	<path fill="#030303" d="M49.8,76c-13.9,0-25.2-11.3-25.2-25.2c0-13.9,11.3-25.2,25.2-25.2c13.9,0,25.2,11.3,25.2,25.2
		C74.9,64.7,63.6,76,49.8,76z M49.8,27.7C37,27.7,26.6,38,26.6,50.8C26.6,63.6,37,74,49.8,74c12.8,0,23.2-10.4,23.2-23.2
		C72.9,38,62.5,27.7,49.8,27.7z"/>
</g>
<g>
	<g>
		<circle fill="#EFEFEF" cx="49.8" cy="50.8" r="12.4"/>
	</g>
	<g>
		<g>
			<path fill="#020202" d="M62.6,52.9c-0.2,0-0.5-0.1-0.6-0.2l-3-2.5c-0.4-0.4-0.5-1-0.1-1.4c0.4-0.4,1-0.5,1.4-0.1l2.1,1.8l1.4-2.2
				c0.3-0.5,0.9-0.6,1.4-0.3c0.5,0.3,0.6,0.9,0.3,1.4l-2.1,3.1c-0.2,0.2-0.4,0.4-0.7,0.4C62.7,52.9,62.6,52.9,62.6,52.9z"/>
		</g>
		<g>
			<g>
				<path fill="#020202" d="M49.9,64.2c-7.4,0-13.4-6-13.4-13.4c0-0.6,0.4-1,1-1s1,0.4,1,1c0,6.3,5.1,11.4,11.4,11.4
					c4.8,0,9.1-3,10.7-7.5c0.2-0.5,0.8-0.8,1.3-0.6c0.5,0.2,0.8,0.8,0.6,1.3C60.6,60.7,55.5,64.2,49.9,64.2z"/>
			</g>
			<g>
				<path fill="#020202" d="M62.3,51.8c-0.6,0-1-0.4-1-1c0-6.3-5.1-11.4-11.4-11.4c-4.9,0-9.2,3.1-10.8,7.7
					c-0.2,0.5-0.7,0.8-1.3,0.6c-0.5-0.2-0.8-0.7-0.6-1.3c1.9-5.4,7-9.1,12.7-9.1c7.4,0,13.4,6,13.4,13.4
					C63.3,51.4,62.8,51.8,62.3,51.8z"/>
			</g>
			<g>
				<path fill="#020202" d="M40,53.6c-0.3,0-0.6-0.1-0.8-0.4L37.5,51l-1.9,1.8c-0.4,0.4-1,0.4-1.4,0c-0.4-0.4-0.4-1,0-1.4l2.7-2.6
					c0.2-0.2,0.5-0.3,0.8-0.3c0.3,0,0.5,0.2,0.7,0.4l2.4,3.1c0.3,0.4,0.2,1.1-0.2,1.4C40.4,53.5,40.2,53.6,40,53.6z"/>
			</g>
		</g>
	</g>
	<g>
		<path fill="#020202" d="M48,55.5c-0.3,0-0.6,0-0.9-0.3c-0.3-0.3-0.3-0.6-0.3-0.9v-7c0-0.3,0-0.6,0.3-0.9c0.3-0.3,0.6-0.3,0.9-0.3
			h2.6c1.8,0,2.9,1,2.9,2.6c0,1-0.7,1.7-1.2,1.9c0.6,0.3,1.3,0.8,1.3,2.1c0,1.7-1.2,2.7-2.8,2.7H48z M48.7,47.9V50h1.8
			c0.8,0,1.2-0.4,1.2-1.1c0-0.6-0.4-1.1-1.2-1.1H48.7z M50.6,53.9c0.8,0,1.2-0.5,1.2-1.1s-0.4-1.1-1.2-1.1h-1.9v2.3H50.6z"/>
	</g>
	<g>
		<path fill="#020202" d="M48.8,47.4c-0.4,0-0.8-0.3-0.8-0.8v-1.4c0-0.4,0.3-0.8,0.8-0.8s0.8,0.3,0.8,0.8v1.4
			C49.6,47.1,49.2,47.4,48.8,47.4z"/>
	</g>
	<g>
		<path fill="#020202" d="M50.9,47.4c-0.4,0-0.8-0.3-0.8-0.8v-1.4c0-0.4,0.3-0.8,0.8-0.8c0.4,0,0.7,0.3,0.7,0.8v1.4
			C51.7,47.1,51.4,47.4,50.9,47.4z"/>
	</g>
	<g>
		<path fill="#020202" d="M48.8,57.5c-0.4,0-0.8-0.3-0.8-0.8v-1.4c0-0.4,0.3-0.8,0.8-0.8s0.8,0.3,0.8,0.8v1.4
			C49.6,57.2,49.2,57.5,48.8,57.5z"/>
	</g>
	<g>
		<path fill="#020202" d="M50.9,57.5c-0.4,0-0.8-0.3-0.8-0.8v-1.4c0-0.4,0.3-0.8,0.8-0.8c0.4,0,0.7,0.3,0.7,0.8v1.4
			C51.7,57.2,51.4,57.5,50.9,57.5z"/>
	</g>
</g>
</svg>
