<?xml version="1.0" encoding="utf-8"?>
<!-- Generator: Adobe Illustrator 18.1.1, SVG Export Plug-In . SVG Version: 6.00 Build 0)  -->
<!DOCTYPE svg PUBLIC "-//W3C//DTD SVG 1.1//EN" "http://www.w3.org/Graphics/SVG/1.1/DTD/svg11.dtd">
<svg version="1.1" id="Layer_1" xmlns="http://www.w3.org/2000/svg" xmlns:xlink="http://www.w3.org/1999/xlink" x="0px" y="0px"
	 width="100px" height="100px" viewBox="0 0 100 100" enable-background="new 0 0 100 100" xml:space="preserve">
<g>
	<circle fill="#FCB61E" cx="49.9" cy="50.4" r="32.6"/>
	<path fill="#020202" d="M49.9,84C31.3,84,16.2,69,16.2,50.4s15.1-33.6,33.6-33.6s33.6,15.1,33.6,33.6S68.4,84,49.9,84z M49.9,18.8
		c-17.4,0-31.6,14.2-31.6,31.6S32.4,82,49.9,82c17.4,0,31.6-14.2,31.6-31.6S67.3,18.8,49.9,18.8z"/>
</g>
<g>
	<g>
		<rect x="37.5" y="35.6" fill="#EFEFEF" width="25.1" height="33.8"/>
	</g>
	<g>
		<path fill="#020202" d="M47.5,57.2c0,0-0.1,0-0.1,0c-0.3,0-0.5-0.2-0.7-0.4l-2.2-3.1c-0.3-0.5-0.2-1.1,0.3-1.4s1.1-0.2,1.4,0.3
			l1.5,2.2l6.2-5.7c0.4-0.4,1-0.3,1.4,0.1c0.4,0.4,0.3,1-0.1,1.4l-7,6.5C48,57.1,47.7,57.2,47.5,57.2z"/>
	</g>
	<g>
		<path fill="#020202" d="M62.6,70.5H37.5c-0.6,0-1-0.4-1-1V35.6c0-0.6,0.4-1,1-1h2.6c0.6,0,1,0.4,1,1s-0.4,1-1,1h-1.6v31.8h23.1
			V36.6h-1.7c-0.6,0-1-0.4-1-1s0.4-1,1-1h2.7c0.6,0,1,0.4,1,1v33.8C63.6,70,63.1,70.5,62.6,70.5z"/>
	</g>
	<g>
		<path fill="#EFEFEF" d="M54.5,33.7h-2.1c0,0,0,0,0,0v-0.3c0-1.3-1-2.3-2.3-2.3h0c-1.3,0-2.3,1-2.3,2.3v0.3c0,0,0,0,0,0h-2.1
			c-1,0-2,0.7-2.2,1.7c-0.2,1.3,0.8,2.3,2,2.3h9.2c1.2,0,2.2-1.1,2-2.3C56.5,34.4,55.5,33.7,54.5,33.7z"/>
		<path fill="#020202" d="M54.7,38.7h-9.2c-0.9,0-1.7-0.4-2.3-1c-0.6-0.7-0.8-1.5-0.7-2.4c0.2-1.5,1.6-2.6,3.2-2.6h1.2
			c0.3-1.5,1.7-2.6,3.2-2.6c1.6,0,2.9,1.1,3.2,2.6h1.2c1.6,0,3,1.1,3.2,2.6c0.1,0.9-0.1,1.8-0.7,2.4C56.4,38.4,55.5,38.7,54.7,38.7z
			 M45.6,34.7c-0.5,0-1.1,0.3-1.2,0.9c0,0.3,0,0.6,0.2,0.8c0.2,0.2,0.5,0.4,0.8,0.4h9.2c0.3,0,0.6-0.1,0.8-0.4
			c0.2-0.2,0.3-0.5,0.2-0.8c-0.1-0.5-0.7-0.9-1.2-0.9h-2.1c-0.6,0-1-0.4-1-1c0,0,0,0,0-0.1v-0.2c0-0.7-0.6-1.3-1.3-1.3
			c-0.7,0-1.3,0.6-1.3,1.3v0.2c0,0,0,0,0,0.1c0,0.6-0.4,1-1,1H45.6z"/>
	</g>
</g>
</svg>
