<?xml version="1.0" encoding="utf-8"?>
<!-- Generator: Adobe Illustrator 18.1.1, SVG Export Plug-In . SVG Version: 6.00 Build 0)  -->
<!DOCTYPE svg PUBLIC "-//W3C//DTD SVG 1.1//EN" "http://www.w3.org/Graphics/SVG/1.1/DTD/svg11.dtd">
<svg version="1.1" id="Layer_1" xmlns="http://www.w3.org/2000/svg" xmlns:xlink="http://www.w3.org/1999/xlink" x="0px" y="0px"
	 width="100px" height="100px" viewBox="0 0 100 100" enable-background="new 0 0 100 100" xml:space="preserve">
<g>
	<circle fill="#FCB61E" cx="50.5" cy="50.4" r="32.6"/>
	<path fill="#020202" d="M50.5,84C32,84,16.9,69,16.9,50.4S32,16.8,50.5,16.8s33.6,15.1,33.6,33.6S69.1,84,50.5,84z M50.5,18.8
		c-17.4,0-31.6,14.2-31.6,31.6S33.1,82,50.5,82s31.6-14.2,31.6-31.6S68,18.8,50.5,18.8z"/>
</g>
<g>
	<path fill="#EFEFEF" d="M38,47.2v21.9h25V47.2H38z M52.7,63.3h-4.3l0.8-5.3c-0.7-0.4-1.2-1.2-1.2-2.1c0-1.4,1.1-2.5,2.5-2.5
		s2.5,1.1,2.5,2.5c0,0.9-0.5,1.7-1.2,2.1L52.7,63.3z"/>
	<path fill="#020202" d="M63,70.2H38c-0.6,0-1-0.4-1-1V47.2c0-0.6,0.4-1,1-1h25c0.6,0,1,0.4,1,1v21.9C64,69.7,63.6,70.2,63,70.2z
		 M39,68.2h23V48.2H39V68.2z M52.7,64.3h-4.3c-0.3,0-0.6-0.1-0.8-0.4c-0.2-0.2-0.3-0.5-0.2-0.8l0.8-4.8c-0.7-0.6-1.1-1.6-1.1-2.5
		c0-1.9,1.6-3.5,3.5-3.5c1.9,0,3.5,1.6,3.5,3.5c0,1-0.4,1.9-1.1,2.5l0.8,4.8c0,0.3,0,0.6-0.2,0.8C53.2,64.2,53,64.3,52.7,64.3z
		 M49.6,62.3h1.9l-0.7-4.2c-0.1-0.4,0.1-0.8,0.5-1c0.4-0.3,0.7-0.7,0.7-1.2c0-0.8-0.7-1.5-1.5-1.5c-0.8,0-1.5,0.7-1.5,1.5
		c0,0.5,0.3,1,0.7,1.2c0.3,0.2,0.5,0.6,0.5,1L49.6,62.3z"/>
</g>
<g>
	<path fill="#EFEFEF" d="M45.4,47.2V39c0-2.8,2.3-5.1,5.1-5.1s5.1,2.3,5.1,5.1v8.2h3.8V39c0-4.9-4-9-9-9h0c-4.9,0-9,4-9,9v8.2H45.4z
		"/>
	<path fill="#020202" d="M59.5,48.2h-3.8c-0.6,0-1-0.4-1-1V39c0-2.3-1.9-4.1-4.1-4.1s-4.1,1.9-4.1,4.1v8.2c0,0.6-0.4,1-1,1h-3.8
		c-0.6,0-1-0.4-1-1V39c0-5.5,4.5-10,10-10c5.5,0,10,4.5,10,10v8.2C60.5,47.8,60,48.2,59.5,48.2z M56.7,46.2h1.8V39c0-4.4-3.6-8-8-8
		c-4.4,0-8,3.6-8,8v7.2h1.8V39c0-3.4,2.8-6.1,6.1-6.1c3.4,0,6.1,2.8,6.1,6.1V46.2z"/>
</g>
</svg>
