<?xml version="1.0" encoding="utf-8"?>
<!-- Generator: Adobe Illustrator 18.1.1, SVG Export Plug-In . SVG Version: 6.00 Build 0)  -->
<!DOCTYPE svg PUBLIC "-//W3C//DTD SVG 1.1//EN" "http://www.w3.org/Graphics/SVG/1.1/DTD/svg11.dtd">
<svg version="1.1" id="Layer_1" xmlns="http://www.w3.org/2000/svg" xmlns:xlink="http://www.w3.org/1999/xlink" x="0px" y="0px"
	 width="200px" height="200px" viewBox="0 0 200 200" enable-background="new 0 0 200 200" xml:space="preserve">
<g>
	<g>
		<rect x="58.7" y="39.2" fill="#FCB61E" width="82.6" height="77.7"/>
	</g>
	<g>
		<path fill="#020202" d="M93.3,118.4H58.7c-0.8,0-1.5-0.7-1.5-1.5V39.2c0-0.8,0.7-1.5,1.5-1.5h82.6c0.8,0,1.5,0.7,1.5,1.5v55
			c0,0.8-0.7,1.5-1.5,1.5s-1.5-0.7-1.5-1.5V40.7H60.2v74.7h33.1c0.8,0,1.5,0.7,1.5,1.5S94.1,118.4,93.3,118.4z"/>
	</g>
	<g>
		<rect x="71.1" y="54" fill="#ECEFF0" width="57.8" height="15.7"/>
		<path fill="#020202" d="M128.9,71.2H71.1c-0.8,0-1.5-0.7-1.5-1.5V54c0-0.8,0.7-1.5,1.5-1.5h57.8c0.8,0,1.5,0.7,1.5,1.5v15.7
			C130.4,70.5,129.7,71.2,128.9,71.2z M72.6,68.2h54.8V55.5H72.6V68.2z"/>
	</g>
	<g>
		<path fill="#020202" d="M125.5,82.1H72.2c-0.8,0-1.5-0.7-1.5-1.5s0.7-1.5,1.5-1.5h53.3c0.8,0,1.5,0.7,1.5,1.5
			S126.4,82.1,125.5,82.1z"/>
	</g>
	<g>
		<path fill="#020202" d="M119.5,89.6H78.2c-0.8,0-1.5-0.7-1.5-1.5s0.7-1.5,1.5-1.5h41.4c0.8,0,1.5,0.7,1.5,1.5
			S120.4,89.6,119.5,89.6z"/>
	</g>
	<g>
		<path fill="#ECEFF0" d="M147,119.8L147,119.8l-0.1-10.6c0-2.2-1.5-3.9-3.3-3.9c-1.8,0-3.3,1.6-3.3,6.2l0-6c0-2.5-1.8-4.5-4-4.5
			c-2.2,0-4,2-4,4.5v4.2l0-8.2c0-2.5-1.8-4.5-4-4.5c-2.2,0-4,2-4,4.5l0,8.4V89.5c0-2.5-1.8-4.5-4-4.5c-2.2,0-4,2-4,4.5
			c0,0,0,25.8,0,25.8c-0.3,2.6-1.7,2.9-4.2,2c-3-1-8.5-3.4-9.6-2.4c-2.2,2.2,0.7,6,4.3,8.9l11.4,12.1c3,4.3,4.9,6.1,10.2,6.6
			c0.3,0,0.5,0.1,0.7,0.1c0.9,0.1,1.8,0.1,2.8,0.1c2.5,0,13.2,1.1,15-21.5C147,120.8,147,120.3,147,119.8z"/>
		<path fill="#020202" d="M132.8,144.2C132.8,144.2,132.8,144.2,132.8,144.2l-0.8,0c-1,0-1.9,0-2.9-0.1c-0.2,0-0.5,0-0.8-0.1
			c-5.7-0.5-8.1-2.6-11.2-7.1l-11.2-11.9c-2-1.6-5.4-4.8-5.6-7.9c-0.1-1.2,0.3-2.3,1.2-3.1c0.5-0.5,1.1-0.7,2-0.7c1.7,0,4.4,1,7,1.9
			c0.8,0.3,1.5,0.6,2.2,0.8c0.7,0.2,1.2,0.3,1.5,0.3c0.3,0,0.5,0,0.7-1.1c0-1.7,0-25.4,0-25.7c0-3.3,2.5-6,5.5-6c3,0,5.5,2.7,5.5,6
			v6.7c0.8-0.4,1.6-0.7,2.5-0.7c2.6,0,4.8,2,5.4,4.7c0.8-0.5,1.7-0.7,2.7-0.7c2.7,0,4.9,2.1,5.4,4.8c0.7-0.4,1.4-0.5,1.9-0.5
			c2.7,0,4.8,2.4,4.9,5.4l0.1,10.4c0,0.1,0,0.2,0,0.3c0,0.1,0,0.2,0,0.3c0,0.5,0,0.9-0.1,1.3C147.3,136.3,141.9,144.2,132.8,144.2z
			 M103.4,116.2c-0.1,0.2-0.2,0.4-0.2,0.7c0.1,1.4,1.9,3.7,4.5,5.8c0.1,0,0.1,0.1,0.2,0.1l11.4,12.1c0.1,0.1,0.1,0.1,0.1,0.2
			c2.8,4.1,4.5,5.5,9.1,5.9c0.3,0,0.5,0,0.6,0.1c0.9,0.1,1.8,0.1,2.7,0.1l0.8,0c7.3,0,11.6-6.8,12.7-20.1c0.1-0.4,0.1-0.8,0-1.2
			c0-0.1,0-0.2,0-0.2l-0.1-10.5c0-1.3-0.8-2.4-1.8-2.4c-1.6,0-1.8,3.5-1.8,4.6v0c0,0,0,0,0,0v0.1c0,0.8-0.7,1.5-1.5,1.5c0,0,0,0,0,0
			c-0.8,0-1.5-0.6-1.5-1.4v0l0,0c0,0,0,0,0-0.1v-0.1c0,0,0,0,0,0l0-5.9c0-1.6-1.1-3-2.5-3s-2.5,1.3-2.5,3v4.2c0,0.8-0.7,1.5-1.5,1.5
			c0,0,0,0,0,0c-0.8,0-1.5-0.7-1.5-1.5l0-8.2c0-1.6-1.1-3-2.5-3c-1.4,0-2.5,1.3-2.5,3l0,8.4c0,0.8-0.7,1.5-1.5,1.5c0,0,0,0,0,0
			c-0.8,0-1.5-0.7-1.5-1.5V89.5c0-1.6-1.1-3-2.5-3c-1.4,0-2.5,1.3-2.5,3c0,25.9,0,25.9,0,25.9c-0.4,3.3-2.5,3.8-3.7,3.8
			c-0.7,0-1.5-0.2-2.5-0.5c-0.7-0.2-1.4-0.5-2.3-0.8C107.4,117.2,104.6,116.2,103.4,116.2C103.4,116.2,103.4,116.2,103.4,116.2z"/>
	</g>
	<g>
		<rect x="89.5" y="98.2" fill="#ECEFF0" width="19.7" height="6.9"/>
		<path fill="#020202" d="M109.3,106.7H89.5c-0.8,0-1.5-0.7-1.5-1.5v-6.9c0-0.8,0.7-1.5,1.5-1.5h19.7c0.8,0,1.5,0.7,1.5,1.5v6.9
			C110.8,106,110.1,106.7,109.3,106.7z M91,103.7h16.7v-3.9H91V103.7z"/>
	</g>
</g>
<g>
	<path fill="#020202" d="M156.5,157.9H51.5c-0.8,0-1.5-0.7-1.5-1.5s0.7-1.5,1.5-1.5h105.1c0.8,0,1.5,0.7,1.5,1.5
		S157.3,157.9,156.5,157.9z"/>
</g>
<g>
	<rect x="99.4" y="166.3" fill="#BCD4DE" width="19.7" height="8.1"/>
	<path fill="#020202" d="M119.1,175.9H99.4c-0.8,0-1.5-0.7-1.5-1.5v-8.1c0-0.8,0.7-1.5,1.5-1.5h19.7c0.8,0,1.5,0.7,1.5,1.5v8.1
		C120.6,175.2,119.9,175.9,119.1,175.9z M100.9,172.9h16.7v-5.1h-16.7V172.9z"/>
</g>
<g>
	<rect x="127.4" y="166.3" fill="#BCD4DE" width="19.7" height="8.1"/>
	<path fill="#020202" d="M147,175.9h-19.7c-0.8,0-1.5-0.7-1.5-1.5v-8.1c0-0.8,0.7-1.5,1.5-1.5H147c0.8,0,1.5,0.7,1.5,1.5v8.1
		C148.5,175.2,147.9,175.9,147,175.9z M128.9,172.9h16.7v-5.1h-16.7V172.9z"/>
</g>
<g>
	<path fill="#020202" d="M157.9,175.8C157.9,175.8,157.9,175.8,157.9,175.8c-0.8,0-1.5-0.7-1.5-1.5c0-21.6-0.5-43.6-1.5-65.2
		l-4-82.8H49l-4.1,85.9c-0.9,19.4-1.4,39-1.3,58.5c0,0.8-0.7,1.5-1.5,1.5c0,0,0,0,0,0c-0.8,0-1.5-0.7-1.5-1.5
		c-0.1-19.5,0.4-39.2,1.3-58.6l4.2-87.3c0-0.8,0.7-1.4,1.5-1.4h104.8c0.8,0,1.5,0.6,1.5,1.4l4,84.2c1,21.7,1.5,43.6,1.5,65.3
		C159.4,175.2,158.7,175.8,157.9,175.8z"/>
</g>
<g>
	<rect x="58.7" y="132.1" fill="#BCD4DE" width="35.7" height="8.6"/>
	<path fill="#020202" d="M94.4,142.2H58.7c-0.8,0-1.5-0.7-1.5-1.5v-8.6c0-0.8,0.7-1.5,1.5-1.5h35.7c0.8,0,1.5,0.7,1.5,1.5v8.6
		C95.9,141.5,95.2,142.2,94.4,142.2z M60.2,139.2h32.7v-5.6H60.2V139.2z"/>
</g>
</svg>
