<?xml version="1.0" encoding="utf-8"?>
<!-- Generator: Adobe Illustrator 18.1.1, SVG Export Plug-In . SVG Version: 6.00 Build 0)  -->
<!DOCTYPE svg PUBLIC "-//W3C//DTD SVG 1.1//EN" "http://www.w3.org/Graphics/SVG/1.1/DTD/svg11.dtd">
<svg version="1.1" id="Layer_1" xmlns="http://www.w3.org/2000/svg" xmlns:xlink="http://www.w3.org/1999/xlink" x="0px" y="0px"
	 width="171px" height="171px" viewBox="-84.5 116.5 171 171" enable-background="new -84.5 116.5 171 171" xml:space="preserve">
<g>
	<g>
		<rect x="-40.3" y="141.2" fill="#FCB61E" width="82.6" height="77.7"/>
	</g>
	<g>
		<path fill="#020202" d="M-5.7,220.4h-34.6c-0.8,0-1.5-0.7-1.5-1.5v-77.7c0-0.8,0.7-1.5,1.5-1.5h82.6c0.8,0,1.5,0.7,1.5,1.5v55
			c0,0.8-0.7,1.5-1.5,1.5s-1.5-0.7-1.5-1.5v-53.5h-79.6v74.7h33.1c0.8,0,1.5,0.7,1.5,1.5S-4.9,220.4-5.7,220.4z"/>
	</g>
	<g>
		<rect x="-27.9" y="156" fill="#ECEFF0" width="57.8" height="15.7"/>
		<path fill="#020202" d="M29.9,173.2h-57.8c-0.8,0-1.5-0.7-1.5-1.5V156c0-0.8,0.7-1.5,1.5-1.5h57.8c0.8,0,1.5,0.7,1.5,1.5v15.7
			C31.4,172.5,30.7,173.2,29.9,173.2z M-26.4,170.2h54.8v-12.7h-54.8V170.2z"/>
	</g>
	<g>
		<path fill="#020202" d="M26.5,184.1h-53.3c-0.8,0-1.5-0.7-1.5-1.5c0-0.8,0.7-1.5,1.5-1.5h53.3c0.8,0,1.5,0.7,1.5,1.5
			C28,183.4,27.4,184.1,26.5,184.1z"/>
	</g>
	<g>
		<path fill="#020202" d="M20.5,191.6h-41.3c-0.8,0-1.5-0.7-1.5-1.5c0-0.8,0.7-1.5,1.5-1.5h41.4c0.8,0,1.5,0.7,1.5,1.5
			C22.1,190.9,21.4,191.6,20.5,191.6z"/>
	</g>
	<g>
		<path fill="#ECEFF0" d="M48,221.8L48,221.8l-0.1-10.6c0-2.2-1.5-3.9-3.3-3.9s-3.3,1.6-3.3,6.2v-6c0-2.5-1.8-4.5-4-4.5s-4,2-4,4.5
			v4.2v-8.2c0-2.5-1.8-4.5-4-4.5s-4,2-4,4.5v8.4v-20.4c0-2.5-1.8-4.5-4-4.5s-4,2-4,4.5v25.8c-0.3,2.6-1.7,2.9-4.2,2
			c-3-1-8.5-3.4-9.6-2.4c-2.2,2.2,0.7,6,4.3,8.9l11.4,12.1c3,4.3,4.9,6.1,10.2,6.6c0.3,0,0.5,0.1,0.7,0.1c0.9,0.1,1.8,0.1,2.8,0.1
			c2.5,0,13.2,1.1,15-21.5C48,222.8,48,222.3,48,221.8z"/>
		<path fill="#020202" d="M33.8,246.2L33.8,246.2H33c-1,0-1.9,0-2.9-0.1c-0.2,0-0.5,0-0.8-0.1c-5.7-0.5-8.1-2.6-11.2-7.1L6.9,227
			c-2-1.6-5.4-4.8-5.6-7.9c-0.1-1.2,0.3-2.3,1.2-3.1c0.5-0.5,1.1-0.7,2-0.7c1.7,0,4.4,1,7,1.9c0.8,0.3,1.5,0.6,2.2,0.8
			s1.2,0.3,1.5,0.3s0.5,0,0.7-1.1c0-1.7,0-25.4,0-25.7c0-3.3,2.5-6,5.5-6s5.5,2.7,5.5,6v6.7c0.8-0.4,1.6-0.7,2.5-0.7
			c2.6,0,4.8,2,5.4,4.7c0.8-0.5,1.7-0.7,2.7-0.7c2.7,0,4.9,2.1,5.4,4.8c0.7-0.4,1.4-0.5,1.9-0.5c2.7,0,4.8,2.4,4.9,5.4l0.1,10.4
			c0,0.1,0,0.2,0,0.3s0,0.2,0,0.3c0,0.5,0,0.9-0.1,1.3C48.3,238.3,42.9,246.2,33.8,246.2z M4.4,218.2c-0.1,0.2-0.2,0.4-0.2,0.7
			c0.1,1.4,1.9,3.7,4.5,5.8c0.1,0,0.1,0.1,0.2,0.1l11.4,12.1c0.1,0.1,0.1,0.1,0.1,0.2c2.8,4.1,4.5,5.5,9.1,5.9c0.3,0,0.5,0,0.6,0.1
			c0.9,0.1,1.8,0.1,2.7,0.1h0.8c7.3,0,11.6-6.8,12.7-20.1c0.1-0.4,0.1-0.8,0-1.2c0-0.1,0-0.2,0-0.2l-0.1-10.5c0-1.3-0.8-2.4-1.8-2.4
			c-1.6,0-1.8,3.5-1.8,4.6l0,0l0,0v0.1c0,0.8-0.7,1.5-1.5,1.5l0,0c-0.8,0-1.5-0.6-1.5-1.4l0,0l0,0c0,0,0,0,0-0.1v-0.1l0,0v-5.9
			c0-1.6-1.1-3-2.5-3s-2.5,1.3-2.5,3v4.2c0,0.8-0.7,1.5-1.5,1.5l0,0c-0.8,0-1.5-0.7-1.5-1.5v-8.2c0-1.6-1.1-3-2.5-3
			c-1.4,0-2.5,1.3-2.5,3v8.4c0,0.8-0.7,1.5-1.5,1.5l0,0c-0.8,0-1.5-0.7-1.5-1.5v-20.4c0-1.6-1.1-3-2.5-3s-2.5,1.3-2.5,3
			c0,25.9,0,25.9,0,25.9c-0.4,3.3-2.5,3.8-3.7,3.8c-0.7,0-1.5-0.2-2.5-0.5c-0.7-0.2-1.4-0.5-2.3-0.8C8.4,219.2,5.6,218.2,4.4,218.2
			L4.4,218.2z"/>
	</g>
	<g>
		<rect x="-9.5" y="200.2" fill="#ECEFF0" width="19.7" height="6.9"/>
		<path fill="#020202" d="M10.3,208.7H-9.5c-0.8,0-1.5-0.7-1.5-1.5v-6.9c0-0.8,0.7-1.5,1.5-1.5h19.7c0.8,0,1.5,0.7,1.5,1.5v6.9
			C11.8,208,11.1,208.7,10.3,208.7z M-8,205.7H8.7v-3.9H-8V205.7z"/>
	</g>
</g>
<g>
	<path fill="#020202" d="M57.5,259.9h-105c-0.8,0-1.5-0.7-1.5-1.5s0.7-1.5,1.5-1.5H57.6c0.8,0,1.5,0.7,1.5,1.5
		S58.3,259.9,57.5,259.9z"/>
</g>
<g>
	<rect x="0.4" y="268.3" fill="#BCD4DE" width="19.7" height="8.1"/>
	<path fill="#020202" d="M20.1,277.9H0.4c-0.8,0-1.5-0.7-1.5-1.5v-8.1c0-0.8,0.7-1.5,1.5-1.5h19.7c0.8,0,1.5,0.7,1.5,1.5v8.1
		C21.6,277.2,20.9,277.9,20.1,277.9z M1.9,274.9h16.7v-5.1H1.9C1.9,269.8,1.9,274.9,1.9,274.9z"/>
</g>
<g>
	<rect x="28.4" y="268.3" fill="#BCD4DE" width="19.7" height="8.1"/>
	<path fill="#020202" d="M48,277.9H28.3c-0.8,0-1.5-0.7-1.5-1.5v-8.1c0-0.8,0.7-1.5,1.5-1.5H48c0.8,0,1.5,0.7,1.5,1.5v8.1
		C49.5,277.2,48.9,277.9,48,277.9z M29.9,274.9h16.7v-5.1H29.9V274.9z"/>
</g>
<g>
	<path fill="#020202" d="M58.9,277.8L58.9,277.8c-0.8,0-1.5-0.7-1.5-1.5c0-21.6-0.5-43.6-1.5-65.2l-4-82.8H-50l-4.1,85.9
		c-0.9,19.4-1.4,39-1.3,58.5c0,0.8-0.7,1.5-1.5,1.5l0,0c-0.8,0-1.5-0.7-1.5-1.5c-0.1-19.5,0.4-39.2,1.3-58.6l4.2-87.3
		c0-0.8,0.7-1.4,1.5-1.4H53.4c0.8,0,1.5,0.6,1.5,1.4l4,84.2c1,21.7,1.5,43.6,1.5,65.3C60.4,277.2,59.7,277.8,58.9,277.8z"/>
</g>
<g>
	<rect x="-40.3" y="234.1" fill="#BCD4DE" width="35.7" height="8.6"/>
	<path fill="#020202" d="M-4.6,244.2h-35.7c-0.8,0-1.5-0.7-1.5-1.5v-8.6c0-0.8,0.7-1.5,1.5-1.5h35.7c0.8,0,1.5,0.7,1.5,1.5v8.6
		C-3.1,243.5-3.8,244.2-4.6,244.2z M-38.8,241.2h32.7v-5.6h-32.7V241.2z"/>
</g>
</svg>
