<?xml version="1.0" encoding="utf-8"?>
<!-- Generator: Adobe Illustrator 18.1.1, SVG Export Plug-In . SVG Version: 6.00 Build 0)  -->
<!DOCTYPE svg PUBLIC "-//W3C//DTD SVG 1.1//EN" "http://www.w3.org/Graphics/SVG/1.1/DTD/svg11.dtd">
<svg version="1.1" id="Layer_1" xmlns="http://www.w3.org/2000/svg" xmlns:xlink="http://www.w3.org/1999/xlink" x="0px" y="0px"
	 width="100px" height="100px" viewBox="0 0 100 100" enable-background="new 0 0 100 100" xml:space="preserve">
<g>
	<circle fill="#FCB61E" cx="49.8" cy="50.4" r="32.6"/>
	<path fill="#020202" d="M49.8,84C31.2,84,16.1,69,16.1,50.4s15.1-33.6,33.6-33.6c18.5,0,33.6,15.1,33.6,33.6S68.3,84,49.8,84z
		 M49.8,18.8c-17.4,0-31.6,14.2-31.6,31.6S32.3,82,49.8,82s31.6-14.2,31.6-31.6S67.2,18.8,49.8,18.8z"/>
</g>
<g>
	<path fill="#020202" d="M40.4,54.1c-0.6,0-1-0.4-1-1V34.7c0-0.6,0.4-1,1-1s1,0.4,1,1v18.4C41.4,53.6,40.9,54.1,40.4,54.1z"/>
</g>
<g>
	<path fill="#020202" d="M40.4,67.2c-0.6,0-1-0.4-1-1v-3.2c0-0.6,0.4-1,1-1s1,0.4,1,1v3.2C41.4,66.7,40.9,67.2,40.4,67.2z"/>
</g>
<g>
	<path fill="#020202" d="M49.8,67.2c-0.6,0-1-0.4-1-1V49.5c0-0.6,0.4-1,1-1s1,0.4,1,1v16.7C50.8,66.7,50.4,67.2,49.8,67.2z"/>
</g>
<g>
	<path fill="#020202" d="M49.8,41.1c-0.6,0-1-0.4-1-1v-5.5c0-0.6,0.4-1,1-1s1,0.4,1,1v5.5C50.8,40.7,50.4,41.1,49.8,41.1z"/>
</g>
<g>
	<path fill="#020202" d="M59.8,48.6c-0.6,0-1-0.4-1-1V34.7c0-0.6,0.4-1,1-1s1,0.4,1,1v12.9C60.8,48.1,60.4,48.6,59.8,48.6z"/>
</g>
<g>
	<path fill="#020202" d="M59.8,67.3c-0.6,0-1-0.4-1-1v-9.3c0-0.6,0.4-1,1-1s1,0.4,1,1v9.3C60.8,66.9,60.4,67.3,59.8,67.3z"/>
</g>
<g>
	<path fill="#EFEFEF" d="M43,59.8h-5.5c-0.9,0-1.7-0.8-1.7-1.7l0,0c0-0.9,0.8-1.7,1.7-1.7H43c0.9,0,1.7,0.8,1.7,1.7l0,0
		C44.7,59.1,43.9,59.8,43,59.8z"/>
	<path fill="#020202" d="M43,60.8h-5.5c-1.5,0-2.7-1.2-2.7-2.7s1.2-2.7,2.7-2.7H43c1.5,0,2.7,1.2,2.7,2.7S44.5,60.8,43,60.8z
		 M37.5,57.4c-0.4,0-0.7,0.3-0.7,0.7s0.3,0.7,0.7,0.7H43c0.4,0,0.7-0.3,0.7-0.7s-0.3-0.7-0.7-0.7H37.5z"/>
</g>
<g>
	<path fill="#EFEFEF" d="M52.6,46.4h-5.5c-0.9,0-1.7-0.8-1.7-1.7v0c0-0.9,0.8-1.7,1.7-1.7h5.5c0.9,0,1.7,0.8,1.7,1.7v0
		C54.3,45.7,53.5,46.4,52.6,46.4z"/>
	<path fill="#020202" d="M52.6,47.4h-5.5c-1.5,0-2.7-1.2-2.7-2.7c0-1.5,1.2-2.7,2.7-2.7h5.5c1.5,0,2.7,1.2,2.7,2.7
		C55.3,46.2,54.1,47.4,52.6,47.4z M47.1,44c-0.4,0-0.7,0.3-0.7,0.7s0.3,0.7,0.7,0.7h5.5c0.4,0,0.7-0.3,0.7-0.7S53,44,52.6,44H47.1z"
		/>
</g>
<g>
	<path fill="#EFEFEF" d="M62.6,54.1h-5.5c-0.9,0-1.7-0.8-1.7-1.7l0,0c0-0.9,0.8-1.7,1.7-1.7h5.5c0.9,0,1.7,0.8,1.7,1.7l0,0
		C64.3,53.3,63.5,54.1,62.6,54.1z"/>
	<path fill="#020202" d="M62.6,55.1h-5.5c-1.5,0-2.7-1.2-2.7-2.7c0-1.5,1.2-2.7,2.7-2.7h5.5c1.5,0,2.7,1.2,2.7,2.7
		C65.3,53.9,64.1,55.1,62.6,55.1z M57.1,51.7c-0.4,0-0.7,0.3-0.7,0.7s0.3,0.7,0.7,0.7h5.5c0.4,0,0.7-0.3,0.7-0.7s-0.3-0.7-0.7-0.7
		H57.1z"/>
</g>
</svg>
