<?xml version="1.0" encoding="utf-8"?>
<!-- Generator: Adobe Illustrator 18.1.1, SVG Export Plug-In . SVG Version: 6.00 Build 0)  -->
<!DOCTYPE svg PUBLIC "-//W3C//DTD SVG 1.1//EN" "http://www.w3.org/Graphics/SVG/1.1/DTD/svg11.dtd">
<svg version="1.1" id="Layer_1" xmlns="http://www.w3.org/2000/svg" xmlns:xlink="http://www.w3.org/1999/xlink" x="0px" y="0px"
	 width="100px" height="100px" viewBox="0 0 100 100" enable-background="new 0 0 100 100" xml:space="preserve">
<g>
	<circle fill="#FCB61E" cx="49.8" cy="50.1" r="32.6"/>
	<path fill="#020202" d="M49.8,83.7c-18.5,0-33.6-15.1-33.6-33.6c0-18.5,15.1-33.6,33.6-33.6c18.5,0,33.6,15.1,33.6,33.6
		C83.4,68.6,68.3,83.7,49.8,83.7z M49.8,18.4c-17.4,0-31.6,14.2-31.6,31.6s14.2,31.6,31.6,31.6s31.6-14.2,31.6-31.6
		S67.2,18.4,49.8,18.4z"/>
</g>
<g>
	<path fill="#FFFFFF" d="M28.3,39.1c0,0-2.5,5-2.1,17.5l6.6,0c0,0,3.5-13.9,4.1-16.1L28.3,39.1z"/>
	<path fill="#020202" d="M32.8,57.6h-6.6c-0.5,0-1-0.4-1-1c-0.4-12.7,2.1-17.8,2.2-18c0.2-0.4,0.6-0.6,1.1-0.5l8.7,1.5
		c0.3,0,0.5,0.2,0.7,0.4c0.2,0.2,0.2,0.5,0.1,0.8c-0.6,2.2-4.1,15.9-4.1,16.1C33.7,57.3,33.3,57.6,32.8,57.6z M27.2,55.6h4.9
		c0.7-2.6,2.8-11,3.6-14.3l-6.8-1.2C28.3,41.9,27,46.7,27.2,55.6z"/>
</g>
<g>
	<path fill="#FFFFFF" d="M50.6,64.7c-1.1,1.2-3.1,1.3-4.3,0.2L33.7,53.9l3.4-13.4l8.9,0.1l16.7,16.6c0.7,0.7,0.8,1.8,0.1,2.5
		L62.7,60C62,60.7,50.6,64.7,50.6,64.7z"/>
</g>
<g>
	<path fill="#FFFFFF" d="M52.7,53.3l7.5,6.8c0.7,0.7,1.8,0.6,2.5-0.1l0.4-0.4c0.7-0.7,0.5-1.7-0.2-2.3c0,0-15.6-16.4-16.9-16.5
		c-1.3,0-8.9-0.1-8.9-0.1l-3.4,13.4l12.6,10.9c1.2,1.1,3.2,1,4.3-0.2l0.2-0.2"/>
	<path fill="#020202" d="M48.3,66.7c-1,0-2-0.3-2.7-1.1L33,54.7c-0.3-0.2-0.4-0.6-0.3-1l3.4-13.4c0.1-0.4,0.5-0.7,1-0.8l8.9,0.1
		c0.5,0,1.8,0,17.6,16.8c0.5,0.4,0.8,1.1,0.9,1.8c0.1,0.7-0.2,1.4-0.7,2l-0.5,0.5c-0.5,0.5-1.1,0.8-1.9,0.9c-0.7,0-1.5-0.2-2-0.7
		L52,54c-0.4-0.4-0.4-1-0.1-1.4c0.4-0.4,1-0.4,1.4-0.1l7.5,6.8c0.2,0.1,0.3,0.2,0.6,0.2c0.2,0,0.4-0.1,0.5-0.3l0.5-0.5
		c0.1-0.1,0.2-0.3,0.1-0.4c0-0.2-0.1-0.3-0.3-0.5c-7-7.3-14.9-15.4-16.4-16.2l-8-0.1l-3.1,12l12.1,10.5c0.9,0.8,2.1,0.7,2.9-0.1
		l0.2-0.2c0.4-0.4,1-0.4,1.4-0.1c0.4,0.4,0.4,1,0.1,1.4l-0.2,0.2C50.5,66.2,49.4,66.7,48.3,66.7z"/>
</g>
<g>
	<path fill="#FFFFFF" d="M60.9,43l5.4,13.7h7.6c0,0-0.5-11.5-3.9-15.2C69.9,41.4,64.8,41.2,60.9,43z"/>
	<path fill="#020202" d="M73.8,57.6h-7.6c-0.4,0-0.8-0.3-0.9-0.6l-5.4-13.7c-0.2-0.5,0-1.1,0.5-1.3c3.3-1.5,7.4-1.6,9-1.6
		c0.4,0,0.5,0,0.5,0c0.3,0,0.5,0.1,0.7,0.3c3.6,3.9,4.1,15.4,4.1,15.8c0,0.3-0.1,0.5-0.3,0.7C74.3,57.5,74.1,57.6,73.8,57.6z
		 M66.9,55.6h5.8c-0.3-3.5-1.2-10.4-3.3-13.2c0,0,0,0,0,0c-1,0-4.4,0.1-7.3,1.1L66.9,55.6z"/>
</g>
<g>
	<path fill="#FFFFFF" d="M60.3,43.2l-8.5-3.7c0,0-6.2-0.4-8.8,3.4c-3,4.3-1.9,5.7-0.7,6.5s3.6-0.6,5.3-2.6c0,0,2.2-0.6,3.5-1.3
		c0,0,11,10.3,11.8,11.5l2.8-1.2L60.3,43.2z"/>
	<path fill="#020202" d="M62.9,57.9c-0.3,0-0.7-0.2-0.8-0.5c-0.5-0.7-6-6-11.1-10.8c-1,0.4-2.2,0.8-2.7,0.9c-1.6,1.8-3.6,3-5.1,3
		c-0.5,0-0.9-0.1-1.3-0.4c-0.9-0.6-1.4-1.3-1.6-2.2c-0.3-1.4,0.4-3.3,2-5.7c2.4-3.5,7.2-3.9,9.1-3.9c0.4,0,0.6,0,0.6,0
		c0.1,0,0.2,0,0.3,0.1l8.5,3.7c0.2,0.1,0.4,0.3,0.5,0.5l5.3,12.5c0.1,0.2,0.1,0.5,0,0.8c-0.1,0.2-0.3,0.4-0.5,0.5l-2.8,1.2
		C63.1,57.9,63,57.9,62.9,57.9z M51.1,44.4c0.2,0,0.5,0.1,0.7,0.3c1.7,1.5,9.2,8.6,11.4,11l1.2-0.5l-4.8-11.3l-7.9-3.5
		c-0.1,0-0.2,0-0.3,0c-1.3,0-5.6,0.2-7.5,3c-1.7,2.5-1.8,3.7-1.7,4.2c0.1,0.3,0.3,0.6,0.7,0.9c0,0,0.1,0,0.2,0
		c0.8,0,2.5-0.9,3.7-2.5c0.1-0.2,0.3-0.3,0.5-0.3c0,0,2.1-0.6,3.4-1.2C50.8,44.5,51,44.4,51.1,44.4z"/>
</g>
<g>
	<path fill="#FFFFFF" d="M55.8,63.3l-0.2,0.2c-1.1,1.2-3.1,1.3-4.3,0.2l-5-4.5"/>
	<path fill="#020202" d="M53.4,65.5c-1,0-2-0.4-2.7-1.1l-5-4.5c-0.4-0.4-0.4-1-0.1-1.4c0.4-0.4,1-0.4,1.4-0.1l5,4.5
		c0.4,0.4,0.9,0.5,1.5,0.5c0.5,0,1-0.3,1.4-0.7l0.2-0.2c0.4-0.4,1-0.4,1.4-0.1c0.4,0.4,0.4,1,0.1,1.4l-0.2,0.2
		c-0.7,0.8-1.7,1.3-2.8,1.3C53.5,65.5,53.4,65.5,53.4,65.5z"/>
</g>
<g>
	<path fill="#FFFFFF" d="M60.6,61.6l-0.2,0.2c-1.1,1.2-3.1,1.3-4.3,0.2l-6-5.5"/>
	<path fill="#020202" d="M58.1,63.8c-1,0-2-0.3-2.7-1.1l-6-5.5c-0.4-0.4-0.4-1-0.1-1.4c0.4-0.4,1-0.4,1.4-0.1l6,5.5
		c0.4,0.4,0.9,0.6,1.5,0.5c0.5,0,1-0.3,1.4-0.7l0.2-0.2c0.4-0.4,1-0.4,1.4-0.1c0.4,0.4,0.4,1,0.1,1.4l-0.2,0.2
		C60.3,63.4,59.2,63.8,58.1,63.8z"/>
</g>
</svg>
