<?xml version="1.0" encoding="utf-8"?>
<!-- Generator: Adobe Illustrator 18.1.1, SVG Export Plug-In . SVG Version: 6.00 Build 0)  -->
<!DOCTYPE svg PUBLIC "-//W3C//DTD SVG 1.1//EN" "http://www.w3.org/Graphics/SVG/1.1/DTD/svg11.dtd">
<svg version="1.1" id="Layer_1" xmlns="http://www.w3.org/2000/svg" xmlns:xlink="http://www.w3.org/1999/xlink" x="0px" y="0px"
	 width="100px" height="100px" viewBox="0 0 100 100" enable-background="new 0 0 100 100" xml:space="preserve">
<g>
	<circle fill="#FCB61E" cx="50.1" cy="50.1" r="32.6"/>
	<path fill="#020202" d="M50.1,83.7c-18.5,0-33.6-15.1-33.6-33.6c0-18.5,15.1-33.6,33.6-33.6s33.6,15.1,33.6,33.6
		C83.7,68.6,68.7,83.7,50.1,83.7z M50.1,18.4c-17.4,0-31.6,14.2-31.6,31.6s14.2,31.6,31.6,31.6c17.4,0,31.6-14.2,31.6-31.6
		S67.6,18.4,50.1,18.4z"/>
</g>
<g>
	<path fill="#EFEFEF" d="M61.1,65h-22c-2.2,0-3.9-1.8-3.9-3.9v-22c0-2.2,1.8-3.9,3.9-3.9h22c2.2,0,3.9,1.8,3.9,3.9v22
		C65,63.2,63.3,65,61.1,65z"/>
	<path fill="#020202" d="M61.1,66h-22c-2.7,0-4.9-2.2-4.9-4.9v-22c0-2.7,2.2-4.9,4.9-4.9h22c2.7,0,4.9,2.2,4.9,4.9v22
		C66,63.8,63.8,66,61.1,66z M39.1,36.1c-1.6,0-2.9,1.3-2.9,2.9v22c0,1.6,1.3,2.9,2.9,2.9h22c1.6,0,2.9-1.3,2.9-2.9v-22
		c0-1.6-1.3-2.9-2.9-2.9H39.1z"/>
</g>
<g>
	<path fill="#020202" d="M65,51.1H35.2c-0.6,0-1-0.4-1-1s0.4-1,1-1H65c0.6,0,1,0.4,1,1S65.6,51.1,65,51.1z"/>
</g>
<g>
	<path fill="#020202" d="M50.1,66c-0.6,0-1-0.4-1-1V35.1c0-0.6,0.4-1,1-1s1,0.4,1,1V65C51.1,65.5,50.7,66,50.1,66z"/>
</g>
<g>
	<path fill="#020202" d="M58.5,57.3l0.7,0.7c0.2,0.2,0.3,0.4,0.4,0.5c0.1,0.2,0,0.5-0.2,0.7c-0.2,0.2-0.5,0.3-0.7,0.2
		c-0.2-0.1-0.3-0.1-0.5-0.4l-0.7-0.7L56.8,59c-0.2,0.2-0.4,0.3-0.5,0.4c-0.2,0.1-0.5,0-0.7-0.2c-0.2-0.2-0.3-0.5-0.2-0.7
		c0.1-0.2,0.1-0.3,0.4-0.5l0.7-0.7l-0.7-0.7c-0.2-0.2-0.3-0.4-0.4-0.5c-0.1-0.2,0-0.5,0.2-0.7c0.2-0.2,0.5-0.3,0.7-0.2
		c0.2,0.1,0.3,0.1,0.5,0.4l0.7,0.7l0.7-0.7c0.3-0.3,0.4-0.3,0.5-0.4c0.2-0.1,0.5,0,0.7,0.2c0.2,0.2,0.3,0.5,0.2,0.7
		c-0.1,0.2-0.1,0.3-0.4,0.5L58.5,57.3z"/>
</g>
<g>
	<path fill="#020202" d="M59.4,44C59.2,44,59,44,58.6,44h-2.2c-0.4,0-0.6,0-0.8-0.1c-0.2-0.1-0.4-0.3-0.4-0.6s0.2-0.5,0.4-0.6
		c0.2-0.1,0.3-0.1,0.8-0.1h2.2c0.4,0,0.6,0,0.8,0.1c0.2,0.1,0.4,0.3,0.4,0.6S59.6,43.8,59.4,44z"/>
</g>
<g>
	<path fill="#020202" d="M43.1,44v1c0,0.4,0,0.5-0.1,0.6c-0.1,0.2-0.3,0.3-0.6,0.3c-0.3,0-0.5-0.1-0.6-0.3c-0.1-0.2-0.1-0.3-0.1-0.6
		v-1h-1c-0.4,0-0.5,0-0.6-0.1c-0.2-0.1-0.3-0.3-0.3-0.6c0-0.3,0.1-0.5,0.3-0.6c0.1-0.1,0.3-0.1,0.6-0.1h1v-1c0-0.4,0-0.5,0.1-0.6
		c0.1-0.2,0.3-0.3,0.6-0.3c0.3,0,0.5,0.1,0.6,0.3c0.1,0.2,0.1,0.3,0.1,0.6v1h1c0.4,0,0.5,0,0.6,0.1c0.2,0.1,0.3,0.3,0.3,0.6
		c0,0.3-0.1,0.5-0.3,0.6C44.6,44,44.5,44,44.1,44H43.1z"/>
</g>
<g>
	<path fill="#020202" d="M45,58.3c-0.2,0.1-0.3,0.1-0.6,0.1h-3.4c-0.4,0-0.5,0-0.6-0.1c-0.2-0.1-0.3-0.3-0.3-0.6s0.1-0.5,0.3-0.6
		c0.1-0.1,0.3-0.1,0.6-0.1h3.4c0.4,0,0.5,0,0.6,0.1c0.2,0.1,0.3,0.3,0.3,0.6S45.2,58.2,45,58.3z M42.6,56.2c-0.5,0-0.9-0.4-0.9-0.9
		c0-0.5,0.4-0.9,0.9-0.9s0.9,0.4,0.9,0.9C43.5,55.8,43.1,56.2,42.6,56.2z M42.6,61.1c-0.5,0-0.9-0.4-0.9-0.9c0-0.5,0.4-0.9,0.9-0.9
		s0.9,0.4,0.9,0.9C43.5,60.7,43.1,61.1,42.6,61.1z"/>
</g>
</svg>
