<?xml version="1.0" encoding="utf-8"?>
<!-- Generator: Adobe Illustrator 18.1.1, SVG Export Plug-In . SVG Version: 6.00 Build 0)  -->
<!DOCTYPE svg PUBLIC "-//W3C//DTD SVG 1.1//EN" "http://www.w3.org/Graphics/SVG/1.1/DTD/svg11.dtd">
<svg version="1.1" id="Layer_1" xmlns="http://www.w3.org/2000/svg" xmlns:xlink="http://www.w3.org/1999/xlink" x="0px" y="0px"
	 width="100px" height="100px" viewBox="0 0 100 100" enable-background="new 0 0 100 100" xml:space="preserve">
<g>
	<circle fill="#FCB61E" cx="50.1" cy="50.1" r="32.6"/>
	<path fill="#020202" d="M50.1,83.7c-18.5,0-33.6-15.1-33.6-33.6c0-18.5,15.1-33.6,33.6-33.6s33.6,15.1,33.6,33.6
		C83.7,68.6,68.7,83.7,50.1,83.7z M50.1,18.4c-17.4,0-31.6,14.2-31.6,31.6s14.2,31.6,31.6,31.6c17.4,0,31.6-14.2,31.6-31.6
		S67.6,18.4,50.1,18.4z"/>
</g>
<g>
	<g>
		<g>
			<path fill="#EFEFEF" d="M45.9,64.7c0.2,0.6-0.1,1.2-0.6,1.4l-2.2,0.8c-0.5,0.2-1.1-0.1-1.3-0.7l-3.5-9.6
				c-0.2-0.6,0.1-1.2,0.6-1.4l2.2-0.8c0.5-0.2,1.1,0.1,1.3,0.7L45.9,64.7z"/>
			<path fill="#020202" d="M42.8,67.9c-0.9,0-1.6-0.6-1.9-1.4l-3.5-9.6c-0.2-0.5-0.2-1.1,0-1.6c0.2-0.5,0.6-0.9,1.1-1.1l2.2-0.8
				c1-0.4,2.2,0.2,2.6,1.3l3.5,9.6c0.2,0.5,0.2,1.1,0,1.6c-0.2,0.5-0.6,0.9-1.1,1.1l-2.2,0.8C43.2,67.8,43,67.9,42.8,67.9z
				 M41.4,55.4l-2.2,0.7l3.6,9.7l2.2-0.8L41.4,55.4z"/>
		</g>
		<g>
			<path fill="#EFEFEF" d="M35.2,44.5h-4.1c-1.1,0-2.1,0.9-2.1,2.1v6c0,1.1,0.9,2.1,2.1,2.1h4.1V44.5z"/>
			<path fill="#020202" d="M35.2,55.6h-4.1c-1.7,0-3.1-1.4-3.1-3.1v-6c0-1.7,1.4-3.1,3.1-3.1h4.1c0.6,0,1,0.4,1,1v10.1
				C36.2,55.2,35.7,55.6,35.2,55.6z M31.1,45.5c-0.6,0-1.1,0.5-1.1,1.1v6c0,0.6,0.5,1.1,1.1,1.1h3.1v-8.1H31.1z"/>
		</g>
		<g>
			<path fill="#EFEFEF" d="M57.3,61.4c0,0.8-0.8,1.4-1.7,1.4l0,0c-1,0-1.7-0.6-1.7-1.4V37.9c0-0.8,0.8-1.4,1.7-1.4l0,0
				c1,0,1.7,0.6,1.7,1.4V61.4z"/>
			<path fill="#020202" d="M55.6,63.8c-1.5,0-2.7-1.1-2.7-2.4V37.9c0-1.3,1.2-2.4,2.7-2.4c1.5,0,2.7,1.1,2.7,2.4v23.4
				C58.3,62.7,57.1,63.8,55.6,63.8z M55.6,37.6c-0.4,0-0.7,0.2-0.7,0.4v23.4c0,0.1,0.3,0.4,0.7,0.4s0.7-0.2,0.7-0.4V37.9
				C56.3,37.8,56,37.6,55.6,37.6z"/>
		</g>
		<g>
			<path fill="#EFEFEF" d="M58.5,47.4h-1.2v4.6h1.2c0.8,0,2.2-0.5,2.2-1v-2.5C60.7,47.9,59.3,47.4,58.5,47.4z"/>
			<path fill="#020202" d="M58.5,52.9h-1.2c-0.6,0-1-0.4-1-1v-4.6c0-0.6,0.4-1,1-1h1.2c1.1,0,3.2,0.6,3.2,2v2.5
				C61.7,52.4,59.6,52.9,58.5,52.9z M58.3,50.9h0.2c0.4,0,0.9-0.2,1.2-0.3v-1.9c-0.3-0.1-0.8-0.3-1.2-0.3h-0.2V50.9z"/>
		</g>
		<g>
			<path fill="#EFEFEF" d="M44.6,42.7L44.6,42.7l-7.2,0l-2.2,1.8v10.1l2.2,2h7.2v0c6.8,0.7,9.3,4.1,9.3,4.1v-22
				C50.6,42.5,44.6,42.7,44.6,42.7z"/>
			<path fill="#020202" d="M53.8,61.8c-0.3,0-0.6-0.1-0.8-0.4c0-0.1-2.4-3.1-8.6-3.7c0,0-0.1,0-0.1,0h-7c-0.2,0-0.5-0.1-0.7-0.3
				l-2.2-2c-0.2-0.2-0.3-0.5-0.3-0.7V44.5c0-0.3,0.1-0.6,0.4-0.8l2.2-1.8c0.2-0.1,0.4-0.2,0.6-0.2h7.2c0.1,0,0.1,0,0.2,0
				c1.1-0.1,5.8-0.6,8.3-3.6c0.3-0.3,0.7-0.4,1.1-0.3c0.4,0.1,0.7,0.5,0.7,0.9v22c0,0.4-0.3,0.8-0.7,1C54,61.8,53.9,61.8,53.8,61.8z
				 M44.8,55.7c3.9,0.4,6.5,1.7,8,2.8V41c-3.5,2.5-8,2.7-8.3,2.7c-0.1,0-0.2,0-0.3,0h-6.5L36.2,45v9.2l1.6,1.4h6.8
				C44.7,55.6,44.8,55.6,44.8,55.7z"/>
		</g>
	</g>
	<g>
		<line fill="#EFEFEF" x1="66.1" y1="49.6" x2="71.7" y2="49.6"/>
		<path fill="#020202" d="M71.7,50.6h-5.6c-0.6,0-1-0.4-1-1s0.4-1,1-1h5.6c0.6,0,1,0.4,1,1S72.3,50.6,71.7,50.6z"/>
	</g>
	<g>
		<line fill="#EFEFEF" x1="64.9" y1="45.5" x2="68.9" y2="41.5"/>
		<path fill="#020202" d="M64.9,46.5c-0.3,0-0.5-0.1-0.7-0.3c-0.4-0.4-0.4-1,0-1.4l4-4c0.4-0.4,1-0.4,1.4,0s0.4,1,0,1.4l-4,4
			C65.4,46.4,65.2,46.5,64.9,46.5z"/>
	</g>
	<g>
		<line fill="#EFEFEF" x1="64.9" y1="53.6" x2="68.9" y2="57.6"/>
		<path fill="#020202" d="M68.9,58.6c-0.3,0-0.5-0.1-0.7-0.3l-4-4c-0.4-0.4-0.4-1,0-1.4s1-0.4,1.4,0l4,4c0.4,0.4,0.4,1,0,1.4
			C69.4,58.5,69.1,58.6,68.9,58.6z"/>
	</g>
</g>
</svg>
