<?xml version="1.0" encoding="utf-8"?>
<!-- Generator: Adobe Illustrator 18.1.1, SVG Export Plug-In . SVG Version: 6.00 Build 0)  -->
<!DOCTYPE svg PUBLIC "-//W3C//DTD SVG 1.1//EN" "http://www.w3.org/Graphics/SVG/1.1/DTD/svg11.dtd">
<svg version="1.1" id="Layer_1" xmlns="http://www.w3.org/2000/svg" xmlns:xlink="http://www.w3.org/1999/xlink" x="0px" y="0px"
	 width="100px" height="100px" viewBox="0 0 100 100" enable-background="new 0 0 100 100" xml:space="preserve">
<g>
	<polygon fill="#FCB61E" points="94.5,75.6 86.4,75.6 86.4,86.4 74.6,75.6 32.9,75.6 32.9,37.1 74.5,37.1 94.5,37.1 	"/>
</g>
<g>
	<path fill="#020202" d="M86.4,87.9c-0.4,0-0.7-0.1-1-0.4L74.1,77.1H32.9c-0.8,0-1.5-0.7-1.5-1.5v-6.4c0-0.8,0.7-1.5,1.5-1.5
		s1.5,0.7,1.5,1.5v4.9h40.3c0.4,0,0.7,0.1,1,0.4l9.2,8.5v-7.4c0-0.8,0.7-1.5,1.5-1.5H93V38.6H75.1c-0.8,0-1.5-0.7-1.5-1.5
		s0.7-1.5,1.5-1.5h19.4c0.8,0,1.5,0.7,1.5,1.5v38.5c0,0.8-0.7,1.5-1.5,1.5h-6.6v9.3c0,0.6-0.4,1.1-0.9,1.4
		C86.8,87.8,86.6,87.9,86.4,87.9z"/>
</g>
<g>
	<polygon fill="#BCD4DE" points="5.5,60.7 13.6,60.7 13.6,71.4 25.4,60.7 67.1,60.7 67.1,22.2 5.5,22.2 	"/>
	<path fill="#020202" d="M13.6,72.9c-0.2,0-0.4,0-0.6-0.1c-0.5-0.2-0.9-0.8-0.9-1.4v-9.3H5.5c-0.8,0-1.5-0.7-1.5-1.5V22.2
		c0-0.8,0.7-1.5,1.5-1.5h61.6c0.8,0,1.5,0.7,1.5,1.5v38.5c0,0.8-0.7,1.5-1.5,1.5H25.9L14.6,72.6C14.3,72.8,14,72.9,13.6,72.9z
		 M7,59.2h6.6c0.8,0,1.5,0.7,1.5,1.5V68l9.2-8.5c0.3-0.3,0.6-0.4,1-0.4h40.3V23.7H7V59.2z"/>
</g>
<g>
	<g>
		<path fill="#020202" d="M40.2,38.8c-0.2,0.3-0.5,0.6-0.8,1c-0.3,0.3-0.8,0.7-1.2,1.1c-0.4,0.4-0.8,0.7-1.1,1
			c-0.3,0.3-0.5,0.6-0.7,0.8c-0.2,0.4-0.3,0.9-0.3,1.4c0,0.4-0.1,0.7-0.4,1c-0.3,0.3-0.6,0.4-1.1,0.4c-1,0-1.5-0.5-1.5-1.5
			c0-0.9,0.1-1.6,0.4-2.2c0.3-0.7,1-1.4,1.9-2.1c0.9-0.7,1.5-1.3,1.8-1.6c0.4-0.5,0.7-1.1,0.7-1.8c0-1-0.3-1.7-0.9-2.2
			c-0.5-0.4-1.2-0.6-2-0.6c-1,0-2,0.4-2.8,1.1c-0.3,0.2-0.5,0.3-0.8,0.3c-0.4,0-0.8-0.1-1.1-0.4c-0.3-0.3-0.4-0.6-0.4-1
			c0-0.6,0.4-1.1,1.1-1.6c1.2-0.8,2.6-1.1,4.2-1.1c1.5,0,2.8,0.4,3.9,1.2c1.3,1,1.9,2.3,1.9,4.1C41.1,37.1,40.8,38,40.2,38.8z
			 M36.1,51c-0.4,0.4-0.8,0.6-1.4,0.6c-0.5,0-1-0.2-1.4-0.6c-0.4-0.4-0.6-0.8-0.6-1.4c0-0.5,0.2-1,0.6-1.4c0.4-0.4,0.8-0.6,1.4-0.6
			c0.5,0,1,0.2,1.4,0.6c0.4,0.4,0.6,0.8,0.6,1.4S36.4,50.6,36.1,51z"/>
	</g>
</g>
</svg>
