<?xml version="1.0" encoding="utf-8"?>
<!-- Generator: Adobe Illustrator 18.1.1, SVG Export Plug-In . SVG Version: 6.00 Build 0)  -->
<!DOCTYPE svg PUBLIC "-//W3C//DTD SVG 1.1//EN" "http://www.w3.org/Graphics/SVG/1.1/DTD/svg11.dtd">
<svg version="1.1" id="Layer_1" xmlns="http://www.w3.org/2000/svg" xmlns:xlink="http://www.w3.org/1999/xlink" x="0px" y="0px"
	 width="100px" height="100px" viewBox="0 0 100 100" enable-background="new 0 0 100 100" xml:space="preserve">
<g>
	<circle fill="#BCD4DE" cx="47.5" cy="40.9" r="25"/>
	<path fill="#020202" d="M47.5,67.5c-4.8,0-9.6-1.3-13.7-3.8c-6.1-3.7-10.3-9.5-12-16.4c-1.7-6.9-0.6-14,3.1-20.1
		c4.9-8,13.4-12.8,22.7-12.8c4.8,0,9.6,1.3,13.7,3.8c6.1,3.7,10.3,9.5,12,16.4s0.6,14-3.1,20.1C65.3,62.7,56.8,67.5,47.5,67.5z
		 M47.5,17.4c-8.3,0-15.9,4.2-20.2,11.4c-3.3,5.4-4.2,11.7-2.7,17.8s5.3,11.3,10.7,14.5c3.7,2.2,7.9,3.4,12.2,3.4
		c8.3,0,15.9-4.2,20.2-11.3c3.3-5.4,4.2-11.7,2.7-17.8c-1.5-6.1-5.3-11.3-10.7-14.5C56,18.5,51.8,17.4,47.5,17.4z"/>
</g>
<g>
	<path fill="#020202" d="M63.9,23.4c-0.3,0-0.5-0.1-0.8-0.2c-0.7-0.4-0.9-1.4-0.5-2.1l6.7-10.9c0.4-0.7,1.4-0.9,2.1-0.5
		c0.7,0.4,0.9,1.4,0.5,2.1l-6.7,10.9C64.9,23.1,64.4,23.4,63.9,23.4z"/>
</g>
<g>
	<path fill="#020202" d="M34.4,73.5c-0.3,0-0.5-0.1-0.7-0.2c-0.7-0.4-1-1.3-0.5-2l4-6.9c0.4-0.7,1.3-1,2-0.6c0.7,0.4,1,1.3,0.5,2
		l-4,6.9C35.4,73.2,34.9,73.5,34.4,73.5z"/>
</g>
<g>
	<path fill="#FCB61E" d="M36.2,18.6l1.1,3.3l0,4.1l10-3.7l5.5-0.8l2.5,3.3l-0.8,2.5l-5.4,4.5L47,37.1l2.1,4.8l-4.9-0.4l0.6,4
		l0.9,3.7l-7.4-0.5l-6-1l-1-5.8l-8.6-1.6C22.7,40.2,21.5,26.9,36.2,18.6"/>
	<path fill="#020202" d="M45.6,50.6c0,0-0.1,0-0.1,0l-7.4-0.5c0,0-0.1,0-0.1,0l-6-1c-0.6-0.1-1.1-0.6-1.2-1.2L30,43.1l-7.5-1.4
		c-0.7-0.1-1.2-0.7-1.2-1.3c-0.1-0.6-1.1-14.4,14.3-23.1c0.4-0.2,0.9-0.3,1.3-0.1c0.4,0.2,0.7,0.5,0.9,0.9l1.1,3.3
		c0,0.1,0.1,0.3,0.1,0.5l0,1.9l7.9-3c0.1,0,0.2-0.1,0.3-0.1l5.5-0.8c0.5-0.1,1.1,0.1,1.4,0.6l2.5,3.3c0.3,0.4,0.4,0.9,0.2,1.4
		l-0.8,2.5c-0.1,0.3-0.3,0.5-0.5,0.7l-5.1,4.2L48.6,37l1.8,4.3c0.2,0.5,0.1,1-0.2,1.5c-0.3,0.4-0.8,0.7-1.3,0.6l-3-0.3l0.3,2
		l0.8,3.4c0.1,0.2,0.1,0.4,0.1,0.6C47.1,50,46.5,50.6,45.6,50.6C45.6,50.6,45.6,50.6,45.6,50.6z M38.4,47.1l5.3,0.4l-0.4-1.7
		c0,0,0-0.1,0-0.1l-0.6-4c-0.1-0.5,0.1-0.9,0.4-1.3c0.3-0.3,0.8-0.5,1.2-0.5l2.4,0.2l-1.1-2.5c-0.1-0.3-0.2-0.7,0-1.1l1.9-5.4
		c0.1-0.3,0.2-0.5,0.5-0.7l5.1-4.2l0.4-1.3l-1.5-2l-4.4,0.6l-9.8,3.7c-0.5,0.2-1,0.1-1.4-0.2c-0.4-0.3-0.6-0.7-0.6-1.2l0-3.8
		l-0.4-1.3C25.5,27.2,24.3,35.9,24.2,39l7.4,1.3c0.6,0.1,1.1,0.6,1.2,1.2l0.8,4.8L38.4,47.1z"/>
</g>
<g>
	<polygon fill="#FCB61E" points="46,50.5 49.3,57.9 55.6,57.4 59.7,62.8 62.7,50.1 62.1,44.8 56.4,43 54.7,46.9 49,47.3 46.1,48.3 	
		"/>
	<path fill="#020202" d="M59.7,64.3c-0.5,0-0.9-0.2-1.2-0.6L54.9,59l-5.4,0.5c-0.6,0.1-1.2-0.3-1.5-0.9l-3.4-7.5
		c-0.1-0.2-0.1-0.5-0.1-0.7l0.2-2.2c0-0.6,0.4-1.1,1-1.3l2.9-1c0.1,0,0.3-0.1,0.4-0.1l4.8-0.3l1.4-3.1c0.3-0.7,1.1-1.1,1.8-0.8
		l5.7,1.9c0.6,0.2,1,0.7,1,1.2l0.6,5.3c0,0.2,0,0.3,0,0.5l-3,12.6c-0.1,0.6-0.6,1-1.1,1.1C59.9,64.3,59.8,64.3,59.7,64.3z
		 M55.6,55.9c0.5,0,0.9,0.2,1.2,0.6l2.2,2.9l2.2-9.3l-0.5-4.1l-3.5-1.1L56,47.5c-0.2,0.5-0.7,0.9-1.3,0.9l-5.5,0.4l-1.7,0.6
		l-0.1,0.8l2.8,6.2l5.2-0.4C55.5,55.9,55.5,55.9,55.6,55.9z"/>
</g>
<g>
	<path fill="#020202" d="M47.5,82.2c-0.8,0-1.5-0.7-1.5-1.5l0-4.9c0-0.8,0.7-1.5,1.5-1.5c0,0,0,0,0,0c0.8,0,1.5,0.7,1.5,1.5l0,4.9
		C49,81.5,48.3,82.2,47.5,82.2C47.5,82.2,47.5,82.2,47.5,82.2z"/>
</g>
<g>
	<path fill="#BCD4DE" d="M61.4,89.5c-2.5-5.2-7.8-8.8-13.9-8.8s-11.4,3.6-13.9,8.8H61.4z"/>
	<path fill="#020202" d="M61.4,91H33.6c-0.5,0-1-0.3-1.3-0.7c-0.3-0.4-0.3-1-0.1-1.5c2.9-5.9,8.7-9.6,15.3-9.6s12.4,3.7,15.3,9.6
		c0.2,0.5,0.2,1-0.1,1.5C62.4,90.7,61.9,91,61.4,91z M36.2,88h22.6c-2.6-3.6-6.7-5.8-11.3-5.8S38.8,84.4,36.2,88z"/>
</g>
<g>
	<path fill="#020202" d="M47.5,72.8c-3.5,0-7.1-0.6-10.6-1.8c-2.4-0.8-4.7-2-6.8-3.3c-0.7-0.4-0.9-1.4-0.4-2.1
		c0.4-0.7,1.4-0.9,2.1-0.4c1.9,1.2,4,2.2,6.1,3c15.1,5.3,31.7-2.6,37-17.7c4.8-13.5-0.9-28.3-13.5-35.1c-0.7-0.4-1-1.3-0.6-2
		c0.4-0.7,1.3-1,2-0.6C76.7,20.2,83,36.5,77.7,51.5C73.1,64.6,60.7,72.8,47.5,72.8z"/>
</g>
</svg>
