<?xml version="1.0" encoding="utf-8"?>
<!-- Generator: Adobe Illustrator 18.1.1, SVG Export Plug-In . SVG Version: 6.00 Build 0)  -->
<!DOCTYPE svg PUBLIC "-//W3C//DTD SVG 1.1//EN" "http://www.w3.org/Graphics/SVG/1.1/DTD/svg11.dtd">
<svg version="1.1" id="Layer_1" xmlns="http://www.w3.org/2000/svg" xmlns:xlink="http://www.w3.org/1999/xlink" x="0px" y="0px"
	 width="200px" height="200px" viewBox="0 0 200 200" enable-background="new 0 0 200 200" xml:space="preserve">
<g>
	<circle fill="#BCD4DE" cx="95.4" cy="103.1" r="61.1"/>
</g>
<g>
	<rect x="57.2" y="64.9" fill="#FFFFFF" width="76.3" height="76.3"/>
	<path fill="#020202" d="M133.5,142.7H57.2c-0.8,0-1.5-0.7-1.5-1.5V64.9c0-0.8,0.7-1.5,1.5-1.5h76.3c0.8,0,1.5,0.7,1.5,1.5v76.3
		C135,142.1,134.3,142.7,133.5,142.7z M58.7,139.7H132V66.4H58.7V139.7z"/>
</g>
<g>
	<path fill="#020202" d="M49.5,77.6c-0.8,0-1.5-0.7-1.5-1.5V57.2c0-0.8,0.7-1.5,1.5-1.5h18.9c0.8,0,1.5,0.7,1.5,1.5
		s-0.7,1.5-1.5,1.5H51v17.4C51,76.9,50.3,77.6,49.5,77.6z"/>
</g>
<g>
	<path fill="#020202" d="M68.4,150.4H49.5c-0.8,0-1.5-0.7-1.5-1.5V130c0-0.8,0.7-1.5,1.5-1.5s1.5,0.7,1.5,1.5v17.4h17.4
		c0.8,0,1.5,0.7,1.5,1.5S69.2,150.4,68.4,150.4z"/>
</g>
<g>
	<path fill="#020202" d="M141.4,150.4h-18.9c-0.8,0-1.5-0.7-1.5-1.5s0.7-1.5,1.5-1.5h17.4V130c0-0.8,0.7-1.5,1.5-1.5
		s1.5,0.7,1.5,1.5v18.9C142.9,149.7,142.2,150.4,141.4,150.4z"/>
</g>
<g>
	<path fill="#020202" d="M141.4,77.6c-0.8,0-1.5-0.7-1.5-1.5V58.7h-17.4c-0.8,0-1.5-0.7-1.5-1.5s0.7-1.5,1.5-1.5h18.9
		c0.8,0,1.5,0.7,1.5,1.5v18.9C142.9,76.9,142.2,77.6,141.4,77.6z"/>
</g>
<g>
	<rect x="66" y="73.1" fill="#FFFFFF" width="10.4" height="10.4"/>
	<path fill="#020202" d="M76.4,85H66c-0.8,0-1.5-0.7-1.5-1.5V73.1c0-0.8,0.7-1.5,1.5-1.5h10.4c0.8,0,1.5,0.7,1.5,1.5v10.4
		C77.9,84.3,77.2,85,76.4,85z M67.5,82h7.4v-7.4h-7.4V82z"/>
</g>
<g>
	<rect x="116" y="123.3" fill="#FFFFFF" width="10.4" height="10.4"/>
	<path fill="#020202" d="M126.4,135.2H116c-0.8,0-1.5-0.7-1.5-1.5v-10.4c0-0.8,0.7-1.5,1.5-1.5h10.4c0.8,0,1.5,0.7,1.5,1.5v10.4
		C127.9,134.6,127.3,135.2,126.4,135.2z M117.5,132.2h7.4v-7.4h-7.4V132.2z"/>
</g>
<g>
	<rect x="72.8" y="116.6" fill="#FFFFFF" width="10.4" height="10.4"/>
	<path fill="#020202" d="M83.2,128.5H72.8c-0.8,0-1.5-0.7-1.5-1.5v-10.4c0-0.8,0.7-1.5,1.5-1.5h10.4c0.8,0,1.5,0.7,1.5,1.5V127
		C84.7,127.8,84,128.5,83.2,128.5z M74.3,125.5h7.4v-7.4h-7.4V125.5z"/>
</g>
<g>
	<path fill="#020202" d="M76.7,135.2H65.7c-0.8,0-1.5-0.7-1.5-1.5V91.4c0-0.8,0.7-1.5,1.5-1.5s1.5,0.7,1.5,1.5v40.8h9.4
		c0.8,0,1.5,0.7,1.5,1.5S77.5,135.2,76.7,135.2z"/>
</g>
<g>
	<path fill="#020202" d="M83.4,111.6H72.8c-0.8,0-1.5-0.7-1.5-1.5s0.7-1.5,1.5-1.5h10.7c0.8,0,1.5,0.7,1.5,1.5
		S84.2,111.6,83.4,111.6z"/>
</g>
<g>
	<path fill="#020202" d="M126.4,111.6H89.2c-0.8,0-1.5-0.7-1.5-1.5s0.7-1.5,1.5-1.5h37.2c0.8,0,1.5,0.7,1.5,1.5
		S127.3,111.6,126.4,111.6z"/>
</g>
<g>
	<path fill="#020202" d="M112.8,87.1c-0.8,0-1.5-0.7-1.5-1.5v-11H82.4c-0.8,0-1.5-0.7-1.5-1.5s0.7-1.5,1.5-1.5h30.4
		c0.8,0,1.5,0.7,1.5,1.5v12.5C114.3,86.5,113.6,87.1,112.8,87.1z"/>
</g>
<g>
	<path fill="#020202" d="M126.4,95.9c-0.8,0-1.5-0.7-1.5-1.5V73.1c0-0.8,0.7-1.5,1.5-1.5s1.5,0.7,1.5,1.5v21.3
		C127.9,95.3,127.3,95.9,126.4,95.9z"/>
</g>
<g>
	<path fill="#020202" d="M104.5,87.1H82.4c-0.8,0-1.5-0.7-1.5-1.5s0.7-1.5,1.5-1.5h22.1c0.8,0,1.5,0.7,1.5,1.5
		S105.3,87.1,104.5,87.1z"/>
</g>
<g>
	<path fill="#020202" d="M112.8,104.6h-40c-0.8,0-1.5-0.7-1.5-1.5s0.7-1.5,1.5-1.5h38.5V97c0-0.8,0.7-1.5,1.5-1.5s1.5,0.7,1.5,1.5
		v6.1C114.3,103.9,113.6,104.6,112.8,104.6z"/>
</g>
<g>
	<path fill="#020202" d="M109.8,125.9c-0.8,0-1.5-0.7-1.5-1.5v-6.4h-19c-0.8,0-1.5-0.7-1.5-1.5s0.7-1.5,1.5-1.5h20.5
		c0.8,0,1.5,0.7,1.5,1.5v7.9C111.3,125.3,110.6,125.9,109.8,125.9z"/>
</g>
<g>
	<path fill="#020202" d="M126.4,88.2h-7.7c-0.8,0-1.5-0.7-1.5-1.5s0.7-1.5,1.5-1.5h7.7c0.8,0,1.5,0.7,1.5,1.5S127.3,88.2,126.4,88.2
		z"/>
</g>
<g>
	<path fill="#020202" d="M126.4,94h-7.7c-0.8,0-1.5-0.7-1.5-1.5s0.7-1.5,1.5-1.5h7.7c0.8,0,1.5,0.7,1.5,1.5S127.3,94,126.4,94z"/>
</g>
<g>
	<polyline fill="#FFFFFF" points="72.8,91.4 79.1,91.4 79.1,98 	"/>
	<path fill="#020202" d="M79.1,99.5c-0.8,0-1.5-0.7-1.5-1.5v-5.1h-4.8c-0.8,0-1.5-0.7-1.5-1.5s0.7-1.5,1.5-1.5h6.3
		c0.8,0,1.5,0.7,1.5,1.5V98C80.6,98.9,79.9,99.5,79.1,99.5z"/>
</g>
<g>
	<line fill="#FFFFFF" x1="71.1" y1="78.3" x2="71.2" y2="78.3"/>
	<path fill="#020202" d="M71.2,79.8h-0.1c-0.8,0-1.5-0.7-1.5-1.5s0.7-1.5,1.5-1.5h0.1c0.8,0,1.5,0.7,1.5,1.5S72.1,79.8,71.2,79.8z"
		/>
</g>
<g>
	<line fill="#FFFFFF" x1="73.5" y1="96.3" x2="73.6" y2="96.3"/>
	<path fill="#020202" d="M73.6,97.8h-0.1c-0.8,0-1.5-0.7-1.5-1.5s0.7-1.5,1.5-1.5h0.1c0.8,0,1.5,0.7,1.5,1.5S74.5,97.8,73.6,97.8z"
		/>
</g>
<g>
	<line fill="#FFFFFF" x1="123.8" y1="105.3" x2="123.9" y2="105.3"/>
	<path fill="#020202" d="M123.9,106.8h-0.1c-0.8,0-1.5-0.7-1.5-1.5s0.7-1.5,1.5-1.5h0.1c0.8,0,1.5,0.7,1.5,1.5
		S124.7,106.8,123.9,106.8z"/>
</g>
<g>
	<line fill="#FFFFFF" x1="85.1" y1="79.7" x2="85.2" y2="79.7"/>
	<path fill="#020202" d="M85.2,81.2h-0.1c-0.8,0-1.5-0.7-1.5-1.5s0.7-1.5,1.5-1.5h0.1c0.8,0,1.5,0.7,1.5,1.5S86,81.2,85.2,81.2z"/>
</g>
<g>
	<line fill="#FFFFFF" x1="77.8" y1="121.8" x2="78" y2="121.8"/>
	<path fill="#020202" d="M78,123.3h-0.1c-0.8,0-1.5-0.7-1.5-1.5s0.7-1.5,1.5-1.5H78c0.8,0,1.5,0.7,1.5,1.5S78.8,123.3,78,123.3z"/>
</g>
<g>
	<line fill="#FFFFFF" x1="121.1" y1="128.5" x2="121.2" y2="128.5"/>
	<path fill="#020202" d="M121.2,130h-0.1c-0.8,0-1.5-0.7-1.5-1.5s0.7-1.5,1.5-1.5h0.1c0.8,0,1.5,0.7,1.5,1.5S122.1,130,121.2,130z"
		/>
</g>
<g>
	<line fill="#FFFFFF" x1="84.4" y1="103.1" x2="84.4" y2="97.2"/>
	<path fill="#020202" d="M84.4,104.6c-0.8,0-1.5-0.7-1.5-1.5v-5.8c0-0.8,0.7-1.5,1.5-1.5s1.5,0.7,1.5,1.5v5.8
		C85.9,103.9,85.2,104.6,84.4,104.6z"/>
</g>
<g>
	<line fill="#FFFFFF" x1="97" y1="118" x2="97" y2="133.7"/>
	<path fill="#020202" d="M97,135.2c-0.8,0-1.5-0.7-1.5-1.5V118c0-0.8,0.7-1.5,1.5-1.5s1.5,0.7,1.5,1.5v15.7
		C98.5,134.6,97.8,135.2,97,135.2z"/>
</g>
<g>
	<path fill="#020202" d="M118.6,111.6c-0.8,0-1.5-0.7-1.5-1.5v-9.5c0-0.8,0.7-1.5,1.5-1.5h7.9c0.8,0,1.5,0.7,1.5,1.5
		s-0.7,1.5-1.5,1.5h-6.4v8C120.1,110.9,119.4,111.6,118.6,111.6z"/>
</g>
<g>
	<polyline fill="#FFFFFF" points="82.4,133.7 91.1,133.7 91.1,121.8 	"/>
	<path fill="#020202" d="M91.1,135.2h-8.7c-0.8,0-1.5-0.7-1.5-1.5s0.7-1.5,1.5-1.5h7.2v-10.5c0-0.8,0.7-1.5,1.5-1.5s1.5,0.7,1.5,1.5
		v12C92.6,134.6,91.9,135.2,91.1,135.2z"/>
</g>
<g>
	<line fill="#FFFFFF" x1="103" y1="121.8" x2="103" y2="133.7"/>
	<path fill="#020202" d="M103,135.2c-0.8,0-1.5-0.7-1.5-1.5v-12c0-0.8,0.7-1.5,1.5-1.5s1.5,0.7,1.5,1.5v12
		C104.5,134.6,103.8,135.2,103,135.2z"/>
</g>
<g>
	<line fill="#FFFFFF" x1="103.7" y1="129.8" x2="109.8" y2="129.8"/>
	<path fill="#020202" d="M109.8,131.3h-6.1c-0.8,0-1.5-0.7-1.5-1.5s0.7-1.5,1.5-1.5h6.1c0.8,0,1.5,0.7,1.5,1.5
		S110.6,131.3,109.8,131.3z"/>
</g>
<g>
	<path fill="#020202" d="M91.5,86.9c-0.8,0-1.5-0.7-1.5-1.5v-5.6c0-0.8,0.7-1.5,1.5-1.5h12.2c0.8,0,1.5,0.7,1.5,1.5
		s-0.7,1.5-1.5,1.5H93v4.1C93,86.2,92.3,86.9,91.5,86.9z"/>
</g>
<g>
	<path fill="#020202" d="M112.8,92.9H84.7c-0.8,0-1.5-0.7-1.5-1.5s0.7-1.5,1.5-1.5h28.1c0.8,0,1.5,0.7,1.5,1.5
		S113.6,92.9,112.8,92.9z"/>
</g>
<g>
	<path fill="#020202" d="M90.9,103.7c-0.8,0-1.5-0.7-1.5-1.5v-4.8c0-0.8,0.7-1.5,1.5-1.5h16.2c0.8,0,1.5,0.7,1.5,1.5
		s-0.7,1.5-1.5,1.5H92.4v3.3C92.4,103.1,91.7,103.7,90.9,103.7z"/>
</g>
<g>
	<path fill="#020202" d="M126.4,118.1H116c-0.8,0-1.5-0.7-1.5-1.5s0.7-1.5,1.5-1.5h10.4c0.8,0,1.5,0.7,1.5,1.5
		S127.3,118.1,126.4,118.1z"/>
</g>
<g>
	<path fill="#020202" d="M118.7,82.8c-0.8,0-1.5-0.7-1.5-1.5v-8.2c0-0.8,0.7-1.5,1.5-1.5s1.5,0.7,1.5,1.5v8.2
		C120.2,82.1,119.5,82.8,118.7,82.8z"/>
</g>
</svg>
