<?xml version="1.0" encoding="utf-8"?>
<!-- Generator: Adobe Illustrator 18.1.1, SVG Export Plug-In . SVG Version: 6.00 Build 0)  -->
<!DOCTYPE svg PUBLIC "-//W3C//DTD SVG 1.1//EN" "http://www.w3.org/Graphics/SVG/1.1/DTD/svg11.dtd">
<svg version="1.1" id="Layer_1" xmlns="http://www.w3.org/2000/svg" xmlns:xlink="http://www.w3.org/1999/xlink" x="0px" y="0px"
	 width="100px" height="100px" viewBox="0 0 100 100" enable-background="new 0 0 100 100" xml:space="preserve">
<g>
	<polygon fill="#BCD4DE" points="50,82.7 4.4,58.2 50,40 95.6,58.2 	"/>
</g>
<g>
	<path fill="#020202" d="M50,84.2c-0.2,0-0.5-0.1-0.7-0.2L3.7,59.5c-0.5-0.3-0.8-0.8-0.8-1.4s0.4-1.1,0.9-1.3l25-10
		c0.8-0.3,1.6,0.1,1.9,0.8c0.3,0.8-0.1,1.6-0.8,1.9l-22,8.8L50,81l42.1-22.6l-25-10c-0.8-0.3-1.1-1.2-0.8-1.9
		c0.3-0.8,1.2-1.1,1.9-0.8l28,11.2c0.5,0.2,0.9,0.7,0.9,1.3c0,0.6-0.3,1.1-0.8,1.4L50.7,84C50.5,84.1,50.2,84.2,50,84.2z"/>
</g>
<g>
	<path fill="#FCB61E" d="M50,17.3c-8.1,0-14.7,6.6-14.7,14.7C35.3,42.6,50,60.8,50,60.8s14.7-18,14.7-28.8
		C64.7,23.9,58.1,17.3,50,17.3z M50,38c-2.7,0-4.9-2.2-4.9-4.9s2.2-4.9,4.9-4.9s4.9,2.2,4.9,4.9S52.7,38,50,38z"/>
	<path fill="#020202" d="M50,62.2C50,62.2,50,62.2,50,62.2c-0.5,0-0.9-0.2-1.2-0.6c-0.6-0.8-15-18.7-15-29.8
		c0-8.9,7.2-16.2,16.2-16.2c8.9,0,16.2,7.2,16.2,16.2c0,11.3-14.4,29-15,29.8C50.9,62,50.5,62.2,50,62.2z M50,18.8
		c-7.3,0-13.2,5.9-13.2,13.2c0,8.3,9.7,21.9,13.2,26.4c3.4-4.5,13.1-17.9,13.1-26.4C63.2,24.7,57.3,18.8,50,18.8z M50,39.5
		c-3.5,0-6.4-2.9-6.4-6.4s2.9-6.4,6.4-6.4c3.5,0,6.4,2.9,6.4,6.4S53.5,39.5,50,39.5z M50,29.7c-1.9,0-3.4,1.5-3.4,3.4
		s1.5,3.4,3.4,3.4c1.9,0,3.4-1.5,3.4-3.4S51.9,29.7,50,29.7z"/>
</g>
</svg>
