<?xml version="1.0" encoding="utf-8"?>
<!-- Generator: Adobe Illustrator 18.1.1, SVG Export Plug-In . SVG Version: 6.00 Build 0)  -->
<!DOCTYPE svg PUBLIC "-//W3C//DTD SVG 1.1//EN" "http://www.w3.org/Graphics/SVG/1.1/DTD/svg11.dtd">
<svg version="1.1" id="Layer_1" xmlns="http://www.w3.org/2000/svg" xmlns:xlink="http://www.w3.org/1999/xlink" x="0px" y="0px"
	 width="100px" height="100px" viewBox="0 0 100 100" enable-background="new 0 0 100 100" xml:space="preserve">
<g>
	<circle fill="#FCB61E" cx="49.8" cy="50.7" r="24.2"/>
</g>
<g>
	<path fill="#020202" d="M28.2,62.4c-0.4,0-0.7-0.2-0.9-0.6c-1.8-3.5-2.6-7.3-2.6-11.2c0-13.9,11.3-25.2,25.2-25.2
		c13.9,0,25.2,11.3,25.2,25.2c0,3.6-0.7,7.1-2.2,10.3c-0.2,0.5-0.8,0.7-1.3,0.5c-0.5-0.2-0.7-0.8-0.5-1.3c1.3-3,2-6.2,2-9.5
		c0-12.8-10.4-23.2-23.2-23.2c-12.8,0-23.2,10.4-23.2,23.2c0,3.6,0.8,7.1,2.4,10.3c0.2,0.5,0,1.1-0.4,1.3
		C28.5,62.4,28.3,62.4,28.2,62.4z"/>
</g>
<g>
	<path fill="#FFFFFF" d="M49.8,59.5c-6.7,0-12.7,2.9-16.9,7.5c4.2,4.6,10.2,7.5,16.9,7.5c6.7,0,12.7-2.9,16.9-7.5
		C62.5,62.4,56.5,59.5,49.8,59.5z"/>
	<path fill="#020202" d="M49.8,75.5c-6.7,0-13.1-2.9-17.6-7.9c-0.3-0.4-0.3-1,0-1.3c4.5-5,10.9-7.9,17.6-7.9
		c6.7,0,13.1,2.9,17.6,7.9c0.3,0.4,0.3,1,0,1.3C62.9,72.7,56.5,75.5,49.8,75.5z M34.2,67c4.1,4.2,9.7,6.5,15.5,6.5
		c5.8,0,11.5-2.4,15.5-6.5c-4.1-4.2-9.7-6.5-15.5-6.5C43.9,60.5,38.3,62.8,34.2,67z"/>
</g>
<g>
	<circle fill="#ECEFF0" cx="49.8" cy="47" r="9"/>
	<path fill="#020202" d="M49.8,57c-5.5,0-10-4.5-10-10s4.5-10,10-10c5.5,0,10,4.5,10,10S55.3,57,49.8,57z M49.8,39c-4.4,0-8,3.6-8,8
		c0,4.4,3.6,8,8,8s8-3.6,8-8C57.8,42.6,54.2,39,49.8,39z"/>
</g>
</svg>
