<?xml version="1.0" encoding="utf-8"?>
<!-- Generator: Adobe Illustrator 18.1.1, SVG Export Plug-In . SVG Version: 6.00 Build 0)  -->
<!DOCTYPE svg PUBLIC "-//W3C//DTD SVG 1.1//EN" "http://www.w3.org/Graphics/SVG/1.1/DTD/svg11.dtd">
<svg version="1.1" id="Layer_1" xmlns="http://www.w3.org/2000/svg" xmlns:xlink="http://www.w3.org/1999/xlink" x="0px" y="0px"
	 width="100px" height="100px" viewBox="0 0 100 100" enable-background="new 0 0 100 100" xml:space="preserve">
<g>
	<path fill="#BCD4DE" d="M21.5,18.5v54.4c0,4.4-1.9,8.7-5.2,11.6L16,84.9H85v0c3.8,0,6.9-3.1,6.9-6.9v-2.8V31.7V18.5H21.5z"/>
	<path fill="#020202" d="M85,86.4H16c-0.6,0-1.2-0.4-1.4-1c-0.2-0.6-0.1-1.2,0.4-1.7l0.4-0.3c3-2.7,4.7-6.5,4.7-10.5V18.5
		c0-0.8,0.7-1.5,1.5-1.5H92c0.8,0,1.5,0.7,1.5,1.5v59.4C93.5,82.6,89.7,86.4,85,86.4z M19.5,83.4H85c3,0,5.4-2.4,5.4-5.4V20H23v52.9
		C23,76.7,21.7,80.4,19.5,83.4z"/>
</g>
<g>
	<path fill="#BCD4DE" d="M16.5,84.9H15c-2.8,0-5-2.2-5-5V31.7h11.5v48.1C21.5,82.6,19.3,84.9,16.5,84.9z"/>
</g>
<g>
	<path fill="#020202" d="M15.8,86.4c-4,0-7.2-3.2-7.2-7.2V31.7c0-0.8,0.7-1.5,1.5-1.5h4.1c0.8,0,1.5,0.7,1.5,1.5s-0.7,1.5-1.5,1.5
		h-2.6v45.9c0,2.3,1.9,4.2,4.2,4.2s4.2-1.9,4.2-4.2V31.7c0-0.8,0.7-1.5,1.5-1.5s1.5,0.7,1.5,1.5v47.4C23,83.1,19.8,86.4,15.8,86.4z"
		/>
</g>
<g>
	<rect x="29.9" y="28.2" fill="#FCB61E" width="54.8" height="12.6"/>
	<path fill="#020202" d="M84.7,42.4H29.9c-0.8,0-1.5-0.7-1.5-1.5V28.2c0-0.8,0.7-1.5,1.5-1.5h54.8c0.8,0,1.5,0.7,1.5,1.5v12.6
		C86.2,41.7,85.5,42.4,84.7,42.4z M31.4,39.4h51.8v-9.6H31.4V39.4z"/>
</g>
<g>
	<rect x="29.9" y="50.7" fill="#FFFFFF" width="27.4" height="21.5"/>
	<path fill="#020202" d="M57.3,73.8H29.9c-0.8,0-1.5-0.7-1.5-1.5V50.7c0-0.8,0.7-1.5,1.5-1.5h27.4c0.8,0,1.5,0.7,1.5,1.5v21.5
		C58.8,73.1,58.1,73.8,57.3,73.8z M31.4,70.8h24.4V52.2H31.4V70.8z"/>
</g>
<g>
	<line fill="#FFFFFF" x1="65.2" y1="50.7" x2="84.7" y2="50.7"/>
	<path fill="#020202" d="M84.7,52.2H65.2c-0.8,0-1.5-0.7-1.5-1.5c0-0.8,0.7-1.5,1.5-1.5h19.6c0.8,0,1.5,0.7,1.5,1.5
		C86.2,51.5,85.5,52.2,84.7,52.2z"/>
</g>
<g>
	<line fill="#FFFFFF" x1="65.2" y1="57.9" x2="84.7" y2="57.9"/>
	<path fill="#020202" d="M84.7,59.4H65.2c-0.8,0-1.5-0.7-1.5-1.5s0.7-1.5,1.5-1.5h19.6c0.8,0,1.5,0.7,1.5,1.5S85.5,59.4,84.7,59.4z"
		/>
</g>
<g>
	<line fill="#FFFFFF" x1="65.2" y1="65.1" x2="84.7" y2="65.1"/>
	<path fill="#020202" d="M84.7,66.6H65.2c-0.8,0-1.5-0.7-1.5-1.5s0.7-1.5,1.5-1.5h19.6c0.8,0,1.5,0.7,1.5,1.5S85.5,66.6,84.7,66.6z"
		/>
</g>
<g>
	<line fill="#FFFFFF" x1="65.2" y1="72.3" x2="84.7" y2="72.3"/>
	<path fill="#020202" d="M84.7,73.8H65.2c-0.8,0-1.5-0.7-1.5-1.5s0.7-1.5,1.5-1.5h19.6c0.8,0,1.5,0.7,1.5,1.5S85.5,73.8,84.7,73.8z"
		/>
</g>
</svg>
