<?xml version="1.0" encoding="utf-8"?>
<!-- Generator: Adobe Illustrator 18.1.1, SVG Export Plug-In . SVG Version: 6.00 Build 0)  -->
<!DOCTYPE svg PUBLIC "-//W3C//DTD SVG 1.1//EN" "http://www.w3.org/Graphics/SVG/1.1/DTD/svg11.dtd">
<svg version="1.1" id="Layer_1" xmlns="http://www.w3.org/2000/svg" xmlns:xlink="http://www.w3.org/1999/xlink" x="0px" y="0px"
	 width="100px" height="100px" viewBox="0 0 100 100" enable-background="new 0 0 100 100" xml:space="preserve">
<g>
	<g>
		<rect x="13.1" y="7.8" fill="#BCD4DE" width="66.5" height="62.6"/>
	</g>
	<g>
		<path fill="#020202" d="M37.6,72H13.1c-0.9,0-1.6-0.7-1.6-1.6V7.8c0-0.9,0.7-1.6,1.6-1.6h66.5c0.9,0,1.6,0.7,1.6,1.6v37.3
			c0,0.9-0.7,1.6-1.6,1.6c-0.9,0-1.6-0.7-1.6-1.6V9.4H14.7v59.4h22.9c0.9,0,1.6,0.7,1.6,1.6C39.2,71.3,38.5,72,37.6,72z"/>
	</g>
	<g>
		<rect x="23.1" y="18.2" fill="#FCB61E" width="46.6" height="12.6"/>
		<path fill="#020202" d="M69.6,32.4H23.1c-0.9,0-1.6-0.7-1.6-1.6V18.2c0-0.9,0.7-1.6,1.6-1.6h46.6c0.9,0,1.6,0.7,1.6,1.6v12.6
			C71.2,31.7,70.5,32.4,69.6,32.4z M24.7,29.2H68v-9.4H24.7V29.2z"/>
	</g>
	<g>
		<line fill="#FCB61E" x1="24.3" y1="44.3" x2="51" y2="44.3"/>
		<path fill="#020202" d="M51,45.9H24.3c-0.9,0-1.6-0.7-1.6-1.6c0-0.9,0.7-1.6,1.6-1.6H51c0.9,0,1.6,0.7,1.6,1.6
			C52.6,45.2,51.9,45.9,51,45.9z"/>
	</g>
	<g>
		<line fill="#FCB61E" x1="24.3" y1="54" x2="33.4" y2="54"/>
		<path fill="#020202" d="M33.4,55.6h-9.1c-0.9,0-1.6-0.7-1.6-1.6c0-0.9,0.7-1.6,1.6-1.6h9.1c0.9,0,1.6,0.7,1.6,1.6
			C35,54.9,34.2,55.6,33.4,55.6z"/>
	</g>
	<g>
		<line fill="#FCB61E" x1="39.8" y1="54" x2="48.9" y2="54"/>
		<path fill="#020202" d="M48.9,55.6h-9.1c-0.9,0-1.6-0.7-1.6-1.6c0-0.9,0.7-1.6,1.6-1.6h9.1c0.9,0,1.6,0.7,1.6,1.6
			C50.5,54.9,49.8,55.6,48.9,55.6z"/>
	</g>
	<g>
		<path fill="#ECEFF0" d="M86.5,71.5L86.5,71.5l-0.1-9.6c0-2-1.4-3.6-3-3.5c-1.6,0-3,1.5-3,5.6l0-5.4c0-2.2-1.6-4.1-3.6-4.1
			c-2,0-3.6,1.8-3.6,4.1v3.8l0-7.4c0-2.2-1.6-4.1-3.6-4.1c-2,0-3.6,1.8-3.6,4.1l0,7.6V44.1c0-2.2-1.6-4.1-3.6-4.1
			c-2,0-3.6,1.8-3.6,4.1c0,0,0,23.3,0,23.4c-0.3,2.3-1.6,2.6-3.8,1.8c-2.7-0.9-7.7-3.1-8.7-2.2c-2,2,0.7,5.4,3.9,8l10.3,11
			c2.7,3.9,4.5,5.5,9.2,6c0.2,0,0.5,0.1,0.7,0.1c0.8,0.1,1.7,0.1,2.5,0.1c2.3,0,12,1,13.6-19.4C86.5,72.4,86.5,72,86.5,71.5z"/>
		<path fill="#020202" d="M73.6,93.8L73.6,93.8l-0.8,0c-0.9,0-1.8,0-2.6-0.1c-0.2,0-0.5,0-0.8-0.1c-5.3-0.5-7.4-2.4-10.3-6.5
			L49.1,76.3c-1.9-1.5-5-4.4-5.1-7.3c-0.1-1.2,0.3-2.2,1.1-3c0.5-0.5,1.1-0.7,2-0.7c1.6,0,4,0.9,6.4,1.8c0.7,0.3,1.4,0.5,2,0.7
			c0.6,0.2,1,0.3,1.3,0.3c0.1,0,0.2,0,0.2,0c0,0,0.1-0.2,0.2-0.7c0-1.7,0-23.2,0-23.2c0-3.1,2.3-5.6,5.2-5.6c2.9,0,5.2,2.5,5.2,5.6
			v5.7c0.6-0.3,1.3-0.5,2.1-0.5c2.4,0,4.4,1.7,5,4.1c0.7-0.4,1.4-0.6,2.3-0.6c2.4,0,4.5,1.8,5,4.2c0.6-0.2,1.1-0.3,1.5-0.3
			c2.5,0,4.6,2.3,4.6,5.1l0.1,9.4c0,0.1,0,0.2,0,0.3c0,0.1,0,0.2,0,0.3c0,0.4,0,0.8-0.1,1.2C86.7,90.2,79.4,93.8,73.6,93.8z
			 M47.2,68.5c0,0.1-0.1,0.2-0.1,0.4c0.1,1,1.3,2.9,4,5.1c0.1,0,0.1,0.1,0.2,0.2l10.3,11c0.1,0.1,0.1,0.1,0.2,0.2
			c2.6,3.7,3.9,4.9,8.1,5.3c0.2,0,0.4,0,0.6,0c0.9,0.1,1.7,0.1,2.5,0.1l0.8,0c6.5,0,10.3-6,11.2-18c0-0.4,0.1-0.7,0-1
			c0-0.1,0-0.1,0-0.2l-0.1-9.5c0-1.1-0.7-2-1.4-2c-1,0-1.4,2-1.4,3.9c0,0,0,0,0,0.1l0,0c0,0,0,0,0,0l0,0c0,0,0,0,0,0v0c0,0,0,0,0,0
			c0,0,0,0,0,0c0,0,0,0,0,0v0c0,0,0,0,0,0c0,0,0,0,0,0l0,0c0,0,0,0,0,0l0,0c0,0.8-0.7,1.5-1.5,1.5l0,0c0,0,0,0,0,0h0c0,0,0,0,0,0
			c0,0,0,0,0,0h0c0,0,0,0,0,0l0,0c0,0,0,0,0,0c0,0,0,0,0,0h0c0,0,0,0,0,0c0,0,0,0,0,0l0,0c0,0,0,0,0,0h0c0,0,0,0,0,0l0,0
			c0,0,0,0,0,0c0,0,0,0,0,0c0,0,0,0,0,0l0,0c0,0,0,0,0,0l0,0c0,0,0,0,0,0l0,0c0,0,0,0,0,0h0h0h0c0,0,0,0,0,0h0c0,0,0,0,0,0l0,0
			c0,0,0,0,0,0c0,0,0,0,0,0l0,0c0,0,0,0,0,0c0,0,0,0,0,0c0,0,0,0,0,0c0,0,0,0,0,0h0h0c0,0,0,0,0,0c0,0,0,0,0,0h0c0,0,0,0,0,0l0,0
			c0,0,0,0,0,0l0,0c0,0,0,0,0,0c0,0,0,0,0,0c0,0,0,0,0,0h0h0c0,0,0,0,0,0c0,0,0,0,0,0l0,0c0,0,0,0,0,0h0c0,0,0,0,0,0l0,0
			c0,0,0,0,0,0l0,0c0,0,0,0,0,0c0,0,0,0,0,0c0,0,0,0,0,0l0,0c0,0,0,0,0,0h0c0,0,0,0,0,0l0,0c0,0,0,0,0,0s0,0,0,0c0,0,0,0,0,0v0
			c0,0,0,0,0,0l0,0c-0.7-0.1-1.3-0.5-1.4-1.2c0,0,0,0,0,0s0,0,0,0l0,0c0,0,0,0,0,0c0,0,0,0,0,0v0c0,0,0,0,0,0c0,0,0,0,0,0
			c0,0,0,0,0,0l0,0c0,0,0,0,0,0s0,0,0,0c0-0.1,0-0.2,0-0.3c0,0,0,0,0,0l0-5.4c0-1.4-0.9-2.5-2-2.5c-1.1,0-2,1.1-2,2.5v3.8
			c0,0.9-0.7,1.6-1.6,1.6c0,0,0,0,0,0c-0.9,0-1.6-0.7-1.6-1.6l0-7.4c0-1.4-0.9-2.5-2-2.5c-1.1,0-2,1.1-2,2.5l0,7.6
			c0,0.9-0.7,1.6-1.6,1.6c0,0,0,0,0,0c-0.9,0-1.6-0.7-1.6-1.6V44.1c0-1.4-0.9-2.5-2-2.5c-1.1,0-2,1.1-2,2.5c0,23.4,0,23.4,0,23.5
			c-0.4,3.1-2.4,3.6-3.5,3.6c-0.7,0-1.4-0.1-2.3-0.5c-0.6-0.2-1.3-0.5-2.1-0.7C50.6,69.4,48.3,68.5,47.2,68.5z"/>
	</g>
</g>
</svg>
