<?xml version="1.0" encoding="utf-8"?>
<!-- Generator: Adobe Illustrator 18.1.1, SVG Export Plug-In . SVG Version: 6.00 Build 0)  -->
<!DOCTYPE svg PUBLIC "-//W3C//DTD SVG 1.1//EN" "http://www.w3.org/Graphics/SVG/1.1/DTD/svg11.dtd">
<svg version="1.1" id="Layer_1" xmlns="http://www.w3.org/2000/svg" xmlns:xlink="http://www.w3.org/1999/xlink" x="0px" y="0px"
	 width="100px" height="100px" viewBox="0 0 100 100" enable-background="new 0 0 100 100" xml:space="preserve">
<g>
	<circle fill="#FCB61E" cx="48.3" cy="25.8" r="17.1"/>
	<path fill="#020202" d="M48.3,44.4c-10.2,0-18.6-8.3-18.6-18.6c0-10.2,8.3-18.6,18.6-18.6s18.6,8.3,18.6,18.6
		C66.9,36.1,58.6,44.4,48.3,44.4z M48.3,10.3c-8.6,0-15.6,7-15.6,15.6c0,8.6,7,15.6,15.6,15.6s15.6-7,15.6-15.6
		C63.9,17.3,56.9,10.3,48.3,10.3z"/>
</g>
<g>
	<circle fill="#ECEFF0" cx="79.7" cy="72.2" r="17.1"/>
	<path fill="#020202" d="M79.7,90.7c-10.2,0-18.6-8.3-18.6-18.6c0-10.2,8.3-18.6,18.6-18.6c10.2,0,18.6,8.3,18.6,18.6
		C98.2,82.4,89.9,90.7,79.7,90.7z M79.7,56.6c-8.6,0-15.6,7-15.6,15.6c0,8.6,7,15.6,15.6,15.6c8.6,0,15.6-7,15.6-15.6
		C95.2,63.6,88.2,56.6,79.7,56.6z"/>
</g>
<g>
	<circle fill="#BCD4DE" cx="20.3" cy="72.2" r="17.1"/>
	<path fill="#020202" d="M20.3,90.7c-10.2,0-18.6-8.3-18.6-18.6c0-10.2,8.3-18.6,18.6-18.6c10.2,0,18.6,8.3,18.6,18.6
		C38.9,82.4,30.6,90.7,20.3,90.7z M20.3,56.6c-8.6,0-15.6,7-15.6,15.6c0,8.6,7,15.6,15.6,15.6c8.6,0,15.6-7,15.6-15.6
		C35.9,63.6,28.9,56.6,20.3,56.6z"/>
</g>
<g>
	<circle fill="#ECEFF0" cx="48.3" cy="21.5" r="4.4"/>
	<path fill="#020202" d="M48.3,27.3c-3.2,0-5.9-2.6-5.9-5.9c0-3.2,2.6-5.9,5.9-5.9c3.2,0,5.9,2.6,5.9,5.9
		C54.2,24.7,51.6,27.3,48.3,27.3z M48.3,18.6c-1.6,0-2.9,1.3-2.9,2.9c0,1.6,1.3,2.9,2.9,2.9c1.6,0,2.9-1.3,2.9-2.9
		C51.2,19.9,49.9,18.6,48.3,18.6z"/>
</g>
<g>
	<polygon fill="#BCD4DE" points="56,34.5 56,29.1 48.3,26 48.3,26 40.7,29.1 40.7,34.5 	"/>
	<path fill="#020202" d="M56,36H40.7c-0.8,0-1.5-0.7-1.5-1.5v-5.5c0-0.6,0.4-1.2,0.9-1.4l7.7-3c0.4-0.1,0.8-0.1,1.1,0l7.7,3
		c0.6,0.2,1,0.8,1,1.4v5.5C57.5,35.4,56.8,36,56,36z M42.2,33h12.4v-2.9l-6.2-2.4l-6.2,2.4V33z"/>
</g>
<g>
	<circle fill="#FCB61E" cx="20.3" cy="67.8" r="4.4"/>
	<path fill="#020202" d="M20.3,73.7c-3.2,0-5.9-2.6-5.9-5.9s2.6-5.9,5.9-5.9c3.2,0,5.9,2.6,5.9,5.9S23.6,73.7,20.3,73.7z M20.3,64.9
		c-1.6,0-2.9,1.3-2.9,2.9s1.3,2.9,2.9,2.9c1.6,0,2.9-1.3,2.9-2.9S21.9,64.9,20.3,64.9z"/>
</g>
<g>
	<polygon fill="#ECEFF0" points="28,79.6 28,74.9 20.3,72.4 20.3,72.4 12.7,74.9 12.7,79.6 	"/>
	<path fill="#020202" d="M28,81.1H12.7c-0.8,0-1.5-0.7-1.5-1.5v-4.7c0-0.6,0.4-1.2,1-1.4l7.7-2.6c0.3-0.1,0.7-0.1,1,0l7.7,2.6
		c0.6,0.2,1,0.8,1,1.4v4.7C29.5,80.4,28.8,81.1,28,81.1z M14.2,78.1h12.4V76l-6.2-2.1L14.2,76V78.1z"/>
</g>
<g>
	<circle fill="#BCD4DE" cx="79.7" cy="67.8" r="4.4"/>
	<path fill="#020202" d="M79.7,73.7c-3.2,0-5.9-2.6-5.9-5.9s2.6-5.9,5.9-5.9s5.9,2.6,5.9,5.9S82.9,73.7,79.7,73.7z M79.7,64.9
		c-1.6,0-2.9,1.3-2.9,2.9s1.3,2.9,2.9,2.9s2.9-1.3,2.9-2.9S81.2,64.9,79.7,64.9z"/>
</g>
<g>
	<polygon fill="#FCB61E" points="87.3,79.6 87.3,74.9 79.7,72.4 79.7,72.4 72,74.9 72,79.6 	"/>
	<path fill="#020202" d="M87.3,81.1H72c-0.8,0-1.5-0.7-1.5-1.5v-4.7c0-0.6,0.4-1.2,1-1.4l7.7-2.6c0.3-0.1,0.7-0.1,1,0l7.7,2.6
		c0.6,0.2,1,0.8,1,1.4v4.7C88.8,80.4,88.2,81.1,87.3,81.1z M73.5,78.1h12.4V76l-6.2-2.1L73.5,76V78.1z"/>
</g>
<g>
	<path fill="#020202" d="M26.1,56.4c-0.2,0-0.5-0.1-0.7-0.2c-0.7-0.4-1-1.3-0.6-2l7-13.3c0.4-0.7,1.3-1,2-0.6c0.7,0.4,1,1.3,0.6,2
		l-7,13.2C27.1,56.1,26.6,56.4,26.1,56.4z"/>
</g>
<g>
	<path fill="#020202" d="M69.1,52.6c-0.5,0-1.1-0.3-1.3-0.8l-7.2-13.5c-0.4-0.7-0.1-1.6,0.6-2c0.7-0.4,1.6-0.1,2,0.6l7.2,13.5
		c0.4,0.7,0.1,1.6-0.6,2C69.6,52.6,69.3,52.6,69.1,52.6z"/>
</g>
</svg>
