<?xml version="1.0" encoding="utf-8"?>
<!-- Generator: Adobe Illustrator 18.1.1, SVG Export Plug-In . SVG Version: 6.00 Build 0)  -->
<!DOCTYPE svg PUBLIC "-//W3C//DTD SVG 1.1//EN" "http://www.w3.org/Graphics/SVG/1.1/DTD/svg11.dtd">
<svg version="1.1" id="Layer_1" xmlns="http://www.w3.org/2000/svg" xmlns:xlink="http://www.w3.org/1999/xlink" x="0px" y="0px"
	 width="298.1px" height="100px" viewBox="-50 151 298.1 100" enable-background="new -50 151 298.1 100" xml:space="preserve">
<path fill="#11100D" d="M12,167.8l5.2-5.9c1.2-1.4,1-3.5-0.3-4.7c-1.4-1.2-3.5-1-4.7,0.3l-7.3,8.4c-1.8-0.3-3.7-0.5-5.7-0.5
	c-19.5,0-35.4,15.9-35.4,35.4c0,15.1,9.5,28,22.9,33.1l-5.4,6.3c-1.2,1.4-1,3.5,0.4,4.7c0.6,0.5,1.4,0.8,2.2,0.8
	c0.9,0,1.9-0.4,2.5-1.2l7.5-8.7c1.8,0.3,3.6,0.4,5.4,0.4c19.5,0,35.4-15.9,35.4-35.4C34.6,185.8,25.2,172.9,12,167.8z M-29.6,200.8
	c0-15.9,12.9-28.8,28.8-28.8c0.1,0,0.2,0,0.3,0l-13.3,15.4c-0.8,0.7-1.4,1.5-2.1,2.4l-0.1,0.1c0,0,0,0.1-0.1,0.1
	c-2.2,3-3.4,6.8-3.4,10.8c0,10.3,8.3,18.6,18.5,18.7l-7.7,9C-20.7,225-29.6,213.9-29.6,200.8z M-0.8,188.7c6.7,0,12.1,5.4,12.1,12.1
	c0,2.6-0.8,5-2.2,7l-1.5,1.8c-2.2,2.1-5.1,3.4-8.4,3.4c-6.7,0-12.1-5.4-12.1-12.1c0-2.5,0.8-4.9,2.1-6.8L-9,192
	C-6.8,189.9-4,188.7-0.8,188.7z M-0.8,229.6L-0.8,229.6l13.2-15.5c0.6-0.6,1.2-1.3,1.8-2l0.1-0.1c0.1-0.1,0.1-0.2,0.2-0.3
	c2.2-3.1,3.5-6.8,3.5-10.8c0-10.2-8.2-18.5-18.4-18.7l7.7-8.9c11.9,3.4,20.7,14.4,20.7,27.5C28,216.7,15.1,229.6-0.8,229.6z"/>
<g>
	<path fill="#11100D" d="M71.8,202.8c0,2.4-0.1,4.3-0.3,5.5c-0.3,2-1,3.5-2.1,4.6c-1.4,1.4-3.4,2.1-5.8,2.1s-4.4-0.8-5.9-2.5v2.2H52
		v-32.5h6V193c1.4-1.6,3.3-2.4,5.7-2.4c2.4,0,4.3,0.7,5.8,2.1c1.1,1.1,1.8,2.6,2.1,4.6C71.7,198.6,71.8,200.4,71.8,202.8z
		 M65.9,202.8c0-2.1-0.2-3.6-0.5-4.5c-0.6-1.5-1.8-2.3-3.5-2.3s-2.9,0.8-3.5,2.3c-0.3,0.9-0.5,2.4-0.5,4.5c0,2.1,0.2,3.6,0.5,4.5
		c0.6,1.5,1.8,2.3,3.5,2.3s2.9-0.8,3.5-2.3C65.7,206.4,65.9,204.9,65.9,202.8z"/>
	<path fill="#11100D" d="M83.4,186.9h-6v-4.8h6V186.9z M83.4,214.7h-6v-23.8h6V214.7z"/>
	<path fill="#11100D" d="M100.6,214.7h-3.2c-2.2,0-4-0.7-5.2-2.1c-1.1-1.2-1.6-2.8-1.6-4.6v-11.9H88v-4.5h2.5v-7h6v7h4.1v4.5h-4.1
		v11.4c0,1.4,0.7,2.1,2,2.1h2.1V214.7z"/>
	<path fill="#11100D" d="M125.1,214.7h-5.8v-2.1c-1.5,1.5-3.5,2.3-5.8,2.3c-2.7,0-4.7-0.7-6-2.1c-1.3-1.4-2-3.2-2-5.4
		c0-2,0.7-3.7,2.1-4.9c1.4-1.3,3.4-1.9,6-1.9h5.6v-1.2c0-2.5-1.5-3.7-4.4-3.7c-1.9,0-3.4,0.7-4.5,2l-3.8-3.7
		c1.1-1.2,2.4-2.1,3.7-2.6c1.2-0.5,2.8-0.7,4.9-0.7c6.7,0,10.1,2.8,10.1,8.4v15.6H125.1z M119.1,205.9v-1.3h-4.7
		c-2.2,0-3.3,0.9-3.3,2.7s1.1,2.7,3.4,2.7c2,0,3.4-0.5,4-1.5C118.9,208,119.1,207.1,119.1,205.9z"/>
	<path fill="#11100D" d="M147.4,211.7c-2.1,2.2-4.7,3.2-7.8,3.2c-2.9,0-5.2-0.8-7.1-2.5c-2.4-2.1-3.6-5.4-3.6-9.7s1.2-7.6,3.6-9.7
		c1.8-1.6,4.2-2.5,7.1-2.5c3.2,0,5.8,1.1,7.8,3.2l-4,4c-1.2-1.2-2.4-1.9-3.8-1.9s-2.5,0.5-3.4,1.6c-0.9,1.1-1.3,2.8-1.3,5.2
		c0,2.4,0.4,4.2,1.3,5.2c0.9,1.1,2,1.6,3.4,1.6s2.7-0.6,3.8-1.9L147.4,211.7z"/>
	<path fill="#11100D" d="M167.5,211.7c-2.1,2.2-4.7,3.2-7.8,3.2c-2.9,0-5.2-0.8-7.1-2.5c-2.4-2.1-3.6-5.4-3.6-9.7s1.2-7.6,3.6-9.7
		c1.8-1.6,4.2-2.5,7.1-2.5c3.2,0,5.8,1.1,7.8,3.2l-4,4c-1.2-1.2-2.4-1.9-3.8-1.9s-2.5,0.5-3.4,1.6c-0.9,1.1-1.3,2.8-1.3,5.2
		c0,2.4,0.4,4.2,1.3,5.2c0.9,1.1,2,1.6,3.4,1.6s2.7-0.6,3.8-1.9L167.5,211.7z"/>
	<path fill="#11100D" d="M189.9,204.7h-14.8c0,1.6,0.5,2.9,1.4,3.8c0.9,1,2.2,1.5,3.8,1.5c2.1,0,3.9-0.7,5.4-2.2l3.6,3.5
		c-1.3,1.3-2.6,2.2-3.8,2.8c-1.4,0.6-3.2,1-5.2,1c-7.3,0-11-4.1-11-12.2c0-3.8,1-6.8,2.9-9c1.9-2.1,4.3-3.1,7.5-3.1s5.8,1.1,7.7,3.2
		c1.8,2.1,2.7,4.8,2.7,8.1v2.6H189.9z M184.1,200.6c0-1-0.2-1.8-0.5-2.5c-0.7-1.6-2-2.5-4-2.5s-3.2,0.8-4,2.5
		c-0.3,0.7-0.5,1.6-0.5,2.5H184.1z"/>
	<path fill="#11100D" d="M212.4,207.2c0,2.5-1,4.5-2.9,5.8c-1.8,1.3-4.2,1.9-7.2,1.9c-2.2,0-4-0.2-5.4-0.6c-1.8-0.5-3.3-1.5-4.7-2.8
		l3.9-3.9c1.5,1.5,3.6,2.2,6.3,2.2c2.8,0,4.2-0.8,4.2-2.5c0-1.3-0.8-2-2.5-2.2l-3.7-0.4c-4.6-0.5-6.9-2.7-6.9-6.6
		c0-2.4,0.9-4.3,2.8-5.6c1.7-1.3,3.8-1.9,6.4-1.9c4.1,0,7.1,0.9,9.1,2.8l-3.6,3.7c-1.2-1.1-3-1.6-5.5-1.6c-2.2,0-3.4,0.8-3.4,2.3
		c0,1.2,0.8,1.9,2.5,2.1l3.7,0.4C210.1,200.7,212.4,203,212.4,207.2z"/>
	<path fill="#11100D" d="M234.6,207.2c0,2.5-1,4.5-2.9,5.8c-1.8,1.3-4.2,1.9-7.2,1.9c-2.2,0-4-0.2-5.4-0.6c-1.8-0.5-3.3-1.5-4.7-2.8
		l3.9-3.9c1.5,1.5,3.6,2.2,6.3,2.2c2.8,0,4.2-0.8,4.2-2.5c0-1.3-0.8-2-2.5-2.2l-3.7-0.4c-4.6-0.5-6.9-2.7-6.9-6.6
		c0-2.4,0.9-4.3,2.8-5.6c1.7-1.3,3.8-1.9,6.4-1.9c4.1,0,7.1,0.9,9.1,2.8l-3.6,3.7c-1.2-1.1-3-1.6-5.5-1.6c-2.2,0-3.4,0.8-3.4,2.3
		c0,1.2,0.8,1.9,2.5,2.1l3.7,0.4C232.3,200.7,234.6,203,234.6,207.2z"/>
</g>
</svg>
