<?xml version="1.0" encoding="utf-8"?>
<!-- Generator: Adobe Illustrator 18.1.1, SVG Export Plug-In . SVG Version: 6.00 Build 0)  -->
<!DOCTYPE svg PUBLIC "-//W3C//DTD SVG 1.1//EN" "http://www.w3.org/Graphics/SVG/1.1/DTD/svg11.dtd">
<svg version="1.1" id="Layer_1" xmlns="http://www.w3.org/2000/svg" xmlns:xlink="http://www.w3.org/1999/xlink" x="0px" y="0px"
	 width="108.5px" height="108.5px" viewBox="0 0 108.5 108.5" enable-background="new 0 0 108.5 108.5" xml:space="preserve">
<path fill="#FFFFFF" d="M67.2,21l5.2-5.9c1.2-1.4,1-3.5-0.3-4.7c-1.4-1.2-3.5-1-4.7,0.3l-7.3,8.4c-1.8-0.3-3.7-0.5-5.7-0.5
	C34.9,18.7,19,34.5,19,54.1c0,15.1,9.5,28,22.9,33.1l-5.4,6.3c-1.2,1.4-1,3.5,0.4,4.7c0.6,0.5,1.4,0.8,2.2,0.8
	c0.9,0,1.9-0.4,2.5-1.2L49,89c1.8,0.3,3.6,0.4,5.4,0.4c19.5,0,35.4-15.9,35.4-35.4C89.8,39,80.4,26.2,67.2,21z M25.6,54.1
	c0-15.9,12.9-28.8,28.8-28.8c0.1,0,0.2,0,0.3,0L41.4,40.6c-0.8,0.7-1.4,1.5-2.1,2.4l-0.1,0.1c-0.1,0.1-0.1,0.1-0.2,0.2
	c-2.2,3-3.4,6.8-3.4,10.8c0,10.3,8.3,18.6,18.5,18.7l-7.7,9C34.5,78.3,25.6,67.2,25.6,54.1z M54.4,42c6.7,0,12.1,5.4,12.1,12.1
	c0,2.6-0.8,5-2.2,7l-1.5,1.8c-2.2,2.1-5.1,3.4-8.4,3.4c-6.7,0-12.1-5.4-12.1-12.1c0-2.5,0.8-4.9,2.1-6.8l1.8-2.1
	C48.4,43.2,51.3,42,54.4,42z M54.4,82.8c0,0-0.1,0-0.1,0l13.3-15.5c0.6-0.6,1.2-1.3,1.8-2l0.1-0.1c0.1-0.1,0.1-0.2,0.2-0.3
	c2.2-3.1,3.5-6.8,3.5-10.8c0-10.2-8.2-18.5-18.4-18.7l7.7-8.9c12,3.5,20.7,14.6,20.7,27.6C83.2,69.9,70.3,82.8,54.4,82.8z"/>
</svg>
