<?xml version="1.0" encoding="utf-8"?>
<!-- Generator: Adobe Illustrator 18.1.1, SVG Export Plug-In . SVG Version: 6.00 Build 0)  -->
<!DOCTYPE svg PUBLIC "-//W3C//DTD SVG 1.1//EN" "http://www.w3.org/Graphics/SVG/1.1/DTD/svg11.dtd">
<svg version="1.1" id="Layer_1" xmlns="http://www.w3.org/2000/svg" xmlns:xlink="http://www.w3.org/1999/xlink" x="0px" y="0px"
	 width="298.1px" height="100px" viewBox="0 0 298.1 100" enable-background="new 0 0 298.1 100" xml:space="preserve">
<path fill="#FFFFFF" d="M62,16.8l5.2-5.9c1.2-1.4,1-3.5-0.3-4.7c-1.4-1.2-3.5-1-4.7,0.3l-7.3,8.4c-1.8-0.3-3.7-0.5-5.7-0.5
	c-19.5,0-35.4,15.9-35.4,35.4c0,15.1,9.5,28,22.9,33.1l-5.4,6.3c-1.2,1.4-1,3.5,0.4,4.7c0.6,0.5,1.4,0.8,2.2,0.8
	c0.9,0,1.9-0.4,2.5-1.2l7.5-8.7c1.8,0.3,3.6,0.4,5.4,0.4c19.5,0,35.4-15.9,35.4-35.4C84.6,34.8,75.2,21.9,62,16.8z M20.4,49.8
	C20.4,33.9,33.3,21,49.2,21c0.1,0,0.2,0,0.3,0L36.2,36.4c-0.8,0.7-1.4,1.5-2.1,2.4l-0.1,0.1C34,38.9,34,39,33.9,39
	c-2.2,3-3.4,6.8-3.4,10.8c0,10.3,8.3,18.6,18.5,18.7l-7.7,9C29.3,74,20.4,62.9,20.4,49.8z M49.2,37.7c6.7,0,12.1,5.4,12.1,12.1
	c0,2.6-0.8,5-2.2,7l-1.5,1.8c-2.2,2.1-5.1,3.4-8.4,3.4c-6.7,0-12.1-5.4-12.1-12.1c0-2.5,0.8-4.9,2.1-6.8l1.8-2.1
	C43.2,38.9,46,37.7,49.2,37.7z M49.2,78.6c0,0-0.1,0-0.1,0l13.3-15.5c0.6-0.6,1.2-1.3,1.8-2l0.1-0.1c0.1-0.1,0.1-0.2,0.2-0.3
	c2.2-3.1,3.5-6.8,3.5-10.8c0-10.2-8.2-18.5-18.4-18.7l7.7-8.9C69.2,25.7,78,36.7,78,49.8C78,65.7,65.1,78.6,49.2,78.6z"/>
<g>
	<path fill="#FFFFFF" d="M121.8,51.8c0,2.4-0.1,4.3-0.3,5.5c-0.3,2-1,3.5-2.1,4.6c-1.4,1.4-3.4,2.1-5.8,2.1c-2.4,0-4.4-0.8-5.9-2.5
		v2.2H102V31.2h6V42c1.4-1.6,3.3-2.4,5.7-2.4c2.4,0,4.3,0.7,5.8,2.1c1.1,1.1,1.8,2.6,2.1,4.6C121.7,47.6,121.8,49.4,121.8,51.8z
		 M115.9,51.8c0-2.1-0.2-3.6-0.5-4.5c-0.6-1.5-1.8-2.3-3.5-2.3c-1.7,0-2.9,0.8-3.5,2.3c-0.3,0.9-0.5,2.4-0.5,4.5
		c0,2.1,0.2,3.6,0.5,4.5c0.6,1.5,1.8,2.3,3.5,2.3c1.7,0,2.9-0.8,3.5-2.3C115.7,55.4,115.9,53.9,115.9,51.8z"/>
	<path fill="#FFFFFF" d="M133.4,35.9h-6v-4.8h6V35.9z M133.4,63.7h-6V39.9h6V63.7z"/>
	<path fill="#FFFFFF" d="M150.6,63.7h-3.2c-2.2,0-4-0.7-5.2-2.1c-1.1-1.2-1.6-2.8-1.6-4.6V45.1H138v-4.5h2.5v-7h6v7h4.1v4.5h-4.1
		v11.4c0,1.4,0.7,2.1,2,2.1h2.1V63.7z"/>
	<path fill="#FFFFFF" d="M175.1,63.7h-5.8v-2.1c-1.5,1.5-3.5,2.3-5.8,2.3c-2.7,0-4.7-0.7-6-2.1c-1.3-1.4-2-3.2-2-5.4
		c0-2,0.7-3.7,2.1-4.9c1.4-1.3,3.4-1.9,6-1.9h5.6v-1.2c0-2.5-1.5-3.7-4.4-3.7c-1.9,0-3.4,0.7-4.5,2l-3.8-3.7
		c1.1-1.2,2.4-2.1,3.7-2.6c1.2-0.5,2.8-0.7,4.9-0.7c6.7,0,10.1,2.8,10.1,8.4V63.7z M169.1,54.9v-1.3h-4.7c-2.2,0-3.3,0.9-3.3,2.7
		c0,1.8,1.1,2.7,3.4,2.7c2,0,3.4-0.5,4-1.5C168.9,57,169.1,56.1,169.1,54.9z"/>
	<path fill="#FFFFFF" d="M197.4,60.7c-2.1,2.2-4.7,3.2-7.8,3.2c-2.9,0-5.2-0.8-7.1-2.5c-2.4-2.1-3.6-5.4-3.6-9.7s1.2-7.6,3.6-9.7
		c1.8-1.6,4.2-2.5,7.1-2.5c3.2,0,5.8,1.1,7.8,3.2l-4,4c-1.2-1.2-2.4-1.9-3.8-1.9s-2.5,0.5-3.4,1.6c-0.9,1.1-1.3,2.8-1.3,5.2
		c0,2.4,0.4,4.2,1.3,5.2c0.9,1.1,2,1.6,3.4,1.6s2.7-0.6,3.8-1.9L197.4,60.7z"/>
	<path fill="#FFFFFF" d="M217.5,60.7c-2.1,2.2-4.7,3.2-7.8,3.2c-2.9,0-5.2-0.8-7.1-2.5c-2.4-2.1-3.6-5.4-3.6-9.7s1.2-7.6,3.6-9.7
		c1.8-1.6,4.2-2.5,7.1-2.5c3.2,0,5.8,1.1,7.8,3.2l-4,4c-1.2-1.2-2.4-1.9-3.8-1.9s-2.5,0.5-3.4,1.6c-0.9,1.1-1.3,2.8-1.3,5.2
		c0,2.4,0.4,4.2,1.3,5.2c0.9,1.1,2,1.6,3.4,1.6s2.7-0.6,3.8-1.9L217.5,60.7z"/>
	<path fill="#FFFFFF" d="M239.9,53.7h-14.8c0,1.6,0.5,2.9,1.4,3.8c0.9,1,2.2,1.5,3.8,1.5c2.1,0,3.9-0.7,5.4-2.2l3.6,3.5
		c-1.3,1.3-2.6,2.2-3.8,2.8c-1.4,0.6-3.2,1-5.2,1c-7.3,0-11-4.1-11-12.2c0-3.8,1-6.8,2.9-9c1.9-2.1,4.3-3.1,7.5-3.1
		c3.2,0,5.8,1.1,7.7,3.2c1.8,2.1,2.7,4.8,2.7,8.1V53.7z M234.1,49.6c0-1-0.2-1.8-0.5-2.5c-0.7-1.6-2-2.5-4-2.5s-3.2,0.8-4,2.5
		c-0.3,0.7-0.5,1.6-0.5,2.5H234.1z"/>
	<path fill="#FFFFFF" d="M262.4,56.2c0,2.5-1,4.5-2.9,5.8c-1.8,1.3-4.2,1.9-7.2,1.9c-2.2,0-4-0.2-5.4-0.6c-1.8-0.5-3.3-1.5-4.7-2.8
		l3.9-3.9c1.5,1.5,3.6,2.2,6.3,2.2c2.8,0,4.2-0.8,4.2-2.5c0-1.3-0.8-2-2.5-2.2l-3.7-0.4c-4.6-0.5-6.9-2.7-6.9-6.6
		c0-2.4,0.9-4.3,2.8-5.6c1.7-1.3,3.8-1.9,6.4-1.9c4.1,0,7.1,0.9,9.1,2.8l-3.6,3.7c-1.2-1.1-3-1.6-5.5-1.6c-2.2,0-3.4,0.8-3.4,2.3
		c0,1.2,0.8,1.9,2.5,2.1l3.7,0.4C260.1,49.7,262.4,52,262.4,56.2z"/>
	<path fill="#FFFFFF" d="M284.6,56.2c0,2.5-1,4.5-2.9,5.8c-1.8,1.3-4.2,1.9-7.2,1.9c-2.2,0-4-0.2-5.4-0.6c-1.8-0.5-3.3-1.5-4.7-2.8
		l3.9-3.9c1.5,1.5,3.6,2.2,6.3,2.2c2.8,0,4.2-0.8,4.2-2.5c0-1.3-0.8-2-2.5-2.2l-3.7-0.4c-4.6-0.5-6.9-2.7-6.9-6.6
		c0-2.4,0.9-4.3,2.8-5.6c1.7-1.3,3.8-1.9,6.4-1.9c4.1,0,7.1,0.9,9.1,2.8l-3.6,3.7c-1.2-1.1-3-1.6-5.5-1.6c-2.2,0-3.4,0.8-3.4,2.3
		c0,1.2,0.8,1.9,2.5,2.1l3.7,0.4C282.3,49.7,284.6,52,284.6,56.2z"/>
</g>
</svg>
